<?xml version="1.0" encoding="utf-8"?>
<!-- Generator: Adobe Illustrator 20.1.0, SVG Export Plug-In . SVG Version: 6.00 Build 0)  -->
<svg version="1.1" id="Layer_1" xmlns="http://www.w3.org/2000/svg" xmlns:xlink="http://www.w3.org/1999/xlink" x="0px" y="0px"
	 viewBox="0 0 30 30" style="enable-background:new 0 0 30 30;" xml:space="preserve">
<style type="text/css">
	.st0{display:none;}
	.st1{display:inline;}
	.st2{fill:#1D1D1B;}
	.st3{fill:#231F20;}
</style>
<g class="st0">
	<g class="st1">
		<path class="st2" d="M6.7,2.5H3.5c-0.6,0-1,0.5-1,1.1v3.2c0,0.6,0.5,1.1,1,1.1h3.2c0.6,0,1-0.5,1-1.1V3.5C7.7,3,7.3,2.5,6.7,2.5z
			 M7.1,6.7c0,0.2-0.2,0.4-0.4,0.4H3.5c-0.2,0-0.4-0.2-0.4-0.4V3.5c0-0.2,0.2-0.4,0.4-0.4h3.2c0.2,0,0.4,0.2,0.4,0.4V6.7z"/>
	</g>
	<g class="st1">
		<path class="st2" d="M22.9,2.5h-3.2c-0.6,0-1,0.5-1,1.1v3.2c0,0.6,0.5,1.1,1,1.1h3.2c0.6,0,1-0.5,1-1.1V3.5
			C23.9,3,23.5,2.5,22.9,2.5z M23.2,6.7c0,0.2-0.2,0.4-0.4,0.4h-3.2c-0.2,0-0.4-0.2-0.4-0.4V3.5c0-0.2,0.2-0.4,0.4-0.4h3.2
			c0.2,0,0.4,0.2,0.4,0.4V6.7z"/>
	</g>
	<g class="st1">
		<path class="st2" d="M6.7,18.3H3.5c-0.6,0-1,0.5-1,1.1v3.2c0,0.6,0.5,1.1,1,1.1h3.2c0.6,0,1-0.5,1-1.1v-3.2
			C7.7,18.8,7.3,18.3,6.7,18.3z M7.1,22.5c0,0.2-0.2,0.4-0.4,0.4H3.5c-0.2,0-0.4-0.2-0.4-0.4v-3.2c0-0.2,0.2-0.4,0.4-0.4h3.2
			c0.2,0,0.4,0.2,0.4,0.4V22.5z"/>
	</g>
	<g class="st1">
		<path class="st2" d="M22.9,18.3h-3.2c-0.6,0-1,0.5-1,1.1v3.2c0,0.6,0.5,1.1,1,1.1h3.2c0.6,0,1-0.5,1-1.1v-3.2
			C23.9,18.8,23.5,18.3,22.9,18.3z M23.2,22.5c0,0.2-0.2,0.4-0.4,0.4h-3.2c-0.2,0-0.4-0.2-0.4-0.4v-3.2c0-0.2,0.2-0.4,0.4-0.4h3.2
			c0.2,0,0.4,0.2,0.4,0.4V22.5z"/>
	</g>
	<g class="st1">
		<path d="M11.2,10.3H2.7c-0.1,0-0.2-0.1-0.2-0.2c0-0.1,0.1-0.2,0.2-0.2h8.5c0.1,0,0.2,0.1,0.2,0.2S11.3,10.3,11.2,10.3z"/>
	</g>
	<g class="st1">
		<path d="M7.9,11.9H2.6c-0.1,0-0.1-0.1-0.1-0.2c0-0.1,0.1-0.2,0.1-0.2h5.3C8,11.5,8,11.6,8,11.7C8,11.8,8,11.9,7.9,11.9z"/>
	</g>
	<g class="st1">
		<path d="M27.4,10.3h-8.5c-0.1,0-0.2-0.1-0.2-0.2c0-0.1,0.1-0.2,0.2-0.2h8.5c0.1,0,0.2,0.1,0.2,0.2S27.5,10.3,27.4,10.3z"/>
	</g>
	<g class="st1">
		<path d="M24.1,11.9h-5.3c-0.1,0-0.1-0.1-0.1-0.2c0-0.1,0.1-0.2,0.1-0.2h5.3c0.1,0,0.1,0.1,0.1,0.2C24.2,11.8,24.1,11.9,24.1,11.9z
			"/>
	</g>
	<g class="st1">
		<path d="M27.4,26h-8.5c-0.1,0-0.2-0.1-0.2-0.2s0.1-0.2,0.2-0.2h8.5c0.1,0,0.2,0.1,0.2,0.2S27.5,26,27.4,26z"/>
	</g>
	<g class="st1">
		<path d="M24.1,27.6h-5.3c-0.1,0-0.1-0.1-0.1-0.2s0.1-0.2,0.1-0.2h5.3c0.1,0,0.1,0.1,0.1,0.2C24.2,27.5,24.1,27.6,24.1,27.6z"/>
	</g>
	<g class="st1">
		<path d="M11.2,26H2.7c-0.1,0-0.2-0.1-0.2-0.2s0.1-0.2,0.2-0.2h8.5c0.1,0,0.2,0.1,0.2,0.2S11.3,26,11.2,26z"/>
	</g>
	<g class="st1">
		<path d="M7.9,27.6H2.6c-0.1,0-0.1-0.1-0.1-0.2s0.1-0.2,0.1-0.2h5.3C8,27.2,8,27.3,8,27.4S8,27.6,7.9,27.6z"/>
	</g>
</g>
<g>
	<path d="M21.1,15.9v2.7L20.5,18c-0.1-0.1-0.1-0.1-0.2,0s-0.1,0.1,0,0.2l0.9,0.9c0.1,0.1,0.1,0.1,0.2,0l0.9-0.9v-0.1V18
		c-0.1-0.1-0.1-0.1-0.2,0l-0.6,0.6v-2.7c0-0.1-0.1-0.1-0.1-0.1C21.2,15.7,21.1,15.8,21.1,15.9z"/>
</g>
<g>
	<path d="M5.9,15.9v2.7L5.3,18c-0.1-0.1-0.1-0.1-0.2,0C5,18,5,18.1,5,18.1L5.9,19C6,19.1,6,19.1,6.1,19L7,18.1V18v-0.1
		c-0.1-0.1-0.1-0.1-0.2,0l-0.6,0.6v-2.7c0-0.1-0.1-0.1-0.1-0.1C5.9,15.7,5.9,15.8,5.9,15.9z"/>
</g>
<g>
	<path d="M6.2,14.2v-2.7l0.6,0.6c0.1,0.1,0.1,0.1,0.2,0s0.1-0.1,0-0.2L6.1,11C6,10.9,6,10.9,5.9,11L5,11.9V12v0.1
		c0.1,0.1,0.1,0.1,0.2,0l0.6-0.6v2.7c0,0.1,0.1,0.1,0.1,0.1C6.1,14.4,6.2,14.3,6.2,14.2z"/>
</g>
<g>
	<path d="M21.4,14.2v-2.7l0.6,0.6c0.1,0.1,0.1,0.1,0.2,0c0.1,0,0.1-0.1,0.1-0.1l-0.9-0.9c-0.1-0.1-0.1-0.1-0.2,0L20.3,12v0.1v0.1
		c0.1,0.1,0.1,0.1,0.2,0l0.6-0.6v2.7c0,0.1,0.1,0.1,0.1,0.1C21.4,14.4,21.4,14.3,21.4,14.2z"/>
</g>
<rect y="6" class="st3" width="18.9" height="0.5"/>
<rect y="1" class="st3" width="30" height="0.5"/>
<rect y="28.4" class="st3" width="18.9" height="0.5"/>
<rect x="2.4" y="14.8" transform="matrix(1.244062e-13 -1 1 1.244062e-13 -8.9867 21.0617)" class="st3" width="7.3" height="0.5"/>
<rect x="17.6" y="14.8" transform="matrix(2.487512e-13 -1 1 2.487512e-13 6.2758 36.3242)" class="st3" width="7.3" height="0.5"/>
<rect y="23.4" class="st3" width="30" height="0.5"/>
</svg>
