<?xml version="1.0" encoding="utf-8"?>
<!-- Generator: Adobe Illustrator 20.1.0, SVG Export Plug-In . SVG Version: 6.00 Build 0)  -->
<svg version="1.1" id="Layer_1" xmlns="http://www.w3.org/2000/svg" xmlns:xlink="http://www.w3.org/1999/xlink" x="0px" y="0px"
	 viewBox="0 0 30 30" style="enable-background:new 0 0 30 30;" xml:space="preserve">
<style type="text/css">
	.st0{display:none;}
	.st1{display:inline;}
	.st2{display:none;fill:#FFFFFF;}
	.st3{display:inline;fill:none;stroke:#000000;stroke-width:0.5;stroke-miterlimit:10;}
	.st4{display:none;fill:none;stroke:#000000;stroke-width:0.5;stroke-miterlimit:10;}
	.st5{display:none;opacity:0.5;fill:#FFFFFF;enable-background:new    ;}
	.st6{fill:#FFFFFF;}
	.st7{stroke:#000000;stroke-miterlimit:10;}
	.st8{fill:none;stroke:#000000;stroke-width:2;stroke-miterlimit:10;}
</style>
<g class="st0">
	<g class="st1">
		<path d="M24.7,19.2V6.6H5.2v12.7h9.3v3.4h-3.2v0.9h7.3v-0.9h-3.2v-3.4L24.7,19.2L24.7,19.2z M6.2,18.3V7.5h17.5v10.9H6.2V18.3z"/>
	</g>
</g>
<rect x="5.7" y="7.1" class="st2" width="18.6" height="11.7"/>
<g class="st0">
	<path class="st1" d="M26.5,12.2v0.1l0.9,0.9l-0.9,0.9v0.1h0.1l1-1c0,0,0,0,0-0.1c0,0,0,0,0-0.1l-1-1C26.6,12.2,26.5,12.2,26.5,12.2
		z"/>
</g>
<g class="st0">
	<path class="st1" d="M19.8,10.1V10c0-0.4-0.3-0.8-0.8-0.8h-8c-0.4,0-0.8,0.3-0.8,0.8v5.9l0,0c0,0.4,0.3,0.8,0.8,0.8h8
		c0.4,0,0.8-0.3,0.8-0.8V10.1L19.8,10.1z M11.1,9.5h8c0.3,0,0.5,0.2,0.5,0.5v0.1c-0.7,0.7-1.8,1.8-2.7,2.7l-1.5-1.5
		c-0.2-0.2-0.5-0.2-0.6,0l-4.2,4.2V10C10.6,9.7,10.8,9.5,11.1,9.5z M19.1,16.3h-8c-0.2,0-0.4-0.2-0.5-0.4l4.4-4.4
		c0.1-0.1,0.2-0.1,0.2,0l1.5,1.5c-0.8,0.8-1.3,1.4-1.4,1.4c0,0.1,0,0.2,0,0.2h0.1c0,0,0.1,0,0.1-0.1c0.1-0.1,2.8-2.8,4.1-4.1v5.4
		C19.6,16.1,19.3,16.3,19.1,16.3z"/>
	<path class="st1" d="M12.3,11.8c0.4,0,0.8-0.3,0.8-0.8c0-0.4-0.3-0.8-0.8-0.8s-0.8,0.3-0.8,0.8S11.9,11.8,12.3,11.8z M12.3,10.6
		c0.3,0,0.5,0.2,0.5,0.5s-0.2,0.5-0.5,0.5s-0.5-0.2-0.5-0.5S12,10.6,12.3,10.6z"/>
</g>
<g class="st0">
	<path class="st1" d="M3.5,14.2v-0.1l-0.9-0.9l0.9-0.9v-0.1H3.4l-1,1c0,0,0,0,0,0.1c0,0,0,0,0,0.1l1,1C3.4,14.3,3.4,14.3,3.5,14.2z"
		/>
</g>
<g class="st0">
	<path class="st1" d="M15,9.4H2.9c-0.3,0-0.6-0.2-0.6-0.6s0.2-0.6,0.6-0.6H15c0.3,0,0.6,0.2,0.6,0.6S15.3,9.4,15,9.4z"/>
	<path class="st1" d="M27,3.4H2.9c-0.3,0-0.6-0.2-0.6-0.6s0.2-0.6,0.6-0.6H27c0.3,0,0.6,0.2,0.6,0.6S27.3,3.4,27,3.4z"/>
	<path class="st1" d="M15,27.7H2.9c-0.3,0-0.6-0.2-0.6-0.6s0.2-0.6,0.6-0.6H15c0.3,0,0.6,0.2,0.6,0.6S15.3,27.7,15,27.7z"/>
	<path class="st1" d="M27,21.7H2.9c-0.3,0-0.6-0.2-0.6-0.6c0-0.3,0.2-0.6,0.6-0.6H27c0.3,0,0.6,0.2,0.6,0.6S27.3,21.7,27,21.7z"/>
	<circle class="st3" cx="15" cy="15.1" r="2.8"/>
	<rect x="2.4" y="14.7" class="st1" width="10" height="0.6"/>
	<rect x="17.7" y="14.7" class="st1" width="9.9" height="0.7"/>
</g>
<g class="st0">
	<path class="st1" d="M16.8,14.3c-0.1-0.1-0.1-0.1-0.2,0L15,15.9l-1.6-1.6c-0.1-0.1-0.1-0.1-0.2,0c-0.1,0.1-0.1,0.1,0,0.2l1.7,1.7
		H15h0.1l1.7-1.7C16.9,14.4,16.9,14.3,16.8,14.3z"/>
</g>
<line class="st4" x1="18.8" y1="8.7" x2="13.3" y2="22"/>
<polygon class="st5" points="22.3,21.7 13.7,21.7 18.9,9.1 22.2,9.1 "/>
<g>
	<path d="M25.2,9.8V9.4c0-1.1-0.8-1.9-1.9-1.9H2.1C1,7.5,0.1,8.3,0.1,9.4v15.5l0,0c0,1.1,0.8,1.9,1.9,1.9h21.2
		c1.1,0,1.9-0.8,1.9-1.9V9.8L25.2,9.8z M2.1,8.1h21.2c0.7,0,1.2,0.6,1.2,1.2v0.3c-1.8,1.8-4.7,4.7-7.2,7.1L13.6,13
		c-0.4-0.4-1.2-0.4-1.7,0l-11,11V9.4C0.8,8.7,1.4,8.1,2.1,8.1z M23.3,26.2H2.1c-0.7,0-1.1-0.4-1.2-1.1l11.5-11.5
		c0.1-0.1,0.4-0.1,0.6,0l3.9,3.9c-1.9,1.9-3.6,3.6-3.6,3.6c-0.1,0.1-0.1,0.4,0.1,0.6c0,0,0.1,0.1,0.3,0.1c0.1,0,0.3,0,0.3-0.1
		c0.3-0.3,7.3-7.3,10.7-10.7v14.1C24.5,25.6,24,26.2,23.3,26.2z"/>
	<path d="M5.4,14.7c1.1,0,1.9-0.8,1.9-1.9c0-1.1-0.8-1.9-1.9-1.9s-2.1,0.8-2.1,1.9S4.3,14.7,5.4,14.7z M5.4,11.5
		c0.7,0,1.2,0.6,1.2,1.2c0,0.7-0.6,1.2-1.2,1.2s-1.2-0.6-1.2-1.2C4.2,12,4.7,11.5,5.4,11.5z"/>
</g>
<circle class="st6" cx="21.3" cy="11.7" r="7.5"/>
<g>
	<path class="st7" d="M23,7.3h-7.6c0,0,0,0.1-0.1,0.1c0,0.1,0,0.4,0,0.6H23c0.7,0,1.2,0.6,1.2,1.2v0.3c-1.8,1.8-4.7,4.7-7.2,7.1
		l-2.2-2.2c0,0.1,0,0.4,0,0.6c0.1,0.1,0.1,0.4,0.1,0.7l1,1c0.4,0.3,0.7,0.7,1.1,1c2.4-2.4,5.3-5.3,7.2-7.1v7.8
		c0.1,0,0.4-0.1,0.6-0.1c0.1,0,0.1-0.1,0.3-0.1V9.3C25.1,8.1,24.1,7.3,23,7.3z"/>
</g>
<circle class="st8" cx="21.3" cy="11.7" r="7.5"/>
</svg>
