<?xml version="1.0" encoding="utf-8"?>
<!-- Generator: Adobe Illustrator 20.1.0, SVG Export Plug-In . SVG Version: 6.00 Build 0)  -->
<svg version="1.1" id="Layer_1" xmlns="http://www.w3.org/2000/svg" xmlns:xlink="http://www.w3.org/1999/xlink" x="0px" y="0px"
	 viewBox="0 0 30 30" style="enable-background:new 0 0 30 30;" xml:space="preserve">
<style type="text/css">
	.st0{display:none;}
	.st1{display:inline;}
	.st2{display:none;fill:#FFFFFF;}
	.st3{display:inline;fill:none;stroke:#000000;stroke-width:0.5;stroke-miterlimit:10;}
	.st4{display:none;fill:none;stroke:#000000;stroke-width:0.5;stroke-miterlimit:10;}
	.st5{display:none;opacity:0.5;fill:#FFFFFF;}
</style>
<g class="st0">
	<g class="st1">
		<path d="M24.7,19.2V6.6H5.2v12.7h9.3v3.4h-3.2v0.9h7.3v-0.9h-3.2v-3.4L24.7,19.2L24.7,19.2z M6.2,18.3V7.5h17.5v10.9H6.2V18.3z"/>
	</g>
</g>
<rect x="5.7" y="7.1" class="st2" width="18.6" height="11.7"/>
<g class="st0">
	<path class="st1" d="M26.5,12.2v0.1l0.9,0.9l-0.9,0.9v0.1h0.1l1-1c0,0,0,0,0-0.1c0,0,0,0,0-0.1l-1-1C26.6,12.2,26.5,12.2,26.5,12.2
		z"/>
</g>
<g class="st0">
	<path class="st1" d="M19.8,10.1V10c0-0.4-0.3-0.8-0.8-0.8h-8c-0.4,0-0.8,0.3-0.8,0.8v5.9l0,0c0,0.4,0.3,0.8,0.8,0.8h8
		c0.4,0,0.8-0.3,0.8-0.8V10.1L19.8,10.1z M11.1,9.5h8c0.3,0,0.5,0.2,0.5,0.5v0.1c-0.7,0.7-1.8,1.8-2.7,2.7l-1.5-1.5
		c-0.2-0.2-0.5-0.2-0.6,0l-4.2,4.2V10C10.6,9.7,10.8,9.5,11.1,9.5z M19.1,16.3h-8c-0.2,0-0.4-0.2-0.5-0.4l4.4-4.4
		c0.1-0.1,0.2-0.1,0.2,0l1.5,1.5c-0.8,0.8-1.3,1.4-1.4,1.4c0,0.1,0,0.2,0,0.2h0.1c0,0,0.1,0,0.1-0.1c0.1-0.1,2.8-2.8,4.1-4.1v5.4
		C19.6,16.1,19.3,16.3,19.1,16.3z"/>
	<path class="st1" d="M12.3,11.8c0.4,0,0.8-0.3,0.8-0.8c0-0.4-0.3-0.8-0.8-0.8s-0.8,0.3-0.8,0.8S11.9,11.8,12.3,11.8z M12.3,10.6
		c0.3,0,0.5,0.2,0.5,0.5s-0.2,0.5-0.5,0.5s-0.5-0.2-0.5-0.5S12,10.6,12.3,10.6z"/>
</g>
<g class="st0">
	<path class="st1" d="M3.5,14.2v-0.1l-0.9-0.9l0.9-0.9v-0.1H3.4l-1,1c0,0,0,0,0,0.1c0,0,0,0,0,0.1l1,1C3.4,14.3,3.4,14.3,3.5,14.2z"
		/>
</g>
<g class="st0">
	<path class="st1" d="M15,9.4H2.9c-0.3,0-0.6-0.2-0.6-0.6s0.2-0.6,0.6-0.6H15c0.3,0,0.6,0.2,0.6,0.6S15.3,9.4,15,9.4z"/>
	<path class="st1" d="M27,3.4H2.9c-0.3,0-0.6-0.2-0.6-0.6s0.2-0.6,0.6-0.6H27c0.3,0,0.6,0.2,0.6,0.6S27.3,3.4,27,3.4z"/>
	<path class="st1" d="M15,27.7H2.9c-0.3,0-0.6-0.2-0.6-0.6s0.2-0.6,0.6-0.6H15c0.3,0,0.6,0.2,0.6,0.6S15.3,27.7,15,27.7z"/>
	<path class="st1" d="M27,21.7H2.9c-0.3,0-0.6-0.2-0.6-0.6c0-0.3,0.2-0.6,0.6-0.6H27c0.3,0,0.6,0.2,0.6,0.6S27.3,21.7,27,21.7z"/>
	<circle class="st3" cx="15" cy="15.1" r="2.8"/>
	<rect x="2.4" y="14.7" class="st1" width="10" height="0.6"/>
	<rect x="17.7" y="14.7" class="st1" width="9.9" height="0.7"/>
</g>
<g class="st0">
	<path class="st1" d="M16.8,14.3c-0.1-0.1-0.1-0.1-0.2,0L15,15.9l-1.6-1.6c-0.1-0.1-0.1-0.1-0.2,0c-0.1,0.1-0.1,0.1,0,0.2l1.7,1.7
		H15h0.1l1.7-1.7C16.9,14.4,16.9,14.3,16.8,14.3z"/>
</g>
<line class="st4" x1="18.8" y1="8.7" x2="13.3" y2="22"/>
<polygon class="st5" points="22.3,21.7 13.7,21.7 18.9,9.1 22.2,9.1 "/>
<g>
	<g>
		<path d="M7.2,14.8c0.4,0.2,0.4,0.6,0.2,1c-0.5,0.7-0.4,1.6,0,2.6c0.4,0.8,1.3,1.2,2.1,1.4c0.4,0.1,0.3,0.3,0.5,1
			c1.6,4.8,6.1,5.7,10.5,3.6c0.3-0.2,0.7-0.3,1-0.5c0.4-0.3,0.8-0.5,0.9-0.6c0.1-0.1,0.4-0.4,0.8-0.7c0.8-0.9,1.3-2.1,1.3-3.5
			c0-0.2,0-0.4,0-0.6c0-0.3-0.1-0.8-0.1-1.1c0-0.2,0-0.3-0.1-0.5c0-0.1-0.1-0.1-0.1-0.1c-0.1,0-0.3-0.4-0.5-0.8
			c-0.3-0.7-0.6-1.4-0.5-2.2c0-0.7,0.1-2.1-0.4-2.9c-0.2-0.4-0.3-0.8-0.1-1.3c0.6-1.1,0.5-2.7,0.1-3.8c-0.6-1.5-2.9-1.2-4-0.8
			c-0.4,0.1-0.8,0.3-1.3,0.5c-0.4,0.2-1.1,0.1-1.5-0.1C13.1,3.7,10,6,7.9,8C5.6,10.4,4.3,13.2,7.2,14.8z M20,24
			c-1.2,0.7-2.7,1.1-4.1,0.9c-0.5,0-0.8-0.2-0.7-0.3c0.1-0.1,0-0.2-0.3-0.4c-0.2-0.1-0.5-0.2-0.6,0c-0.1,0.1-0.3,0.1-0.5,0.1
			c-0.2-0.1-0.2-0.3,0-0.4c0.1-0.1,0.2-0.2,0.2-0.3c0,0-0.1,0.1-0.2,0.2c-0.1,0.1-0.3,0.2-0.4,0.2c0,0-0.1-0.1-0.1-0.1
			c-0.1-0.1-0.1-0.1-0.2-0.2c-0.1-0.1-0.1-0.3,0.1-0.5c0.2-0.2,0.1-0.5-0.1-0.8c-0.2-0.3-0.4-0.3-0.6-0.2c-0.2,0.2-0.5,0-0.8-0.5
			c0,0,0-0.1-0.1-0.1c-0.2-0.4-0.2-1,0-1.2c0.2-0.2,0.3-0.4,0.3-0.5c0-0.1-0.1-0.2-0.1-0.2c-0.1,0-0.2,0.1-0.4,0.3
			c-0.2,0.2-0.4,0.1-0.5-0.2c0-0.2-0.1-0.3-0.1-0.5c0-0.1-0.1-0.1-0.2-0.1c-0.4,0-0.7-0.2-1.1-0.4c-0.4-0.3-0.6-0.7-0.4-0.8
			c0.2-0.2,0.2-0.4,0.1-0.6s-0.3-0.2-0.5,0c-0.2,0.2-0.5,0.2-0.6-0.1c-0.1-0.2,0.1-0.6,0.4-0.9c0.3-0.3,0.6-0.7,0.8-0.9
			c0.2-0.2,0.5-0.3,0.5-0.3c0,0,0.2,0,0.4,0c0.1,0,0.3-0.1,0.3-0.2c1-1.2,2.5-2.8,4.2-3.6c0.4-0.2,0.6-0.1,0.3,0.2
			c-0.3,0.3-0.2,0.3,0.2,0c0.3-0.2,0.6-0.4,0.9-0.5c0.5-0.2,0.9-0.3,0.9-0.3c0,0,0.4,0,0.9,0.1c0.1,0,0.2,0,0.3,0.1
			c0.5,0.1,0.7,0.4,0.6,0.5c-0.1,0.1-0.2,0.2-0.3,0.2c0,0,0-0.1,0-0.1c0.1-0.1,0.1-0.1,0.1-0.1c0,0-0.1,0-0.1,0c0,0,0,0-0.1,0
			c0,0-0.1,0,0,0c0,0,0,0,0,0c0,0-0.1,0-0.1,0.1c0,0-0.4,0-0.9,0c-0.8,0-1.5,0.2-2.1,0.5c-1.1,0.7-1.8,1.2-1.7,2.6
			c0,0.6,1.1,1.7,1,1.9c-2.7,3.9,1.7,6.9,5.4,7.2C20.4,23.5,20.5,23.7,20,24z M22.9,21c-0.2,0.5-0.5,0.9-0.8,1.3
			c-0.3,0.4-1,0.7-1.5,0.7c-0.1,0-0.2,0-0.3,0c-0.5,0-0.9-0.2-0.8-0.2c0,0,0-0.1-0.1-0.1c-0.1,0-0.2,0-0.2,0c0,0-0.4,0-0.9-0.2
			c-0.4-0.2-0.7-0.5-0.5-0.6c0.1-0.1,0.1-0.3-0.1-0.5c-0.2-0.2-0.4-0.2-0.6,0c-0.1,0.1-0.4,0.2-0.5,0.1s-0.1-0.3,0-0.5
			s0.3-0.3,0.2-0.3c0,0-0.2,0.1-0.3,0.2c-0.1,0.2-0.4,0.1-0.6,0s-0.1-0.5,0-0.7c0.2-0.2,0.2-0.5,0.1-0.7c-0.1-0.2,0,0,0.3,0.4
			c1.4,1.7,4.1,1.8,6,0.8C22.9,20.4,23.1,20.5,22.9,21z M21.9,20.4l0.1-0.1c0.1-0.1,0.2-0.2,0.3-0.3c0.2-0.2,0.2-0.1,0,0.2
			C22,20.4,21.8,20.5,21.9,20.4z M23.1,18.1c0,0.4-0.4,1-0.7,1.3c-0.1,0.1-0.2,0.2-0.3,0.4c-0.3,0.4-0.6,0.7-0.5,0.7
			c0.1,0-0.1,0.2-0.3,0.2c-0.1,0-0.3,0.1-0.4,0.1c-0.3,0-0.6,0-0.8,0c-0.5-0.1-0.7-0.3-0.6-0.4c0.1-0.1,0.1-0.4,0-0.6
			c-0.1-0.2-0.4-0.2-0.6,0c-0.2,0.2-0.4,0.4-0.3,0.4c0,0-0.3-0.2-0.7-0.6c0,0,0,0,0,0c-0.3-0.4-0.2-0.8,0.3-0.8
			c0.4,0,0.6,0.1,0.4,0.2c-0.2,0.2-0.3,0.4-0.3,0.4c0,0,0.2-0.1,0.5-0.4c0.2-0.2,0.7-0.5,1-0.5c0.3-0.1,0.5-0.1,0.4,0
			c-0.1,0.1,0.2,0.1,0.5,0.1c0.3,0,0.8-0.2,1-0.4c0.2-0.2,0.6-0.4,1-0.6C22.7,17.6,23.1,17.8,23.1,18.1z M22.5,16.2
			c0.2,0.4,0.3,0.8,0.2,0.9c-0.1,0-0.1,0.1-0.1,0.1c-0.8,0.3-1.5,0.6-2.3,0.8c-1.2,0.3-2.4,0.4-3.6,0.4c-0.1,0-0.9,0.2-0.8,0.4
			c0,0,0,0,0,0c0,0-0.1,0.2-0.3,0.4c-0.2,0.2-0.5,0-0.6-0.5c0-0.3,0-0.6,0-0.9c0.1-0.5,0.5-1.1,0.9-1.5c0,0,0.1-0.1,0.1-0.1
			c0.3-0.4,0.6-0.7,0.6-0.7c0,0-0.2,0.1-0.5,0.3c-0.2,0.2-0.4,0.3-0.4,0.3c0,0,0-0.1,0.1-0.1c0-0.1,0.1-0.1,0-0.2
			c-0.2-0.2-0.3-0.4-0.4-0.6c-0.2-0.3-0.1-0.8,0.2-1.1c0.2-0.2,0.4-0.4,0.4-0.5c0,0-0.2,0.1-0.4,0.3c-0.2,0.2-0.5,0-0.5-0.5
			c0.1-1.2,0.9-2.2,2.3-1.9c0.5,0.1,0.9,0.4,1.1,0.4c0.1,0,0.2,0,0.3,0c0.1,0,0.1,0,0.2,0c0,0,0.2-0.1,0.3-0.1
			c0.2-0.1,0.3-0.3,0.4-0.3c0.1-0.1,0.4-0.4,0.9-0.7c0.4-0.2,0.8-0.3,1.1,0.3c0.3,0.8,0.3,1.8,0.3,2.7C21.8,15,22.2,15.5,22.5,16.2z
			 M16,6.8c0.3-0.2,0.6-0.4,0.8-0.5c0.2-0.1,0.5-0.4,0.9-0.6c0.2-0.1,0.4-0.3,0.7-0.4c0,0,0.1,0,0.1,0c0.1,0,0.1,0,0.1,0
			c0,0,0,0,0.1,0c0,0,0.4-0.2,0.9-0.3c2.2-0.2,3,2.8,2.1,4.4c-0.2,0.4-0.8,0.7-1.1,0.8c-0.3,0.1-0.8,0-1.3-0.2
			c-0.1,0-0.2-0.1-0.4-0.1c-0.5-0.1-0.8-0.2-0.8-0.3c0,0,0,0-0.2,0c-0.1,0-0.5,0-0.8,0.1c-0.2,0-0.4,0.1-0.7,0.1
			c-2.6,0.5-5.2,2.8-6.8,4.7c-0.1,0.1-0.1,0.2-0.1,0.3c0,0.2-0.1,0.5-0.5,0.9c-0.1,0.1-0.3,0.3-0.4,0.4c-0.3,0.4-0.7,0.2-0.5-0.2
			c0.2-0.3,0.4-0.5,0.8-0.6c0,0,0,0,0,0c0,0,0,0,0.1,0c0.1,0,0.1-0.1,0.1-0.1c0.1,0,0.1-0.1,0.1-0.1c0,0,0,0,0,0
			c0.6-1.6,1.5-3,2.5-4.2c0.9-0.9,1.7-1.8,2.6-2.6c0.3-0.3,0.7-0.6,1.1-0.9C15.7,7,15.8,6.9,16,6.8z M6.5,11.5
			c0-0.4,0.2-0.8,0.5-1.2C7.2,9.9,7.4,9.8,7.2,10c-0.2,0.3,0,0.2,0.4-0.1c1.3-1.3,2.3-2.4,3.1-3.2c0.3-0.4,0.7-0.6,0.7-0.7
			c0,0-0.2,0.3-0.6,0.6c-1.1,1.1-2.5,2.6-3.4,3.5c-0.3,0.4-0.6,0.7-0.6,0.7s0.3-0.3,0.6-0.6C7.7,9.9,8.1,9.5,8.6,9
			c0.8-0.8,1.6-1.6,2.3-2.3c0.3-0.4,1-0.8,1.4-1c0.8-0.3,1.7-0.3,2.5,0.1c0.4,0.2,0.4,0.7,0,1c-2.5,1.8-4.6,4.4-6,7
			c-0.2,0.4-0.8,0.6-1.2,0.4C6.9,13.4,6.3,12.6,6.5,11.5z"/>
		<path d="M17.7,13.9C17.2,13.9,17,14.5,17,15c0,0.4,0.1,1.1,0.7,1.1c0.5-0.1,0.7-0.6,0.7-1.1C18.3,14.6,18.2,13.8,17.7,13.9z
			 M17.6,15.8c-0.2-0.2-0.3-0.5-0.3-0.8c0-0.1,0.1-1.2,0.4-1C18,14.3,18,14.7,18,15C18,15.2,17.9,16,17.6,15.8z"/>
		<path d="M20.5,12.9C20,13,19.9,13.6,19.9,14c0,0.4,0.2,1.1,0.7,1c0.5-0.1,0.6-0.7,0.6-1.1C21.2,13.5,21.1,12.8,20.5,12.9z
			 M20.5,14.8c-0.3-0.2-0.3-0.6-0.3-0.9c0-0.2,0.1-1.1,0.5-0.8c0.3,0.2,0.3,0.6,0.3,0.9C20.9,14.1,20.9,15.1,20.5,14.8z"/>
		<path d="M11.5,14.7C11.5,14.7,11.5,14.7,11.5,14.7C11.6,14.7,11.6,14.7,11.5,14.7C11.5,14.7,11.5,14.7,11.5,14.7z"/>
		<path d="M19.9,9.8c0,0-0.1,0-0.1,0.1C19.7,10,19.7,10,19.7,10c0,0,0.1-0.1,0.1-0.1C19.9,9.9,19.9,9.8,19.9,9.8z"/>
		<path d="M17.5,6.3c0,0,0.1-0.1,0.2-0.2c0.1-0.1,0.1-0.2,0.1-0.2c-0.1,0-0.4,0.2-0.7,0.5c-0.3,0.3-0.4,0.4-0.1,0.2
			C17.2,6.5,17.4,6.3,17.5,6.3z"/>
	</g>
</g>
</svg>
