<?xml version="1.0" encoding="utf-8"?>
<!-- Generator: Adobe Illustrator 17.0.0, SVG Export Plug-In . SVG Version: 6.00 Build 0)  -->
<!DOCTYPE svg PUBLIC "-//W3C//DTD SVG 1.1//EN" "http://www.w3.org/Graphics/SVG/1.1/DTD/svg11.dtd">
<svg version="1.1" id="Layer_1" xmlns="http://www.w3.org/2000/svg" xmlns:xlink="http://www.w3.org/1999/xlink" x="0px" y="0px"
	 width="30px" height="30px" viewBox="0 0 30 30" enable-background="new 0 0 30 30" xml:space="preserve">
<g>
	<path d="M24.923,2.427H4.994c-1.45,0-2.629,1.169-2.629,2.606V24.78c0,1.437,1.18,2.606,2.629,2.606h19.929
		c1.45,0,2.629-1.169,2.629-2.606V5.033C27.552,3.596,26.372,2.427,24.923,2.427z M26.722,5.033v5.074h-7.427
		c-1.152-1.023-2.672-1.646-4.336-1.646c-1.664,0-3.185,0.623-4.336,1.646H9.284V3.25h15.638C25.915,3.25,26.722,4.05,26.722,5.033z
		 M14.958,9.284c3.129,0,5.674,2.522,5.674,5.622s-2.545,5.622-5.674,5.622s-5.674-2.522-5.674-5.622S11.83,9.284,14.958,9.284z
		 M7.347,10.107V3.25h1.107v6.857H7.347z M5.409,10.107V3.25h1.107v6.857H5.409z M4.579,3.298v6.808H3.195V5.033
		C3.195,4.191,3.786,3.485,4.579,3.298z M24.923,26.563H4.994c-0.992,0-1.799-0.8-1.799-1.783v-13.85h6.648
		c-0.87,1.096-1.389,2.478-1.389,3.977c0,3.554,2.918,6.445,6.504,6.445s6.504-2.891,6.504-6.445c0-1.499-0.519-2.881-1.389-3.977
		h6.648v13.85C26.722,25.763,25.915,26.563,24.923,26.563z"/>
	<path d="M14.958,19.157c2.366,0,4.29-1.907,4.29-4.251s-1.925-4.251-4.29-4.251c-2.366,0-4.29,1.907-4.29,4.251
		S12.593,19.157,14.958,19.157z M14.958,11.478c1.908,0,3.46,1.538,3.46,3.428s-1.552,3.428-3.46,3.428
		c-1.908,0-3.46-1.538-3.46-3.428S13.051,11.478,14.958,11.478z"/>
	<path d="M14.958,17.511C14.958,17.511,14.958,17.511,14.958,17.511c0.703,0,1.363-0.271,1.859-0.762
		c0.76-0.753,0.98-1.875,0.561-2.859c-0.089-0.209-0.333-0.307-0.544-0.219c-0.211,0.088-0.31,0.33-0.221,0.539
		c0.287,0.673,0.136,1.441-0.384,1.957c-0.339,0.336-0.791,0.521-1.272,0.521s-0.933-0.185-1.272-0.521
		c-0.162-0.161-0.425-0.161-0.587,0c-0.162,0.161-0.162,0.421,0,0.582C13.595,17.24,14.255,17.511,14.958,17.511z"/>
	<path d="M21.048,8.735h1.661c0.229,0,0.415-0.184,0.415-0.411c0-0.227-0.186-0.411-0.415-0.411h-1.246V5.444h3.045v2.468h-0.138
		c-0.229,0-0.415,0.184-0.415,0.411c0,0.227,0.186,0.411,0.415,0.411h0.554c0.229,0,0.415-0.184,0.415-0.411V5.033
		c0-0.227-0.186-0.411-0.415-0.411h-3.875c-0.229,0-0.415,0.184-0.415,0.411v3.291C20.632,8.551,20.818,8.735,21.048,8.735z"/>
</g>
</svg>
