<?xml version="1.0" encoding="utf-8"?>
<!-- Generator: Adobe Illustrator 17.0.0, SVG Export Plug-In . SVG Version: 6.00 Build 0)  -->
<!DOCTYPE svg PUBLIC "-//W3C//DTD SVG 1.1//EN" "http://www.w3.org/Graphics/SVG/1.1/DTD/svg11.dtd">
<svg version="1.1" id="Layer_1" xmlns="http://www.w3.org/2000/svg" xmlns:xlink="http://www.w3.org/1999/xlink" x="0px" y="0px"
	 width="30px" height="30px" viewBox="0 0 30 30" enable-background="new 0 0 30 30" xml:space="preserve">
<g>
	<path d="M27.583,19.045v-8.123c0-0.178-0.117-0.335-0.288-0.385l-3.758-1.115c0.291-0.712,0.472-1.418,0.472-2.074
		c0-2.734-2.224-4.958-4.958-4.958s-4.958,2.224-4.958,4.958c0,0.656,0.181,1.362,0.472,2.074l-3.644,1.081L2.907,8.125
		C2.785,8.089,2.653,8.112,2.552,8.188C2.45,8.264,2.39,8.384,2.39,8.51v8.133c0,0.001,0,0.002,0,0.003v8.123
		c0,0.178,0.117,0.335,0.288,0.385l8.123,2.41c0.002,0.001,0.006,0.002,0.006,0.002c0.001,0,0.003,0,0.004,0.001
		c0.015,0.004,0.03,0.008,0.046,0.01c0.004,0.001,0.008,0.001,0.013,0.002c0.017,0.002,0.034,0.004,0.051,0.004
		c0.019,0,0.036-0.002,0.053-0.004c0.004-0.001,0.008-0.001,0.012-0.002c0.016-0.003,0.031-0.006,0.046-0.01
		c0.001,0,0.003,0,0.004-0.001l0.004-0.001c0.002-0.001,7.849-2.329,7.849-2.329c0.05,0.022,0.105,0.035,0.163,0.035
		c0.058,0,0.113-0.013,0.163-0.035l7.853,2.33c0.038,0.011,0.076,0.017,0.114,0.017c0.086,0,0.17-0.027,0.24-0.08
		c0.102-0.076,0.162-0.195,0.162-0.322v-8.133C27.583,19.047,27.583,19.046,27.583,19.045L27.583,19.045z M26.779,11.223v7.291
		l-7.326-2.174v-1.143c0.524-0.54,2.583-2.733,3.746-5.036L26.779,11.223L26.779,11.223z M19.051,3.194
		c2.291,0,4.154,1.864,4.154,4.154c0,0.653-0.218,1.38-0.558,2.116c-0.017,0.027-0.031,0.056-0.041,0.088
		c-0.969,2.045-2.842,4.141-3.555,4.899c-0.712-0.757-2.584-2.85-3.553-4.895c-0.011-0.034-0.026-0.066-0.045-0.095
		c-0.338-0.735-0.556-1.461-0.556-2.113C14.897,5.058,16.761,3.194,19.051,3.194z M18.649,15.196v1.143l-7.326,2.174v-7.291
		l3.58-1.062C16.066,12.463,18.125,14.656,18.649,15.196z M3.194,17.178l2.778,0.824c0.038,0.011,0.077,0.017,0.114,0.017
		c0.173,0,0.333-0.113,0.385-0.288c0.063-0.213-0.058-0.437-0.271-0.5L3.194,16.34V9.049l7.325,2.174v7.291l-2.778-0.824
		c-0.213-0.063-0.437,0.058-0.5,0.271c-0.063,0.213,0.058,0.437,0.271,0.5l3.006,0.892v7.291l-7.325-2.174V17.178L3.194,17.178z
		 M19.453,24.469v-2.91c0-0.222-0.18-0.402-0.402-0.402s-0.402,0.18-0.402,0.402v2.91l-7.326,2.174v-7.291l7.326-2.174v2.772
		c0,0.222,0.18,0.402,0.402,0.402s0.402-0.18,0.402-0.402v-2.772l7.326,2.174v7.291L19.453,24.469z"/>
	<path d="M19.051,10.163c1.552,0,2.814-1.262,2.814-2.814c0-1.552-1.262-2.814-2.814-2.814s-2.814,1.262-2.814,2.814
		C16.237,8.9,17.5,10.163,19.051,10.163z M19.051,5.338c1.108,0,2.01,0.902,2.01,2.01s-0.902,2.01-2.01,2.01s-2.01-0.902-2.01-2.01
		S17.943,5.338,19.051,5.338z"/>
</g>
</svg>
