<?xml version="1.0" encoding="utf-8"?>
<!-- Generator: Adobe Illustrator 17.0.0, SVG Export Plug-In . SVG Version: 6.00 Build 0)  -->
<!DOCTYPE svg PUBLIC "-//W3C//DTD SVG 1.1//EN" "http://www.w3.org/Graphics/SVG/1.1/DTD/svg11.dtd">
<svg version="1.1" id="Layer_1" xmlns="http://www.w3.org/2000/svg" xmlns:xlink="http://www.w3.org/1999/xlink" x="0px" y="0px"
	 width="30px" height="30px" viewBox="0 0 30 30" enable-background="new 0 0 30 30" xml:space="preserve">
<g>
	<path d="M19.611,24.916h-9.222c-2.993,0-5.427-2.434-5.427-5.427v-6.587c0-0.898,0.73-1.628,1.628-1.628h16.821
		c0.897,0,1.627,0.73,1.627,1.628v6.587C25.038,22.481,22.604,24.916,19.611,24.916z M6.59,12.046c-0.471,0-0.855,0.384-0.855,0.855
		v6.587c0,2.566,2.088,4.654,4.655,4.654h9.222c2.566,0,4.654-2.088,4.654-4.654v-6.587c0-0.471-0.383-0.855-0.855-0.855H6.59z"/>
	<path d="M10.531,12.046c-0.213,0-0.386-0.173-0.386-0.386V4.432c0-0.639-0.52-1.159-1.159-1.159H8.859
		C8.22,3.273,7.7,3.793,7.7,4.432v7.228c0,0.213-0.173,0.386-0.386,0.386c-0.213,0-0.386-0.173-0.386-0.386V4.432
		c0-1.066,0.866-1.932,1.932-1.932h0.127c1.066,0,1.932,0.866,1.932,1.932v7.228C10.918,11.873,10.745,12.046,10.531,12.046z"/>
	<path d="M22.686,12.046c-0.213,0-0.386-0.173-0.386-0.386V4.432c0-0.639-0.52-1.159-1.159-1.159h-0.127
		c-0.639,0-1.159,0.52-1.159,1.159v7.228c0,0.213-0.173,0.386-0.386,0.386c-0.213,0-0.386-0.173-0.386-0.386V4.432
		c0-1.066,0.866-1.932,1.932-1.932h0.127c1.066,0,1.932,0.866,1.932,1.932v7.228C23.072,11.873,22.899,12.046,22.686,12.046z"/>
	<path d="M15,21.143c-1.812,0-3.286-1.474-3.286-3.286c0-1.812,1.474-3.286,3.286-3.286c1.812,0,3.286,1.474,3.286,3.286
		C18.286,19.669,16.811,21.143,15,21.143z M15,15.345c-1.385,0-2.513,1.127-2.513,2.513c0,1.385,1.127,2.513,2.513,2.513
		s2.513-1.127,2.513-2.513C17.513,16.472,16.385,15.345,15,15.345z"/>
	<path d="M17.899,27.5h-5.798c-0.213,0-0.386-0.173-0.386-0.386V24.53c0-0.213,0.173-0.386,0.386-0.386h5.798
		c0.213,0,0.386,0.173,0.386,0.386v2.584C18.286,27.327,18.112,27.5,17.899,27.5z M12.487,26.727h5.026v-1.811h-5.026
		C12.487,24.916,12.487,26.727,12.487,26.727z"/>
</g>
</svg>
