<?xml version="1.0" encoding="utf-8"?>
<!-- Generator: Adobe Illustrator 17.0.0, SVG Export Plug-In . SVG Version: 6.00 Build 0)  -->
<!DOCTYPE svg PUBLIC "-//W3C//DTD SVG 1.1//EN" "http://www.w3.org/Graphics/SVG/1.1/DTD/svg11.dtd">
<svg version="1.1" id="Layer_1" xmlns="http://www.w3.org/2000/svg" xmlns:xlink="http://www.w3.org/1999/xlink" x="0px" y="0px"
	 width="30px" height="30px" viewBox="0 0 30 30" enable-background="new 0 0 30 30" xml:space="preserve">
<g>
	<path d="M22.868,2.351H10.629c-0.005,0-0.009,0.001-0.014,0.001c-0.005,0-0.009,0-0.014,0.001
		c-0.017,0.001-0.035,0.003-0.052,0.006c0,0-0.001,0-0.001,0c-0.018,0.004-0.036,0.009-0.053,0.015
		c-0.003,0.001-0.006,0.002-0.009,0.003c-0.016,0.006-0.032,0.013-0.047,0.021c-0.001,0.001-0.002,0.001-0.003,0.001
		c-0.016,0.009-0.031,0.018-0.046,0.029c-0.003,0.002-0.007,0.005-0.01,0.007c-0.014,0.011-0.028,0.023-0.041,0.036c0,0,0,0,0,0
		L5.968,6.842c0,0,0,0,0,0C5.955,6.855,5.943,6.869,5.932,6.884C5.93,6.887,5.927,6.89,5.925,6.893
		c-0.01,0.015-0.02,0.03-0.029,0.046C5.896,6.94,5.895,6.941,5.895,6.942C5.887,6.957,5.88,6.973,5.874,6.989
		C5.873,6.992,5.872,6.996,5.87,6.999C5.864,7.016,5.859,7.033,5.856,7.052c0,0.001,0,0.001,0,0.002
		C5.852,7.07,5.85,7.087,5.849,7.104c0,0.005-0.001,0.01-0.001,0.014c0,0.005-0.001,0.009-0.001,0.014v19.233
		c0,0.708,0.576,1.284,1.284,1.284h15.736c0.708,0,1.284-0.576,1.284-1.284V3.635C24.152,2.927,23.576,2.351,22.868,2.351z
		 M10.219,3.75v2.508c0,0.256-0.208,0.464-0.464,0.464H7.247L10.219,3.75z M23.332,26.365c0,0.256-0.208,0.464-0.464,0.464H7.132
		c-0.256,0-0.464-0.208-0.464-0.464V7.542h3.087c0.708,0,1.284-0.576,1.284-1.284V3.171h11.829c0.256,0,0.464,0.208,0.464,0.464
		V26.365z"/>
	<path d="M9.755,9.29h10.491c0.226,0,0.41-0.183,0.41-0.41s-0.183-0.41-0.41-0.41H9.755c-0.226,0-0.41,0.183-0.41,0.41
		S9.528,9.29,9.755,9.29z"/>
	<path d="M9.755,11.476h10.491c0.226,0,0.41-0.183,0.41-0.41s-0.183-0.41-0.41-0.41H9.755c-0.226,0-0.41,0.183-0.41,0.41
		S9.528,11.476,9.755,11.476z"/>
	<path d="M9.755,13.661h10.491c0.226,0,0.41-0.183,0.41-0.41s-0.183-0.41-0.41-0.41H9.755c-0.226,0-0.41,0.183-0.41,0.41
		S9.528,13.661,9.755,13.661z"/>
	<path d="M9.755,15.847h10.491c0.226,0,0.41-0.183,0.41-0.41s-0.183-0.41-0.41-0.41H9.755c-0.226,0-0.41,0.183-0.41,0.41
		S9.528,15.847,9.755,15.847z"/>
	<path d="M9.755,18.032h10.491c0.226,0,0.41-0.183,0.41-0.41s-0.183-0.41-0.41-0.41H9.755c-0.226,0-0.41,0.183-0.41,0.41
		S9.528,18.032,9.755,18.032z"/>
	<path d="M15,20.273H9.755c-0.226,0-0.41,0.183-0.41,0.41s0.183,0.41,0.41,0.41H15c0.226,0,0.41-0.183,0.41-0.41
		S15.226,20.273,15,20.273z"/>
	<path d="M15,22.458H9.755c-0.226,0-0.41,0.183-0.41,0.41s0.183,0.41,0.41,0.41H15c0.226,0,0.41-0.183,0.41-0.41
		S15.226,22.458,15,22.458z"/>
	<path d="M18.715,21.147c-0.346,0-0.628,0.282-0.628,0.628s0.282,0.628,0.628,0.628s0.628-0.282,0.628-0.628
		S19.062,21.147,18.715,21.147z"/>
	<path d="M18.715,19.398c-1.311,0-2.377,1.066-2.377,2.377s1.066,2.377,2.377,2.377s2.377-1.066,2.377-2.377
		S20.026,19.398,18.715,19.398z M18.715,23.332c-0.859,0-1.557-0.699-1.557-1.557s0.699-1.557,1.557-1.557s1.557,0.699,1.557,1.557
		S19.574,23.332,18.715,23.332z"/>
</g>
</svg>
