<?xml version="1.0" encoding="utf-8"?>
<!-- Generator: Adobe Illustrator 20.1.0, SVG Export Plug-In . SVG Version: 6.00 Build 0)  -->
<svg version="1.1" id="Layer_1" xmlns="http://www.w3.org/2000/svg" xmlns:xlink="http://www.w3.org/1999/xlink" x="0px" y="0px"
	 viewBox="0 0 30 30" style="enable-background:new 0 0 30 30;" xml:space="preserve">
<style type="text/css">
	.st0{display:none;}
	.st1{display:inline;}
	.st2{display:none;fill:#FFFFFF;}
	.st3{display:inline;fill:none;stroke:#000000;stroke-width:0.5;stroke-miterlimit:10;}
	.st4{display:none;fill:none;stroke:#000000;stroke-width:0.5;stroke-miterlimit:10;}
	.st5{enable-background:new    ;}
</style>
<g class="st0">
	<g class="st1">
		<path d="M24.7,19.2V6.6H5.2v12.7h9.3v3.4h-3.2v0.9h7.3v-0.9h-3.2v-3.4L24.7,19.2L24.7,19.2z M6.2,18.3V7.5h17.5v10.9H6.2V18.3z"/>
	</g>
</g>
<rect x="5.7" y="7.1" class="st2" width="18.6" height="11.7"/>
<g class="st0">
	<path class="st1" d="M26.5,12.2v0.1l0.9,0.9l-0.9,0.9v0.1h0.1l1-1c0,0,0,0,0-0.1c0,0,0,0,0-0.1l-1-1C26.6,12.2,26.5,12.2,26.5,12.2
		z"/>
</g>
<g class="st0">
	<path class="st1" d="M19.8,10.1V10c0-0.4-0.3-0.8-0.8-0.8h-8c-0.4,0-0.8,0.3-0.8,0.8v5.9l0,0c0,0.4,0.3,0.8,0.8,0.8h8
		c0.4,0,0.8-0.3,0.8-0.8V10.1L19.8,10.1z M11.1,9.5h8c0.3,0,0.5,0.2,0.5,0.5v0.1c-0.7,0.7-1.8,1.8-2.7,2.7l-1.5-1.5
		c-0.2-0.2-0.5-0.2-0.6,0l-4.2,4.2V10C10.6,9.7,10.8,9.5,11.1,9.5z M19.1,16.3h-8c-0.2,0-0.4-0.2-0.5-0.4l4.4-4.4
		c0.1-0.1,0.2-0.1,0.2,0l1.5,1.5c-0.8,0.8-1.3,1.4-1.4,1.4c0,0.1,0,0.2,0,0.2h0.1c0,0,0.1,0,0.1-0.1c0.1-0.1,2.8-2.8,4.1-4.1v5.4
		C19.6,16.1,19.3,16.3,19.1,16.3z"/>
	<path class="st1" d="M12.3,11.8c0.4,0,0.8-0.3,0.8-0.8c0-0.4-0.3-0.8-0.8-0.8s-0.8,0.3-0.8,0.8S11.9,11.8,12.3,11.8z M12.3,10.6
		c0.3,0,0.5,0.2,0.5,0.5s-0.2,0.5-0.5,0.5s-0.5-0.2-0.5-0.5S12,10.6,12.3,10.6z"/>
</g>
<g class="st0">
	<path class="st1" d="M3.5,14.2v-0.1l-0.9-0.9l0.9-0.9v-0.1H3.4l-1,1c0,0,0,0,0,0.1c0,0,0,0,0,0.1l1,1C3.4,14.3,3.4,14.3,3.5,14.2z"
		/>
</g>
<g class="st0">
	<path class="st1" d="M15,9.4H2.9c-0.3,0-0.6-0.2-0.6-0.6s0.2-0.6,0.6-0.6H15c0.3,0,0.6,0.2,0.6,0.6S15.3,9.4,15,9.4z"/>
	<path class="st1" d="M27,3.4H2.9c-0.3,0-0.6-0.2-0.6-0.6s0.2-0.6,0.6-0.6H27c0.3,0,0.6,0.2,0.6,0.6S27.3,3.4,27,3.4z"/>
	<path class="st1" d="M15,27.7H2.9c-0.3,0-0.6-0.2-0.6-0.6s0.2-0.6,0.6-0.6H15c0.3,0,0.6,0.2,0.6,0.6S15.3,27.7,15,27.7z"/>
	<path class="st1" d="M27,21.7H2.9c-0.3,0-0.6-0.2-0.6-0.6c0-0.3,0.2-0.6,0.6-0.6H27c0.3,0,0.6,0.2,0.6,0.6S27.3,21.7,27,21.7z"/>
	<circle class="st3" cx="15" cy="15.1" r="2.8"/>
	<rect x="2.4" y="14.7" class="st1" width="10" height="0.6"/>
	<rect x="17.7" y="14.7" class="st1" width="9.9" height="0.7"/>
</g>
<g class="st0">
	<path class="st1" d="M16.8,14.3c-0.1-0.1-0.1-0.1-0.2,0L15,15.9l-1.6-1.6c-0.1-0.1-0.1-0.1-0.2,0c-0.1,0.1-0.1,0.1,0,0.2l1.7,1.7
		H15h0.1l1.7-1.7C16.9,14.4,16.9,14.3,16.8,14.3z"/>
</g>
<g class="st0">
	<path class="st1" d="M21.2,23.4h-6.1c-0.2,0-0.3-0.1-0.3-0.3s0.1-0.3,0.3-0.3h6.1c0.2,0,0.3,0.1,0.3,0.3S21.3,23.4,21.2,23.4z"/>
	<path class="st1" d="M27.3,20H15.1c-0.2,0-0.3-0.1-0.3-0.3c0-0.2,0.1-0.3,0.3-0.3h12.1c0.2,0,0.3,0.1,0.3,0.3S27.4,20,27.3,20z"/>
</g>
<g class="st0">
	<path class="st1" d="M21.2,10.5h-6.1c-0.2,0-0.3-0.1-0.3-0.3s0.1-0.3,0.3-0.3h6.1c0.2,0,0.3,0.1,0.3,0.3S21.3,10.5,21.2,10.5z"/>
	<path class="st1" d="M27.3,7.2H15.1c-0.2,0-0.3-0.1-0.3-0.3c0-0.2,0.1-0.3,0.3-0.3h12.1c0.2,0,0.3,0.1,0.3,0.3
		C27.5,7,27.4,7.2,27.3,7.2z"/>
</g>
<g class="st0">
	<path class="st1" d="M6.7,17.2c-2.3,0-4.2,1.9-4.2,4.2s1.9,4.2,4.2,4.2s4.2-1.9,4.2-4.2S9,17.2,6.7,17.2z M6.7,25.4
		c-2.2,0-3.9-1.8-3.9-3.9s1.8-3.9,3.9-3.9s3.9,1.8,3.9,3.9S8.8,25.4,6.7,25.4z"/>
	<path class="st1" d="M6.7,23.2c-0.1,0-0.2,0.1-0.2,0.2v0.3c0,0.1,0.1,0.2,0.2,0.2s0.2-0.1,0.2-0.2v-0.3C6.8,23.3,6.8,23.2,6.7,23.2
		z"/>
	<path class="st1" d="M6.7,18.7L6.7,18.7c-0.4,0-0.7,0.1-0.9,0.4c-0.3,0.2-0.4,0.6-0.4,0.9c0,0.1,0.1,0.2,0.2,0.2s0.2-0.1,0.2-0.2
		c0-0.3,0.1-0.5,0.3-0.7C6.2,19.1,6.4,19,6.7,19c0.5,0,1,0.4,1,1c0,0.3-0.2,0.7-0.4,0.8c-0.4,0.3-0.7,0.8-0.7,1.3v0.5
		c0,0.1,0.1,0.2,0.2,0.2S7,22.7,7,22.6v-0.5c0-0.4,0.2-0.8,0.5-1C7.8,20.8,8,20.4,8,20C8,19.3,7.4,18.7,6.7,18.7z"/>
</g>
<g class="st0">
	<path class="st1" d="M6.6,4.3c-2.3,0-4.2,1.9-4.2,4.2s1.9,4.2,4.2,4.2s4.2-1.9,4.2-4.2S9,4.3,6.6,4.3z M6.6,12.5
		c-2.2,0-3.9-1.8-3.9-3.9s1.8-3.9,3.9-3.9s3.9,1.8,3.9,3.9S8.8,12.5,6.6,12.5z"/>
	<path class="st1" d="M6.6,10.4c-0.1,0-0.2,0.1-0.2,0.2v0.3c0,0.1,0.1,0.2,0.2,0.2s0.2-0.1,0.2-0.2v-0.3C6.8,10.4,6.7,10.4,6.6,10.4
		z"/>
	<path class="st1" d="M6.7,5.8C6.6,5.8,6.6,5.8,6.7,5.8c-0.4,0-0.7,0.1-1,0.4C5.5,6.4,5.3,6.7,5.3,7.1c0,0.1,0.1,0.2,0.2,0.2
		s0.2-0.1,0.2-0.2c0-0.3,0.1-0.5,0.3-0.7c0.2-0.2,0.4-0.3,0.7-0.3c0.5,0,1,0.4,1,1c0,0.3-0.2,0.7-0.4,0.8C6.7,8.2,6.5,8.7,6.5,9.2
		v0.5c0,0.1,0.1,0.2,0.2,0.2s0.2-0.1,0.2-0.2V9.2c0-0.4,0.2-0.8,0.5-1C7.8,8,8,7.5,8,7.1C7.9,6.4,7.4,5.8,6.7,5.8z"/>
</g>
<rect x="2.6" y="9.8" class="st4" width="24.5" height="11.4"/>
<g class="st0">
	<path class="st1" d="M10,18.2H5.1c-0.1,0-0.2-0.1-0.2-0.2s0.1-0.2,0.2-0.2H10c0.1,0,0.2,0.1,0.2,0.2S10.1,18.2,10,18.2z"/>
	<path class="st1" d="M24.8,13.1l-3.5,3.5c-0.1,0.1-0.2,0.1-0.3,0s-0.1-0.2,0-0.3l3.5-3.5c0.1-0.1,0.2-0.1,0.3,0
		C24.9,12.9,24.9,13,24.8,13.1z"/>
	<path class="st1" d="M24.5,16.6L21,13.1c-0.1-0.1-0.1-0.2,0-0.3s0.2-0.1,0.3,0l3.5,3.5c0.1,0.1,0.1,0.2,0,0.3
		C24.7,16.7,24.6,16.7,24.5,16.6z"/>
	<path class="st1" d="M14.9,14.9H5.1c-0.1,0-0.2-0.1-0.2-0.2s0.1-0.2,0.2-0.2h9.8c0.1,0,0.2,0.1,0.2,0.2S15,14.9,14.9,14.9z"/>
</g>
<g class="st5">
	<path d="M0.1,19l2.7-7h1l2.9,7H5.6l-0.8-2.1H1.9L1.1,19H0.1z M2.2,16.2h2.4l-0.7-1.9c-0.2-0.6-0.4-1.1-0.5-1.4
		c-0.1,0.4-0.2,0.9-0.4,1.3L2.2,16.2z"/>
</g>
<g class="st5">
	<path d="M9.9,22.1V7.5h5.5c1.1,0,2,0.1,2.7,0.4c0.7,0.3,1.2,0.8,1.6,1.4c0.4,0.6,0.6,1.3,0.6,1.9c0,0.6-0.2,1.2-0.5,1.8
		c-0.3,0.6-0.9,1-1.5,1.3c0.9,0.3,1.6,0.7,2,1.3c0.5,0.6,0.7,1.4,0.7,2.2c0,0.7-0.1,1.3-0.4,1.9c-0.3,0.6-0.6,1-1.1,1.4
		c-0.4,0.3-1,0.6-1.6,0.7c-0.6,0.2-1.4,0.2-2.4,0.2H9.9z M11.8,13.6H15c0.9,0,1.5-0.1,1.8-0.2c0.5-0.1,0.9-0.4,1.1-0.7
		c0.3-0.3,0.4-0.8,0.4-1.3c0-0.5-0.1-0.9-0.3-1.3s-0.6-0.6-1-0.8c-0.4-0.1-1.2-0.2-2.2-0.2h-2.9V13.6z M11.8,20.4h3.6
		c0.6,0,1.1,0,1.3-0.1c0.4-0.1,0.8-0.2,1.1-0.4s0.5-0.5,0.7-0.8c0.2-0.4,0.3-0.8,0.3-1.2c0-0.5-0.1-1-0.4-1.4
		c-0.3-0.4-0.7-0.7-1.2-0.8c-0.5-0.2-1.2-0.2-2.1-0.2h-3.4V20.4z"/>
</g>
<g class="st5">
	<path d="M28.9,16.6l1,0.3c-0.2,0.8-0.6,1.4-1.1,1.9c-0.5,0.4-1.2,0.6-2,0.6c-0.8,0-1.5-0.2-2-0.5c-0.5-0.3-0.9-0.8-1.2-1.4
		c-0.3-0.6-0.4-1.3-0.4-2c0-0.8,0.1-1.5,0.4-2.1c0.3-0.6,0.7-1,1.3-1.3c0.6-0.3,1.2-0.5,1.8-0.5c0.8,0,1.4,0.2,1.9,0.6
		c0.5,0.4,0.9,0.9,1.1,1.6l-1,0.2c-0.2-0.5-0.4-0.9-0.8-1.2c-0.3-0.3-0.8-0.4-1.3-0.4c-0.6,0-1.1,0.1-1.5,0.4s-0.7,0.6-0.8,1.1
		c-0.2,0.5-0.2,0.9-0.2,1.4c0,0.6,0.1,1.2,0.3,1.7s0.5,0.8,0.9,1.1s0.8,0.4,1.3,0.4c0.6,0,1-0.2,1.4-0.5
		C28.5,17.7,28.8,17.2,28.9,16.6z"/>
</g>
</svg>
