<?xml version="1.0" encoding="utf-8"?>
<!-- Generator: Adobe Illustrator 17.0.0, SVG Export Plug-In . SVG Version: 6.00 Build 0)  -->
<!DOCTYPE svg PUBLIC "-//W3C//DTD SVG 1.1//EN" "http://www.w3.org/Graphics/SVG/1.1/DTD/svg11.dtd">
<svg version="1.1" id="Layer_1" xmlns="http://www.w3.org/2000/svg" xmlns:xlink="http://www.w3.org/1999/xlink" x="0px" y="0px"
	 width="30px" height="30px" viewBox="0 0 30 30" enable-background="new 0 0 30 30" xml:space="preserve">
<g>
	<g>
		<path d="M20.872,9.213l5.272,1.397l1.33-5.315l-1.013-0.268l-0.869,3.345c-2.204-3.603-6.152-6-10.657-6
			c-6.914,0-12.518,5.655-12.518,12.629s5.605,12.629,12.518,12.629c4.613,0,8.642-2.516,10.816-6.263l-0.987-0.479
			c-1.994,3.376-5.646,5.639-9.823,5.639c-6.31,0-11.429-5.16-11.429-11.526S8.625,3.471,14.935,3.471
			c4.203,0,7.88,2.289,9.864,5.701l-3.661-0.979L20.872,9.213z"/>
		<polygon points="13.258,6.419 13.258,15.981 19.384,18.986 19.86,18.022 14.327,15.337 14.327,6.419 		"/>
	</g>
</g>
</svg>
