<?xml version="1.0" encoding="utf-8"?>
<!-- Generator: Adobe Illustrator 19.2.1, SVG Export Plug-In . SVG Version: 6.00 Build 0)  -->
<svg version="1.1" id="Layer_1" xmlns="http://www.w3.org/2000/svg" xmlns:xlink="http://www.w3.org/1999/xlink" x="0px" y="0px"
	 viewBox="0 0 30 30" style="enable-background:new 0 0 30 30;" xml:space="preserve">
<style type="text/css">
	.st0{fill:#1D1D1B;}
</style>
<g>
	<g>
		<path class="st0" d="M11.9,15.9h-7c-1.3,0-2.3,1.1-2.3,2.4v7c0,1.3,1.1,2.4,2.3,2.4h7c1.3,0,2.3-1.1,2.3-2.4v-7
			C14.2,16.9,13.2,15.9,11.9,15.9z M12.7,25.3c0,0.4-0.4,0.8-0.8,0.8h-7c-0.4,0-0.8-0.4-0.8-0.8v-7c0-0.4,0.4-0.8,0.8-0.8h7
			c0.4,0,0.8,0.4,0.8,0.8V25.3z"/>
		<path class="st0" d="M25.2,15.9h-7c-1.3,0-2.3,1.1-2.3,2.4v7c0,1.3,1.1,2.4,2.3,2.4h7c1.3,0,2.3-1.1,2.3-2.4v-7
			C27.5,16.9,26.5,15.9,25.2,15.9z M26,25.3c0,0.4-0.4,0.8-0.8,0.8h-7c-0.4,0-0.8-0.4-0.8-0.8v-7c0-0.4,0.4-0.8,0.8-0.8h7
			c0.4,0,0.8,0.4,0.8,0.8V25.3z"/>
		<path class="st0" d="M11.9,2.5h-7c-1.3,0-2.3,1.1-2.3,2.4v7c0,1.3,1.1,2.4,2.3,2.4h7c1.3,0,2.3-1.1,2.3-2.4v-7
			C14.2,3.6,13.2,2.5,11.9,2.5z M12.7,11.9c0,0.4-0.4,0.8-0.8,0.8h-7c-0.4,0-0.8-0.4-0.8-0.8v-7c0-0.4,0.4-0.8,0.8-0.8h7
			c0.4,0,0.8,0.4,0.8,0.8V11.9z"/>
		<path class="st0" d="M25.2,2.5h-7c-1.3,0-2.3,1.1-2.3,2.4v7c0,1.3,1.1,2.4,2.3,2.4h7c1.3,0,2.3-1.1,2.3-2.4v-7
			C27.5,3.6,26.5,2.5,25.2,2.5z M26,11.9c0,0.4-0.4,0.8-0.8,0.8h-7c-0.4,0-0.8-0.4-0.8-0.8v-7c0-0.4,0.4-0.8,0.8-0.8h7
			c0.4,0,0.8,0.4,0.8,0.8V11.9z"/>
	</g>
</g>
</svg>
