<?xml version="1.0" encoding="utf-8"?>
<!-- Generator: Adobe Illustrator 17.0.0, SVG Export Plug-In . SVG Version: 6.00 Build 0)  -->
<!DOCTYPE svg PUBLIC "-//W3C//DTD SVG 1.1//EN" "http://www.w3.org/Graphics/SVG/1.1/DTD/svg11.dtd">
<svg version="1.1" id="Layer_1" xmlns="http://www.w3.org/2000/svg" xmlns:xlink="http://www.w3.org/1999/xlink" x="0px" y="0px"
	 width="30px" height="30px" viewBox="0 0 30 30" enable-background="new 0 0 30 30" xml:space="preserve">
<g>
	<path d="M27.3,7.757V7.354c0-1.096-0.891-1.987-1.987-1.987H4.387C3.291,5.367,2.4,6.258,2.4,7.354v15.292c0,0,0,0,0,0
		c0,1.096,0.891,1.987,1.987,1.987h20.926c1.096,0,1.987-0.891,1.987-1.987V7.757C27.3,7.757,27.3,7.757,27.3,7.757z M4.387,6.121
		h20.926c0.68,0,1.232,0.553,1.232,1.232V7.6c-1.767,1.759-4.671,4.651-7.079,7.057l-3.781-3.781c-0.461-0.461-1.211-0.461-1.672,0
		l-10.86,10.86V7.354C3.155,6.674,3.707,6.121,4.387,6.121z M25.313,23.879H4.387c-0.63,0-1.15-0.475-1.223-1.085l11.384-11.384
		c0.167-0.167,0.438-0.167,0.605,0l3.781,3.781c-1.982,1.982-3.514,3.52-3.58,3.608c-0.125,0.167-0.091,0.403,0.075,0.528
		c0.068,0.051,0.147,0.075,0.226,0.075c0.11,0,0.219-0.048,0.293-0.139c0.29-0.325,7.226-7.24,10.598-10.598v13.982
		C26.546,23.326,25.993,23.879,25.313,23.879z"/>
	<path d="M7.606,12.56c1.096,0,1.987-0.891,1.987-1.987S8.702,8.586,7.606,8.586s-1.987,0.891-1.987,1.987S6.511,12.56,7.606,12.56z
		 M7.606,9.341c0.68,0,1.232,0.553,1.232,1.232c0,0.68-0.553,1.232-1.232,1.232s-1.232-0.553-1.232-1.232
		C6.374,9.894,6.927,9.341,7.606,9.341z"/>
</g>
</svg>
