<svg xmlns="http://www.w3.org/2000/svg" xmlns:xlink="http://www.w3.org/1999/xlink" viewBox="0 0 496.2 143.8"><style>.st0{fill:#575756}</style><path d="M220.5 54.5c14.5 0 21.4 6 21.4 16 0 5.6-3.7 10.4-9.2 12.4 6.7 1.8 12.5 7.9 12.5 15.5 0 9.8-7.1 17.2-23.4 17.2-8 0-14.4-.2-21.7-.3l-.6-.6V55.4l.6-.6c7.2-.1 13.9-.3 20.4-.3zm-10.7 25.4h10.3c9.2 0 11.3-4.9 11.3-9.1 0-4.3-1.9-9.1-11.1-9.1-2.8 0-7.4 0-10.5-.1v18.3zm0 7.2v21.4c4.1 0 8.3-.1 11.9-.1 10.6 0 12.8-6.1 12.8-10.6 0-4.4-2.9-10.7-13.4-10.7h-11.3zM284.5 88.7c3.2 1.1 5.6 4.1 7 7.5l4.3 10.3c1 2.4 2.2 4.8 4.4 6.4-1.4 1.9-4.4 2.9-7.1 2.9-3.9 0-5.3-1.9-6.9-5.7l-4.9-11.9c-1.7-4.1-3.8-7.2-9.9-7.2h-8.1v24.3c-1.6.3-3.5.4-5.2.4-1.6 0-3.6-.1-5.1-.4V55.4l.6-.6c7.4-.1 14.5-.3 21.1-.3 13.7 0 22.3 6.4 22.3 18.1.1 8.1-5.3 14.1-12.5 16.1zm-21.1-5.3c3.8-.1 8.2-.2 10.9-.2 9.6 0 12-5.5 12-10.6 0-5.4-2.4-10.7-12-10.7-2.9 0-7.6 0-10.9-.1v21.6zM320.8 100.5l-5.2 14.8c-1.3.3-2.9.4-4.5.4-1.9 0-3.7-.3-5.1-.6l-.3-.4L327.9 55c1.6-.3 4.3-.4 6-.4 1.7 0 4.4.1 5.9.4l22 59.7c-1.5.9-3.8 1.2-6.1 1.2-3.2 0-4.9-1.1-6.2-4.9l-3.6-10.3c-1.7 0-5.1.1-5.9.1h-13.5c-.8-.2-4-.3-5.7-.3zm2.6-7.6c1.6 0 4.2-.1 5-.1h9.8c.7 0 3.3.1 4.9.1l-4.5-12.8c-1.8-5.1-3.8-11.3-5.2-16h-.4c-1 4-2.8 9.5-3.8 12.8l-5.8 16zM371.1 102.5c5.7 3.4 13 6 19.8 6 8 0 12.5-3.4 12.6-8.3 0-4.2-3.2-7.3-8.9-9.5L383 86.2c-8.3-3.2-13.5-7.8-13.5-15.3 0-9.6 9-17.1 22.2-17.1 8.2 0 15.7 2.3 20.8 4.6-.1 2.7-1.7 5.6-3.8 7.3-5.1-2.3-11.8-4.2-16.8-4.2-7.3 0-11.8 3.6-11.8 8.3 0 3.9 3.3 6.1 8.2 8l11.4 4.4c8.5 3.2 14.7 8.6 14.7 16.4 0 10.2-7.9 17.8-24.1 17.8-8.2 0-17-2.5-23.6-6.6.3-2.8 2.2-5.7 4.4-7.3zM426.6 54.9c1.5-.3 3.6-.4 5.2-.4s3.6.1 5.2.4v60.3c-1.6.3-3.6.4-5.2.4s-3.7-.1-5.2-.4V54.9zM492.9 107.1c0 1-.1 2.6-.3 3.7-.6 3-3 4.5-6.8 4.5h-25.7c-3.5 0-6.1-2-6.1-5.8V55l.7-.5h3.9c4.3 0 5.9 1.9 5.9 6v46.9c3-.3 6.1-.4 8.7-.4h19.7zM209.6 34.6h-4.1v10.1c-.9.2-2.1.2-3 .2-.8 0-2 0-3-.2V14.5l.3-.3c3.6-.1 6.5-.2 9.7-.2 6.1 0 10.6 3.3 10.6 10.3 0 6.8-4.4 10.3-10.5 10.3zm-4.1-4.6c1.5 0 3.1-.1 3.7-.1 4 0 4.8-3.2 4.8-5.6 0-2.4-.8-5.6-4.8-5.6h-3.7V30zM227.2 37.8l-2.1 6.9c-.8.2-1.6.2-2.6.2-.9 0-2.1-.1-2.8-.4l-.2-.3 9.9-30c1-.1 2.4-.2 3.5-.2.9 0 2.5.1 3.4.3l9.7 30c-.8.5-2.3.8-3.4.8-1.9 0-2.8-.7-3.6-3.2l-1.2-4.1H227.2zm1.5-4.7H236.4l-1.3-4.5c-.8-2.5-1.7-6-2.4-8.6h-.3c-.4 2.3-1.4 5.5-2 7.5l-1.7 5.6zM252.3 22.5v-3.3H244.7c-.2-.9-.2-1.8-.2-2.5s0-1.6.2-2.5H266c.2.6.3 1.6.3 2.3 0 2-1 2.7-3.2 2.7H258.3v25.5c-1 .2-2.1.2-3 .2-.8 0-2 0-3-.2V22.5zM285.4 31.6c1.6.6 2.7 2.1 3.3 3.9l1.6 4.5c.4 1.2 1.1 2.4 2.1 3.2-.8 1.1-2.4 1.8-4 1.8-2.2 0-2.9-1.2-3.8-3.5l-1.9-5.3c-.7-1.8-1.6-3.2-4.1-3.2H276v11.7c-1 .2-2.1.2-3 .2-.8 0-2 0-2.9-.2V14.5l.3-.3c3.6-.1 6.9-.2 10.2-.2 6.2 0 10.5 3.1 10.5 9.4-.1 4.3-2.8 7.2-5.7 8.2zm-9.4-3.2c1.6-.1 3.2-.1 4.1-.1 3.9 0 4.8-2.4 4.8-4.8 0-2.5-.9-4.8-4.8-4.8H276v9.7zM297.3 14.3c.9-.2 2.2-.2 3-.2.8 0 2 0 3 .2v30.4c-1 .2-2.1.2-3 .2-.8 0-2.1 0-3-.2V14.3zM315.4 37.8l-2.1 6.9c-.8.2-1.6.2-2.6.2-.9 0-2.1-.1-2.8-.4l-.2-.3 9.9-30c1-.1 2.4-.2 3.5-.2.9 0 2.5.1 3.4.3l9.8 30c-.8.5-2.3.8-3.4.8-1.9 0-2.8-.7-3.6-3.2l-1.2-4.1h-10.7zm1.5-4.7H324.6l-1.3-4.5c-.8-2.5-1.7-6-2.4-8.6h-.3c-.4 2.3-1.4 5.5-2 7.5l-1.7 5.6zM353.1 37.8l-2.1 6.9c-.8.2-1.6.2-2.6.2-.9 0-2.1-.1-2.8-.4l-.2-.3 9.9-30c1-.1 2.4-.2 3.5-.2.9 0 2.5.1 3.4.3l9.7 30c-.8.5-2.3.8-3.4.8-1.9 0-2.8-.7-3.6-3.2l-1.2-4.1H353.1zm1.4-4.7H362.2l-1.3-4.5c-.8-2.5-1.7-6-2.4-8.6h-.3c-.4 2.3-1.4 5.5-2 7.5l-1.7 5.6zM377.7 14.3c1.3-.2 3-.3 4-.3 1.1 0 2.5.1 3.8.3l3.4 12.3c.3 1.2 1.4 5.8 1.7 7.6h.3c.3-1.8 1.4-6.4 1.7-7.6l3.4-12.3c1.3-.2 2.8-.3 3.8-.3 1.1 0 2.7.1 4.1.3l2.4 30.3c-.8.2-2 .3-3 .3-.9 0-1.8 0-2.6-.2l-.8-14.3c-.2-2.8-.4-6.9-.4-9.7h-.3L394 40.1c-.9.1-2.2.2-3.1.2-.8 0-2.1-.1-3-.2l-5.2-19.4h-.3c0 2.8-.2 6.9-.4 9.7l-1 14.3c-.8.1-1.7.2-2.7.2-.9 0-2.1-.1-3-.3l2.4-30.3zM417.4 37.8l-2.1 6.9c-.8.2-1.6.2-2.6.2-.9 0-2.1-.1-2.8-.4l-.2-.3 9.9-30c1-.1 2.4-.2 3.5-.2.9 0 2.5.1 3.4.3l9.7 30c-.8.5-2.3.8-3.4.8-1.9 0-2.8-.7-3.6-3.2l-1.2-4.1H417.4zm1.5-4.7H426.6l-1.3-4.5c-.8-2.5-1.7-6-2.4-8.6h-.3c-.4 2.3-1.4 5.5-2 7.5l-1.7 5.6zM459.4 42.7c-2 1.6-5.6 2.2-8 2.2-3.7 0-6.6-.1-10.5-.2l-.3-.3v-30l.3-.3c3.8-.1 6.8-.2 10.5-.2 2.4 0 6 .6 8 2.2 4.1 3.3 4.9 8 4.9 13.2-.1 5.4-.8 10.1-4.9 13.4zm-8-23.9h-4.9v21.5h4.9c5.8 0 6.7-5.8 6.7-10.7 0-5-.9-10.8-6.7-10.8zM474 37.8l-2.1 6.9c-.8.2-1.6.2-2.6.2-.9 0-2.1-.1-2.8-.4l-.2-.3 9.9-30c1-.1 2.4-.2 3.5-.2.9 0 2.5.1 3.4.3l9.8 30c-.8.5-2.3.8-3.4.8-1.9 0-2.8-.7-3.6-3.2l-1.2-4.1H474zm1.5-4.7H483.2l-1.3-4.5c-.8-2.5-1.7-6-2.4-8.6h-.3c-.4 2.3-1.4 5.5-2 7.5l-1.7 5.6zM238.2 3.9c.9.5 2.1 1.9 2.4 3.2l-7.4 4.4c-.7-.3-1.4-1.3-1.6-2l6.6-5.6z"/><g><path d="M206.9 133.7h3.4c1.5 0 2.3.7 2.3 2.2v5.7c-1.9.6-3.8.9-5.9.9-1 0-2-.2-2.8-.5-.8-.3-1.5-.8-2-1.5-.5-.6-.9-1.4-1.2-2.4-.3-.9-.4-2-.4-3.2 0-1.3.2-2.5.6-3.4s.9-1.8 1.5-2.4c.6-.6 1.4-1.1 2.2-1.5.8-.3 1.7-.5 2.6-.5 1.9 0 3.6.5 5.3 1.6 0 .2-.1.5-.2.7-.1.2-.2.5-.3.7-.1.2-.3.4-.5.6-.2.2-.4.3-.6.5-1.2-.8-2.4-1.2-3.6-1.2-2.4 0-3.5 1.6-3.5 4.9 0 3.3 1.2 4.9 3.6 4.9h1c.3 0 .6-.1.9-.1v-1.4-.9-.6h-1.1c-.6 0-1-.1-1.3-.4-.2-.2-.4-.6-.4-1.1.1-.6.2-1.1.4-1.6zM224.2 141.1c-1.5-1.3-2.3-3.4-2.3-6.3 0-1.3.1-2.4.4-3.3.3-1 .7-1.8 1.3-2.4.6-.6 1.2-1.1 2-1.5.8-.3 1.7-.5 2.7-.5 1 0 1.9.2 2.7.5.8.3 1.5.8 2 1.5.6.7 1 1.5 1.3 2.4.3 1 .4 2.1.4 3.3 0 1.3-.1 2.4-.4 3.3-.3 1-.7 1.8-1.3 2.4-.6.6-1.2 1.1-2 1.5-.8.3-1.7.5-2.7.5-1.7-.1-3-.5-4.1-1.4zm1.7-3c.4 1.1 1.2 1.7 2.4 1.7.6 0 1.1-.1 1.4-.4.4-.3.7-.7.9-1.1.2-.5.3-1 .4-1.5.1-.6.1-1.1.1-1.7 0-.5 0-1.1-.1-1.7 0-.6-.1-1.2-.3-1.7-.2-.5-.4-1-.8-1.4-.4-.4-.9-.6-1.6-.6-.7 0-1.2.2-1.6.5-.4.4-.6.8-.8 1.3-.2.5-.3 1.1-.3 1.7 0 .6-.1 1.1-.1 1.5 0 .7 0 1.3.1 1.8 0 .5.1 1 .3 1.6zM249.6 139.2l2.8-11.9c.3-.1.8-.1 1.3-.1.8 0 1.3.1 1.8.2l.1.2-4 14.5c-.8.1-1.6.1-2.5.1-.8 0-1.4-.1-1.8-.3-.4-.2-.6-.6-.8-1.2l-3.6-13.1c.8-.3 1.4-.5 1.9-.5.6 0 1.1.1 1.3.4.3.3.5.7.7 1.3l1.7 6.2c.3 1 .5 2.3.8 3.9.1.2.1.3.3.3zM268.3 137.7v1.6h6.6c0 .5 0 .9-.1 1.2-.2 1.1-.9 1.7-2.2 1.7h-5.8c-.6 0-1.1-.2-1.5-.5-.4-.4-.5-.9-.5-1.5v-12.7l.2-.2h9.3c.1.4.1.9.1 1.4s-.1 1-.3 1.5h-5.9v3.1h4.8c.1.4.2.9.2 1.4 0 .5-.1 1-.2 1.4h-4.8v1.6zM295.3 131.9c0 .5-.1.9-.2 1.4-.1.4-.3.8-.6 1.1-.2.3-.5.6-.8.9-.3.3-.7.4-1 .6.8.3 1.3.9 1.7 2l.6 1.8c.2.7.6 1.3 1.1 1.6-.2.3-.5.5-1 .7-.4.2-.9.3-1.4.3-.5 0-.9-.1-1.2-.4-.3-.3-.6-.8-.8-1.5l-.8-2.3c-.2-.4-.4-.8-.6-1-.3-.2-.7-.3-1.2-.3h-.9v5.4c-.5.1-1 .1-1.7.1s-1.3 0-1.7-.1v-14.7l.2-.2c1.3 0 2.3 0 3.2-.1h2c.8 0 1.5.1 2.2.3.6.2 1.2.5 1.7.9s.8.9 1.1 1.5c0 .5.1 1.2.1 2zm-7.1-2.1v4.3h1.7c.5 0 .8-.1 1.1-.3.3-.2.5-.4.6-.6.1-.3.2-.7.2-1.2 0-1.4-.7-2.1-2-2.1h-.9c-.3-.1-.5-.1-.7-.1zM317.1 127.2l.2.2V142c-.6.1-1.3.2-2 .2s-1.5 0-2.1-.1l-3.4-7.7c-.4-.9-.8-1.9-1.2-3.1h-.1c.2 2.1.3 4.3.3 6.5v4.3c-.4.1-1 .1-1.6.1-.6 0-1.2 0-1.6-.1v-14.7c.5-.1 1.2-.2 2-.2s1.5 0 2.1.1l3.4 7.7c.6 1.4 1.1 2.5 1.3 3.3h.1c-.2-2-.3-4.1-.3-6.4v-2.6c0-.8.2-1.3.5-1.6.3-.3.8-.5 1.5-.5h.9zM329.4 141.1c-1.5-1.3-2.3-3.4-2.3-6.3 0-1.3.1-2.4.4-3.3.3-1 .7-1.8 1.3-2.4.6-.6 1.2-1.1 2-1.5.8-.3 1.7-.5 2.7-.5 1 0 1.9.2 2.7.5.8.3 1.5.8 2 1.5.6.7 1 1.5 1.3 2.4.3 1 .4 2.1.4 3.3 0 1.3-.1 2.4-.4 3.3-.3 1-.7 1.8-1.3 2.4-.6.6-1.2 1.1-2 1.5-.8.3-1.7.5-2.7.5-1.6-.1-3-.5-4.1-1.4zm1.7-3c.4 1.1 1.2 1.7 2.4 1.7.6 0 1.1-.1 1.4-.4.4-.3.7-.7.9-1.1.2-.5.3-1 .4-1.5.1-.6.1-1.1.1-1.7 0-.5 0-1.1-.1-1.7 0-.6-.1-1.2-.3-1.7-.2-.5-.4-1-.8-1.4-.4-.4-.9-.6-1.6-.6-.7 0-1.2.2-1.6.5-.4.4-.6.8-.8 1.3-.2.5-.3 1.1-.3 1.7 0 .6-.1 1.1-.1 1.5 0 .7 0 1.3.1 1.8s.2 1 .3 1.6zM365.4 130.3V133.4h4.7c.1.4.2.9.2 1.4 0 .5-.1 1-.2 1.4h-4.7v6c-.5.1-1 .1-1.7.1s-1.3 0-1.7-.1v-14.7l.2-.1h9.3c.1.4.1.8.1 1.4s-.1.9-.4 1.2c-.3.3-.8.4-1.4.4h-4.4zM384.4 137.7v1.6h6.6c0 .5 0 .9-.1 1.2-.2 1.1-.9 1.7-2.2 1.7H383c-.6 0-1.1-.2-1.5-.5-.4-.4-.5-.9-.5-1.5v-12.7l.2-.2h9.3c.1.4.1.9.1 1.4s-.1 1-.3 1.5h-5.9v3.1h4.8c.1.4.2.9.2 1.4 0 .5-.1 1-.2 1.4h-4.8v1.6zM410.4 141.2c-.5.4-1.1.6-1.8.8-.8.2-1.6.3-2.5.3h-1.9c-.8 0-1.9 0-3.2-.1l-.2-.2v-14.6l.2-.2c.8 0 1.7 0 2.6-.1h2.8c1.2 0 2.3.2 3.1.6.8.4 1.5.9 2 1.6s.8 1.5 1 2.4c.2.9.3 1.9.3 3 0 1.4-.2 2.7-.5 3.7-.3 1.1-1 2-1.9 2.8zm-4-1.7c1.9 0 2.9-1.6 2.9-4.8 0-3.2-1-4.8-2.9-4.8h-2.1v9.7h.9c.3-.1.7-.1 1.2-.1zM426.1 137.7v1.6h6.6c0 .5 0 .9-.1 1.2-.2 1.1-.9 1.7-2.2 1.7h-5.8c-.6 0-1.1-.2-1.5-.5-.4-.4-.5-.9-.5-1.5v-12.7l.2-.2h9.3c.1.4.1.9.1 1.4s-.1 1-.3 1.5H426v3.1h4.8c.1.4.2.9.2 1.4 0 .5-.1 1-.2 1.4H426v1.6zM453.1 131.9c0 .5-.1.9-.2 1.4s-.3.8-.6 1.1c-.2.3-.5.6-.8.9-.3.3-.7.4-1 .6.8.3 1.3.9 1.7 2l.6 1.8c.2.7.6 1.3 1.1 1.6-.2.3-.5.5-1 .7-.4.2-.9.3-1.4.3-.5 0-.9-.1-1.2-.4-.3-.3-.6-.8-.8-1.5l-.8-2.3c-.2-.4-.4-.8-.6-1-.3-.2-.7-.3-1.2-.3h-.9v5.4c-.5.1-1 .1-1.7.1s-1.3 0-1.7-.1v-14.7l.2-.2c1.3 0 2.3 0 3.2-.1h2c.8 0 1.5.1 2.2.3.6.2 1.2.5 1.7.9s.8.9 1.1 1.5c0 .5.1 1.2.1 2zm-7.2-2.1v4.3h1.7c.5 0 .8-.1 1.1-.3.3-.2.5-.4.6-.6.1-.3.2-.7.2-1.2 0-1.4-.7-2.1-2-2.1h-.9c-.2-.1-.5-.1-.7-.1zM466.8 139h-.9l-.9 3.1c-.3.1-.8.1-1.4.1-.7 0-1.3-.1-1.7-.2l-.1-.2 4.8-14.5c.6-.1 1.2-.1 2-.1.9 0 1.5.1 2 .2l4.7 14.5c-.5.3-1.1.4-1.7.4-.8 0-1.3-.1-1.6-.4-.3-.3-.6-.8-.8-1.5l-.4-1.4h-4zm0-2.7h3.3l-.4-1.3c-.3-1.2-.7-2.7-1.2-4.5h-.1c-.1.6-.5 2-1 4.1l-.6 1.7zM489.9 139.2h3.8c0 .6 0 1.1-.1 1.5-.1.4-.3.8-.7 1.1-.4.3-.9.4-1.5.4h-4.9c-.6 0-1.1-.2-1.5-.5-.4-.4-.5-.9-.5-1.5v-12.8l.2-.2h1.3c1.3 0 2 .7 2 2.2v9.9c.5-.1 1.2-.1 1.9-.1z"/></g><path class="st0" d="M.7 14v69.8l72.1-58.2 109.1 48.1V14z"/><path d="M.7 83.8v49.4s5.8-5 16.5-12.2C22.4 89.1 50 64.8 83.3 64.8c15.1 0 29 5 40.2 13.4 17.9-3.3 37.4-5.1 58.3-4.5l-109-48.1L.7 83.8z" fill="#c6c6c6"/><path d="M83.3 64.8c-33.3 0-60.9 24.3-66 56.2 19.9-13.2 57-33.7 106.3-42.8-11.2-8.4-25.2-13.4-40.3-13.4z"/><path class="st0" d="M140.2 96.5C79.3 100 37.4 119.4 16.4 131.8 6 137.9.7 142.3.7 142.3h181.1V96.6c-14.7-.9-28.5-.9-41.6-.1z"/></svg>