<?xml version="1.0" encoding="utf-8"?>
<!-- Generator: Adobe Illustrator 17.0.0, SVG Export Plug-In . SVG Version: 6.00 Build 0)  -->
<!DOCTYPE svg PUBLIC "-//W3C//DTD SVG 1.1//EN" "http://www.w3.org/Graphics/SVG/1.1/DTD/svg11.dtd">
<svg version="1.1" id="Layer_1" xmlns="http://www.w3.org/2000/svg" xmlns:xlink="http://www.w3.org/1999/xlink" x="0px" y="0px"
	 width="30px" height="30px" viewBox="0 0 30 30" enable-background="new 0 0 30 30" xml:space="preserve">
<g>
	<g>
		<path d="M17.259,18.388c1.508-0.629,2.697-1.485,3.569-2.569c0.872-1.083,1.308-2.263,1.308-3.54c0-1.276-0.436-2.456-1.308-3.54
			c-0.872-1.084-2.062-1.94-3.569-2.569c-1.508-0.629-3.147-0.943-4.919-0.943c-1.772,0-3.412,0.315-4.919,0.944
			C5.913,6.8,4.723,7.656,3.851,8.74c-0.872,1.084-1.308,2.263-1.308,3.54c0,1.093,0.33,2.122,0.988,3.086
			c0.659,0.964,1.563,1.777,2.713,2.438c-0.093,0.221-0.188,0.422-0.285,0.606c-0.097,0.184-0.213,0.36-0.348,0.53
			c-0.135,0.17-0.239,0.303-0.313,0.399c-0.074,0.096-0.195,0.232-0.362,0.406c-0.167,0.175-0.274,0.289-0.32,0.344
			c0-0.009-0.019,0.012-0.056,0.062c-0.037,0.051-0.058,0.073-0.063,0.069c-0.005-0.005-0.023,0.018-0.056,0.069
			c-0.032,0.051-0.049,0.076-0.049,0.076l-0.035,0.069c-0.014,0.027-0.023,0.055-0.028,0.083c-0.005,0.027-0.007,0.057-0.007,0.089
			c0,0.032,0.005,0.062,0.014,0.089c0.019,0.119,0.072,0.215,0.16,0.289c0.088,0.073,0.183,0.11,0.285,0.11h0.042
			c0.464-0.064,0.863-0.138,1.197-0.22c1.429-0.367,2.718-0.955,3.869-1.763c0.835,0.147,1.651,0.22,2.449,0.22
			C14.112,19.332,15.752,19.017,17.259,18.388z M9.473,17.238l-0.612,0.427c-0.26,0.174-0.547,0.354-0.863,0.537l0.487-1.157
			l-1.35-0.771c-0.891-0.514-1.582-1.12-2.074-1.818c-0.492-0.698-0.737-1.423-0.737-2.176c0-0.937,0.364-1.814,1.092-2.631
			C6.145,8.831,7.126,8.184,8.36,7.706c1.234-0.477,2.56-0.716,3.98-0.716s2.746,0.239,3.98,0.716
			c1.234,0.478,2.215,1.125,2.943,1.942c0.728,0.817,1.092,1.694,1.092,2.631c0,0.937-0.364,1.814-1.092,2.631
			c-0.728,0.818-1.71,1.465-2.943,1.942c-1.234,0.477-2.56,0.716-3.98,0.716c-0.696,0-1.405-0.064-2.129-0.193L9.473,17.238z"/>
		<path d="M26.492,18.897c0.659-0.96,0.988-1.99,0.988-3.092c0-1.129-0.348-2.186-1.043-3.168c-0.696-0.982-1.642-1.8-2.839-2.452
			c0.213,0.689,0.32,1.387,0.32,2.094c0,1.23-0.31,2.397-0.932,3.499c-0.622,1.102-1.512,2.075-2.672,2.92
			c-1.076,0.771-2.301,1.363-3.674,1.777c-1.373,0.413-2.806,0.62-4.3,0.62c-0.278,0-0.686-0.018-1.224-0.055
			c1.865,1.212,4.054,1.818,6.568,1.818c0.798,0,1.614-0.074,2.449-0.221c1.15,0.808,2.44,1.396,3.869,1.763
			c0.334,0.083,0.733,0.156,1.197,0.22c0.111,0.009,0.214-0.023,0.306-0.096c0.093-0.074,0.153-0.174,0.181-0.303
			c-0.004-0.055,0-0.085,0.014-0.09c0.014-0.004,0.011-0.034-0.007-0.089c-0.018-0.055-0.028-0.083-0.028-0.083l-0.035-0.069
			c-0.01-0.018-0.025-0.044-0.049-0.076c-0.023-0.032-0.042-0.055-0.056-0.069c-0.014-0.014-0.034-0.037-0.062-0.069
			c-0.028-0.032-0.046-0.053-0.056-0.062c-0.046-0.055-0.153-0.17-0.32-0.344c-0.167-0.174-0.288-0.31-0.362-0.406
			c-0.074-0.096-0.179-0.23-0.313-0.4c-0.134-0.17-0.251-0.347-0.348-0.53c-0.097-0.184-0.192-0.386-0.285-0.606
			C24.929,20.668,25.833,19.858,26.492,18.897z"/>
	</g>
</g>
</svg>
