<?xml version="1.0" encoding="utf-8"?>
<!-- Generator: Adobe Illustrator 19.2.1, SVG Export Plug-In . SVG Version: 6.00 Build 0)  -->
<svg version="1.1" id="Layer_1" xmlns="http://www.w3.org/2000/svg" xmlns:xlink="http://www.w3.org/1999/xlink" x="0px" y="0px"
	 viewBox="0 0 300 300" style="enable-background:new 0 0 300 300;" xml:space="preserve">
<style type="text/css">
	.st0{fill:#FFFFFF;}
	.st1{fill:#8DD538;}
</style>
<circle class="st0" cx="150" cy="150" r="150"/>
<g>
	<g>
		<g>
			<g>
				<path class="st1" d="M127,198.1V88.9c0-5.2-4.2-12-9.4-14.6L89.5,60.8c-5.2-2.6-9.4,0-9.4,5.7v152.4c0,5.7,4.2,12.5,9.4,15.1
					l28.6,14.6c5.2,2.6,13,2.1,17.7-1l95.2-63.5c4.7-3.1,8.8-10.4,8.8-16.1v-34.9c0-5.7-4.2-12-9.9-14.6l-67.1-27.6
					c-5.2-2.1-9.4,0.5-9.4,6.2v29.1c0,5.7,4.2,12,9.4,14.6l20.8,8.3c5.2,2.1,5.7,6.8,1,9.9L127,198.1"/>
			</g>
		</g>
	</g>
</g>
</svg>
