<?xml version="1.0" encoding="utf-8"?>
<!-- Generator: Adobe Illustrator 19.2.1, SVG Export Plug-In . SVG Version: 6.00 Build 0)  -->
<svg version="1.1" id="Layer_1" xmlns="http://www.w3.org/2000/svg" xmlns:xlink="http://www.w3.org/1999/xlink" x="0px" y="0px"
	 viewBox="0 0 300 425" style="enable-background:new 0 0 300 425;" xml:space="preserve">
<style type="text/css">
	.st0{fill:#FFFFFF;}
	.st1{fill:#FD4233;}
	.st2{fill:#FF402F;}
</style>
<rect x="-0.1" y="1.5" class="st0" width="300" height="425"/>
<g id="Pdf">
	<g>
		<g>
			<g>
				<path class="st1" d="M222.9,327H77c-10.1,0-18.2-8.2-18.2-18.2V119.1c0-10.1,8.2-18.2,18.2-18.2h74.2c4.9,0,9.5,1.9,12.9,5.3
					l71.7,71.7c3.4,3.4,5.3,8,5.3,12.9v118C241.1,318.9,232.9,327,222.9,327z M77,108.2c-6,0-10.9,4.9-10.9,10.9v189.7
					c0,6,4.9,10.9,10.9,10.9h145.9c6,0,10.9-4.9,10.9-10.9v-118c0-2.9-1.2-5.7-3.2-7.7l-71.7-71.7c-2.1-2.1-4.8-3.2-7.7-3.2H77z"/>
			</g>
		</g>
		<g>
			<g>
				<path class="st2" d="M206.9,243.7c-0.1-0.9-0.9-2.1-1.7-2.9c-2.3-2.3-7.3-3.4-15-3.6c-5.2-0.1-11.5,0.4-18.1,1.3
					c-3-1.7-6-3.6-8.4-5.8c-6.4-6-11.8-14.3-15.2-23.5c0.2-0.9,0.4-1.6,0.6-2.4c0,0,3.6-20.6,2.7-27.5c-0.1-0.9-0.2-1.2-0.5-2
					l-0.3-0.8c-1-2.3-2.9-4.7-5.9-4.6l-1.8-0.1h0c-3.4,0-6.1,1.7-6.9,4.3c-2.2,8.1,0.1,20.2,4.2,35.9l-1.1,2.6
					c-2.9,7.2-6.6,14.4-9.9,20.8l-0.4,0.8c-3.4,6.7-6.5,12.4-9.4,17.2l-2.9,1.5c-0.2,0.1-5.2,2.8-6.4,3.4
					c-9.9,5.9-16.5,12.6-17.6,18c-0.3,1.7-0.1,3.9,1.7,4.9l2.8,1.4c1.2,0.6,2.5,0.9,3.8,0.9c7.1,0,15.2-8.8,26.5-28.5
					c13-4.2,27.9-7.8,40.9-9.7c9.9,5.6,22.1,9.4,29.8,9.4c1.4,0,2.6-0.1,3.5-0.4c1.5-0.4,2.7-1.2,3.5-2.4
					C207,250,207.3,246.9,206.9,243.7z M99.8,278.4c1.3-3.5,6.4-10.5,13.9-16.7c0.5-0.4,1.6-1.5,2.7-2.5
					C108.5,271.8,103.2,276.8,99.8,278.4z M144.4,175.7c2.3,0,3.6,5.7,3.7,11.1s-1.1,9.1-2.7,11.9c-1.3-4.1-1.9-10.6-1.9-14.9
					C143.4,183.8,143.3,175.7,144.4,175.7z M131.1,248.9c1.6-2.8,3.2-5.8,4.9-9c4.1-7.8,6.7-13.8,8.6-18.8c3.8,7,8.6,12.9,14.2,17.6
					c0.7,0.6,1.5,1.2,2.2,1.8C149.6,242.8,139.7,245.5,131.1,248.9z M203,248.2c-0.7,0.4-2.7,0.7-4,0.7c-4.1,0-9.2-1.9-16.4-5
					c2.8-0.2,5.3-0.3,7.6-0.3c4.1,0,5.4,0,9.4,1C203.6,245.7,203.7,247.8,203,248.2z"/>
			</g>
		</g>
	</g>
</g>
</svg>
