<?xml version="1.0" encoding="utf-8"?>
<!-- Generator: Adobe Illustrator 17.0.0, SVG Export Plug-In . SVG Version: 6.00 Build 0)  -->
<!DOCTYPE svg PUBLIC "-//W3C//DTD SVG 1.1//EN" "http://www.w3.org/Graphics/SVG/1.1/DTD/svg11.dtd">
<svg version="1.1" id="Layer_1" xmlns="http://www.w3.org/2000/svg" xmlns:xlink="http://www.w3.org/1999/xlink" x="0px" y="0px"
	 width="30px" height="30px" viewBox="0 0 30 30" enable-background="new 0 0 30 30" xml:space="preserve">
<g>
	<g>
		<path fill="#010002" d="M14.935,10.726c-2.381,0-4.32,1.898-4.32,4.232s1.938,4.235,4.32,4.235c2.381,0,4.318-1.9,4.318-4.235
			C19.253,12.624,17.316,10.726,14.935,10.726z M14.935,18.343c-1.912,0-3.467-1.519-3.467-3.385c0-1.865,1.555-3.382,3.467-3.382
			c1.912,0,3.466,1.517,3.466,3.382C18.402,16.824,16.847,18.343,14.935,18.343z"/>
		<path fill="#010002" d="M24.176,11.935l-0.12-0.043l-0.468-1.115l0.051-0.115c1.415-3.208,1.318-3.304,1.082-3.537l-1.887-1.841
			c-0.077-0.076-0.212-0.13-0.329-0.13c-0.106,0-0.428,0-3.215,1.262l-0.112,0.05l-1.15-0.463L17.982,5.89
			c-1.31-3.245-1.445-3.245-1.771-3.245h-2.665c-0.325,0-0.473,0-1.688,3.251l-0.046,0.118l-1.144,0.466l-0.109-0.046
			C8.673,5.64,7.571,5.237,7.284,5.237c-0.117,0-0.252,0.052-0.33,0.129L5.066,7.211c-0.24,0.236-0.339,0.335,1.15,3.477
			l0.055,0.117l-0.468,1.113l-0.115,0.044c-3.322,1.284-3.322,1.409-3.322,1.744v2.61c0,0.335,0,0.474,3.328,1.667l0.119,0.042
			l0.468,1.111l-0.05,0.114c-1.415,3.21-1.325,3.296-1.084,3.536l1.884,1.844c0.079,0.076,0.216,0.13,0.332,0.13
			c0.105,0,0.427,0,3.215-1.261l0.112-0.053l1.151,0.465l0.045,0.115c1.312,3.244,1.446,3.244,1.773,3.244h2.666
			c0.335,0,0.473,0,1.689-3.254l0.046-0.118l1.146-0.464l0.109,0.045c1.885,0.798,2.986,1.2,3.271,1.2
			c0.116,0,0.253-0.05,0.331-0.129l1.892-1.85c0.238-0.238,0.337-0.335-1.154-3.474l-0.055-0.118l0.467-1.109l0.112-0.044
			c3.327-1.29,3.327-1.416,3.327-1.75v-2.609C27.503,13.262,27.503,13.124,24.176,11.935z M23.353,17.504l-0.612,1.454
			c-0.047,0.111-0.044,0.238,0.008,0.349c0.431,0.9,1,2.153,1.235,2.77l0.066,0.175l-1.583,1.549l-0.166-0.055
			c-0.627-0.212-1.955-0.751-2.924-1.163c-0.1-0.042-0.224-0.045-0.33-0.001l-1.483,0.6c-0.111,0.045-0.198,0.135-0.24,0.246
			c-0.419,1.128-0.896,2.316-1.135,2.827l-0.077,0.166h-2.247l-0.079-0.157c-0.294-0.585-0.842-1.88-1.226-2.834
			c-0.041-0.106-0.127-0.193-0.235-0.238l-1.488-0.603c-0.1-0.041-0.235-0.036-0.337,0.009c-0.955,0.437-2.241,0.995-2.852,1.218
			l-0.17,0.063l-1.584-1.55l0.061-0.174c0.212-0.603,0.753-1.885,1.177-2.842c0.047-0.108,0.049-0.226,0.003-0.335l-0.611-1.451
			c-0.046-0.111-0.136-0.196-0.25-0.236c-0.968-0.346-2.285-0.841-2.888-1.112L3.219,16.1v-2.181l0.164-0.079
			c0.587-0.277,1.9-0.811,2.893-1.195c0.109-0.042,0.195-0.123,0.24-0.231l0.614-1.454c0.047-0.112,0.044-0.239-0.008-0.35
			C6.611,9.54,6.092,8.374,5.889,7.84L5.821,7.664l1.582-1.547l0.165,0.055c0.612,0.205,1.937,0.739,2.929,1.162
			c0.105,0.043,0.221,0.044,0.328,0.001l1.483-0.602c0.108-0.045,0.195-0.136,0.236-0.246c0.352-0.944,0.856-2.231,1.134-2.826
			l0.077-0.166h2.247l0.08,0.159c0.291,0.583,0.838,1.88,1.223,2.837c0.043,0.106,0.13,0.193,0.235,0.235l1.485,0.6
			c0.103,0.043,0.239,0.039,0.334-0.005c0.962-0.439,2.254-0.999,2.858-1.219l0.171-0.06l1.584,1.544l-0.061,0.174
			c-0.216,0.609-0.755,1.891-1.177,2.842c-0.048,0.108-0.048,0.229-0.002,0.341l0.611,1.454c0.046,0.11,0.136,0.196,0.25,0.237
			c1.166,0.413,2.352,0.867,2.886,1.106l0.171,0.077v2.177l-0.163,0.08c-0.601,0.287-1.924,0.821-2.899,1.199
			C23.486,17.312,23.396,17.399,23.353,17.504z"/>
	</g>
</g>
</svg>
