<?xml version="1.0" encoding="utf-8"?>
<!-- Generator: Adobe Illustrator 17.0.0, SVG Export Plug-In . SVG Version: 6.00 Build 0)  -->
<!DOCTYPE svg PUBLIC "-//W3C//DTD SVG 1.1//EN" "http://www.w3.org/Graphics/SVG/1.1/DTD/svg11.dtd">
<svg version="1.1" id="Layer_1" xmlns="http://www.w3.org/2000/svg" xmlns:xlink="http://www.w3.org/1999/xlink" x="0px" y="0px"
	 width="30px" height="30px" viewBox="0 0 30 30" enable-background="new 0 0 30 30" xml:space="preserve">
<g>
	<g id="twitter">
		<g>
			<path d="M27.069,7.07c-0.2-0.135-0.463-0.131-0.656,0.013c-0.134,0.099-0.333,0.187-0.565,0.263
				c0.765-0.941,0.777-1.57,0.765-1.724c-0.015-0.201-0.139-0.38-0.323-0.465c-0.185-0.086-0.402-0.067-0.567,0.051
				c-1.043,0.74-2.087,0.901-2.696,0.922c-0.991-0.913-2.273-1.413-3.635-1.413c-2.948,0-5.346,2.376-5.346,5.298
				c0,0.211,0.012,0.423,0.038,0.632C9.164,10.526,5.174,5.93,5.134,5.883C5.016,5.744,4.839,5.671,4.655,5.687
				C4.473,5.704,4.31,5.806,4.217,5.963C2.965,8.084,3.476,10.094,4.335,11.5c-0.16-0.085-0.352-0.091-0.518-0.008
				c-0.188,0.093-0.31,0.282-0.313,0.491c-0.037,2.229,0.99,3.565,2.026,4.343c-0.076,0.031-0.145,0.078-0.202,0.14
				c-0.135,0.146-0.182,0.353-0.122,0.542c0.72,2.302,2.412,3.165,3.599,3.489c-1.361,0.951-3.045,1.174-4.325,1.174
				c-0.817,0-1.38-0.096-1.386-0.097c-0.255-0.045-0.511,0.091-0.615,0.328c-0.104,0.237-0.03,0.514,0.178,0.669
				c2.567,1.913,5.668,2.315,7.817,2.315c1.698,0,2.879-0.246,2.938-0.259c11.031-2.553,11.45-12.358,11.433-14.145
				c2.068-1.883,2.397-2.618,2.449-2.802C27.358,7.451,27.268,7.206,27.069,7.07z M23.895,9.829
				c-0.128,0.115-0.196,0.282-0.184,0.453c0.007,0.106,0.61,10.673-10.546,13.255c-0.011,0.002-1.122,0.232-2.693,0.232
				c-1.464,0-3.401-0.198-5.251-1.003c1.693-0.107,3.769-0.622,5.262-2.259c0.149-0.164,0.186-0.4,0.095-0.602
				c-0.091-0.202-0.294-0.332-0.517-0.332c-0.105,0-2.324-0.026-3.435-2.072c0.514,0.016,0.981-0.059,1.326-0.215
				c0.222-0.1,0.352-0.329,0.326-0.569c-0.026-0.24-0.205-0.436-0.443-0.487c-0.12-0.026-2.675-0.603-3.136-3.274
				c0.4,0.152,0.888,0.257,1.359,0.188c0.219-0.032,0.399-0.188,0.46-0.399c0.061-0.211-0.008-0.438-0.177-0.58
				C6.23,12.07,3.793,9.971,4.852,7.224c1.419,1.428,5.281,4.79,9.939,4.53c0.168-0.01,0.324-0.093,0.423-0.228
				c0.099-0.135,0.133-0.307,0.091-0.469c-0.087-0.338-0.131-0.689-0.131-1.041c0-2.305,1.892-4.18,4.218-4.18
				c1.14,0,2.207,0.443,3.007,1.249c0.104,0.104,0.245,0.164,0.392,0.167l0.087,0.001c0.414,0,1.064-0.05,1.809-0.288
				c-0.239,0.25-0.549,0.532-0.951,0.84c-0.197,0.152-0.271,0.413-0.181,0.643c0.09,0.231,0.324,0.376,0.57,0.356
				c0.091-0.007,0.493-0.042,0.99-0.13C24.801,8.991,24.403,9.372,23.895,9.829z"/>
		</g>
	</g>
</g>
</svg>
