<?xml version="1.0" encoding="utf-8"?>
<!-- Generator: Adobe Illustrator 17.0.0, SVG Export Plug-In . SVG Version: 6.00 Build 0)  -->
<!DOCTYPE svg PUBLIC "-//W3C//DTD SVG 1.1//EN" "http://www.w3.org/Graphics/SVG/1.1/DTD/svg11.dtd">
<svg version="1.1" id="Layer_1" xmlns="http://www.w3.org/2000/svg" xmlns:xlink="http://www.w3.org/1999/xlink" x="0px" y="0px"
	 width="30px" height="30px" viewBox="0 0 30 30" enable-background="new 0 0 30 30" xml:space="preserve">
<g>
	<path d="M26.033,6.808H3.845c-0.147,0-0.267,0.119-0.267,0.267v13.52c0,0.147,0.119,0.267,0.267,0.267h22.188
		c0.147,0,0.267-0.119,0.267-0.267V7.075C26.3,6.928,26.18,6.808,26.033,6.808z M25.766,20.329H4.112V7.342h21.655V20.329z"/>
	<path d="M26.329,5.608H3.549c-0.645,0-1.171,0.525-1.171,1.17v14.113c0,0.645,0.525,1.17,1.171,1.17h7.912l-0.422,1.022H9.345
		c-0.221,0-0.4,0.179-0.4,0.4s0.179,0.4,0.4,0.4h11.189c0.221,0,0.4-0.179,0.4-0.4s-0.179-0.4-0.4-0.4h-1.695l-0.422-1.022h7.912
		c0.645,0,1.17-0.525,1.17-1.17V6.779C27.5,6.133,26.975,5.608,26.329,5.608L26.329,5.608z M17.974,23.084h-6.069l0.422-1.022h5.225
		L17.974,23.084z M26.7,20.892c0,0.204-0.166,0.37-0.37,0.37H3.549c-0.204,0-0.37-0.166-0.37-0.37V6.779
		c0-0.204,0.166-0.37,0.37-0.37h22.78c0.204,0,0.37,0.166,0.37,0.37V20.892z"/>
</g>
</svg>
