<?xml version="1.0" encoding="utf-8"?>
<!-- Generator: Adobe Illustrator 20.1.0, SVG Export Plug-In . SVG Version: 6.00 Build 0)  -->
<svg version="1.1" id="Layer_1" xmlns="http://www.w3.org/2000/svg" xmlns:xlink="http://www.w3.org/1999/xlink" x="0px" y="0px"
	 viewBox="0 0 30 30" style="enable-background:new 0 0 30 30;" xml:space="preserve">
<style type="text/css">
	.st0{display:none;}
	.st1{display:inline;}
	.st2{fill:#1D1D1B;}
	.st3{fill:none;stroke:#000000;stroke-width:0.5;stroke-miterlimit:10;}
</style>
<g class="st0">
	<g class="st1">
		<path class="st2" d="M6.7,2.5H3.5c-0.6,0-1,0.5-1,1.1v3.2c0,0.6,0.5,1.1,1,1.1h3.2c0.6,0,1-0.5,1-1.1V3.5C7.7,3,7.3,2.5,6.7,2.5z
			 M7.1,6.7c0,0.2-0.2,0.4-0.4,0.4H3.5c-0.2,0-0.4-0.2-0.4-0.4V3.5c0-0.2,0.2-0.4,0.4-0.4h3.2c0.2,0,0.4,0.2,0.4,0.4V6.7z"/>
	</g>
	<g class="st1">
		<path class="st2" d="M22.9,2.5h-3.2c-0.6,0-1,0.5-1,1.1v3.2c0,0.6,0.5,1.1,1,1.1h3.2c0.6,0,1-0.5,1-1.1V3.5
			C23.9,3,23.5,2.5,22.9,2.5z M23.2,6.7c0,0.2-0.2,0.4-0.4,0.4h-3.2c-0.2,0-0.4-0.2-0.4-0.4V3.5c0-0.2,0.2-0.4,0.4-0.4h3.2
			c0.2,0,0.4,0.2,0.4,0.4V6.7z"/>
	</g>
	<g class="st1">
		<path class="st2" d="M6.7,18.3H3.5c-0.6,0-1,0.5-1,1.1v3.2c0,0.6,0.5,1.1,1,1.1h3.2c0.6,0,1-0.5,1-1.1v-3.2
			C7.7,18.8,7.3,18.3,6.7,18.3z M7.1,22.5c0,0.2-0.2,0.4-0.4,0.4H3.5c-0.2,0-0.4-0.2-0.4-0.4v-3.2c0-0.2,0.2-0.4,0.4-0.4h3.2
			c0.2,0,0.4,0.2,0.4,0.4V22.5z"/>
	</g>
	<g class="st1">
		<path class="st2" d="M22.9,18.3h-3.2c-0.6,0-1,0.5-1,1.1v3.2c0,0.6,0.5,1.1,1,1.1h3.2c0.6,0,1-0.5,1-1.1v-3.2
			C23.9,18.8,23.5,18.3,22.9,18.3z M23.2,22.5c0,0.2-0.2,0.4-0.4,0.4h-3.2c-0.2,0-0.4-0.2-0.4-0.4v-3.2c0-0.2,0.2-0.4,0.4-0.4h3.2
			c0.2,0,0.4,0.2,0.4,0.4V22.5z"/>
	</g>
	<g class="st1">
		<path d="M11.2,10.3H2.7c-0.1,0-0.2-0.1-0.2-0.2c0-0.1,0.1-0.2,0.2-0.2h8.5c0.1,0,0.2,0.1,0.2,0.2S11.3,10.3,11.2,10.3z"/>
	</g>
	<g class="st1">
		<path d="M7.9,11.9H2.6c-0.1,0-0.1-0.1-0.1-0.2c0-0.1,0.1-0.2,0.1-0.2h5.3C8,11.5,8,11.6,8,11.7C8,11.8,8,11.9,7.9,11.9z"/>
	</g>
	<g class="st1">
		<path d="M27.4,10.3h-8.5c-0.1,0-0.2-0.1-0.2-0.2c0-0.1,0.1-0.2,0.2-0.2h8.5c0.1,0,0.2,0.1,0.2,0.2S27.5,10.3,27.4,10.3z"/>
	</g>
	<g class="st1">
		<path d="M24.1,11.9h-5.3c-0.1,0-0.1-0.1-0.1-0.2c0-0.1,0.1-0.2,0.1-0.2h5.3c0.1,0,0.1,0.1,0.1,0.2C24.2,11.8,24.1,11.9,24.1,11.9z
			"/>
	</g>
	<g class="st1">
		<path d="M27.4,26h-8.5c-0.1,0-0.2-0.1-0.2-0.2s0.1-0.2,0.2-0.2h8.5c0.1,0,0.2,0.1,0.2,0.2S27.5,26,27.4,26z"/>
	</g>
	<g class="st1">
		<path d="M24.1,27.6h-5.3c-0.1,0-0.1-0.1-0.1-0.2s0.1-0.2,0.1-0.2h5.3c0.1,0,0.1,0.1,0.1,0.2C24.2,27.5,24.1,27.6,24.1,27.6z"/>
	</g>
	<g class="st1">
		<path d="M11.2,26H2.7c-0.1,0-0.2-0.1-0.2-0.2s0.1-0.2,0.2-0.2h8.5c0.1,0,0.2,0.1,0.2,0.2S11.3,26,11.2,26z"/>
	</g>
	<g class="st1">
		<path d="M7.9,27.6H2.6c-0.1,0-0.1-0.1-0.1-0.2s0.1-0.2,0.1-0.2h5.3C8,27.2,8,27.3,8,27.4S8,27.6,7.9,27.6z"/>
	</g>
</g>
<g>
	<path d="M24.4,13.6H5.6c-0.2,0-0.4-0.2-0.4-0.4s0.2-0.4,0.4-0.4h18.8c0.2,0,0.4,0.2,0.4,0.4S24.6,13.6,24.4,13.6z"/>
</g>
<g>
	<path d="M18.8,17.2H5.5c-0.2,0-0.3-0.2-0.3-0.4c0-0.2,0.1-0.4,0.3-0.4h13.3c0.2,0,0.3,0.2,0.3,0.4C19.1,17.1,18.9,17.2,18.8,17.2z"
		/>
</g>
<g>
	<path d="M14.4,20.9h-9c-0.1,0-0.2-0.2-0.2-0.4c0-0.2,0.1-0.4,0.2-0.4h9c0.1,0,0.2,0.2,0.2,0.4C14.6,20.7,14.5,20.9,14.4,20.9z"/>
</g>
<rect x="2.7" y="8.1" class="st3" width="24.6" height="17.3"/>
<rect x="2.7" y="4.7" class="st3" width="6.6" height="3.4"/>
<rect x="9.3" y="4.7" class="st3" width="6.6" height="3.4"/>
<rect x="15.9" y="4.7" class="st3" width="6.6" height="3.4"/>
<g>
	<path d="M20.6,21.9h3.8l-0.9,0.9c-0.1,0.1-0.1,0.2,0,0.3c0.1,0.1,0.2,0.1,0.3,0l1.3-1.3c0.1-0.1,0.1-0.2,0-0.3l-1.3-1.3l-0.1-0.1
		c-0.1,0-0.1,0-0.1,0.1c-0.1,0.1-0.1,0.2,0,0.3l0.9,0.9h-3.8c-0.1,0-0.2,0.1-0.2,0.2C20.4,21.8,20.5,21.9,20.6,21.9z"/>
</g>
</svg>
