<?xml version="1.0" encoding="utf-8"?>
<!-- Generator: Adobe Illustrator 18.0.0, SVG Export Plug-In . SVG Version: 6.00 Build 0)  -->
<!DOCTYPE svg PUBLIC "-//W3C//DTD SVG 1.1//EN" "http://www.w3.org/Graphics/SVG/1.1/DTD/svg11.dtd">
<svg version="1.1" id="Layer_1" xmlns="http://www.w3.org/2000/svg" xmlns:xlink="http://www.w3.org/1999/xlink" x="0px" y="0px"
	 width="30px" height="30px" viewBox="0 0 30 30" enable-background="new 0 0 30 30" xml:space="preserve">
<path fill="#262626" d="M27.4,2.5c-0.1-0.1-0.3-0.1-0.5-0.1l-7.5,1.5c-0.2,0-0.3,0.1-0.3,0.3l-7.3,7.3H7.5c-0.3,0-0.4,0.1-0.5,0.2
	l-4.5,6c-0.1,0.1-0.1,0.4,0,0.6c0.1,0.3,0.4,0.3,0.6,0.3c3-0.6,5-0.9,6.3-0.8l-6.8,8.9c-0.1,0.1-0.2,0.3-0.2,0.4
	c0,0.1,0.1,0.3,0.2,0.4c0.1,0.1,0.3,0.1,0.4,0.1h0.2l9.3-7.2c0.2,1.5-0.2,3.8-1.1,6.4l0,0c0,0.2,0,0.5,0.3,0.6
	c0.2,0.1,0.5,0.1,0.7,0l6-4.5c0.1-0.1,0.2-0.2,0.2-0.5v-4.2l7.4-7.4c0,0,0.1-0.1,0.1-0.3l1.4-7.6C27.6,2.9,27.5,2.6,27.4,2.5z
	 M13.4,19.1c0-0.2-0.3-0.4-0.4-0.4h-0.1c-0.1,0-0.2,0.1-0.3,0.1c-0.1,0-0.1,0.1-0.2,0.1l-6.1,4.7l4.6-6c0.1-0.2,0.1-0.4,0.1-0.6
	c0-0.2-0.2-0.4-0.4-0.4c0,0,0,0,0,0c-1.3-0.3-3.4-0.2-6.2,0.3l3.4-4.5h4.1c0.1,0,0.3,0,0.4-0.1L19.7,5l6.5-1.3l-1.3,6.5l-7.4,7.4
	l0,0v0.1c0,0,0,0.1,0,0.1c0,0.1-0.1,0.1-0.1,0.2v4.2l-4.3,3.1C13.9,22.6,14,20.6,13.4,19.1z"/>
</svg>
