<?xml version="1.0" encoding="utf-8"?>
<!-- Generator: Adobe Illustrator 20.1.0, SVG Export Plug-In . SVG Version: 6.00 Build 0)  -->
<svg version="1.1" id="Layer_1" xmlns="http://www.w3.org/2000/svg" xmlns:xlink="http://www.w3.org/1999/xlink" x="0px" y="0px"
	 viewBox="0 0 30 30" style="enable-background:new 0 0 30 30;" xml:space="preserve">
<style type="text/css">
	.st0{fill:none;stroke:#000000;stroke-width:0.5;stroke-miterlimit:10;}
	.st1{fill:#FFFFFF;}
	.st2{fill:none;stroke:#000000;stroke-width:0.25;stroke-miterlimit:10;}
</style>
<rect x="18.7" y="5.5" class="st0" width="11" height="18.9"/>
<rect x="0.3" y="5.5" class="st0" width="11.1" height="18.9"/>
<rect x="9.8" y="4.1" class="st0" width="11.4" height="21.7"/>
<rect x="10.1" y="4.4" class="st1" width="10.9" height="21.3"/>
<g>
	<path d="M25.2,14.8h-2.6c-0.1,0-0.1,0-0.1-0.1c0-0.1,0-0.1,0.1-0.1h2.6C25.3,14.6,25.3,14.6,25.2,14.8
		C25.3,14.7,25.3,14.8,25.2,14.8z"/>
	<path d="M27.8,13.1h-5.2c-0.1,0-0.1,0-0.1-0.1s0-0.1,0.1-0.1h5.2C27.8,12.8,27.9,12.9,27.8,13.1C27.9,13.1,27.8,13.1,27.8,13.1z"/>
	<path d="M27.8,11.4h-5.2c-0.1,0-0.1,0-0.1-0.1s0-0.1,0.1-0.1h5.2C27.8,11.1,27.9,11.1,27.8,11.4C27.9,11.4,27.8,11.4,27.8,11.4z"/>
	<path d="M27.8,9.7h-5.2c-0.1,0-0.1,0-0.1-0.1c0-0.1,0-0.1,0.1-0.1h5.2C27.8,9.5,27.9,9.5,27.8,9.7C27.9,9.6,27.8,9.7,27.8,9.7z"/>
</g>
<g>
	<path d="M15.2,14.8h-2.6c-0.1,0-0.1,0-0.1-0.1c0-0.1,0-0.1,0.1-0.1h2.6C15.2,14.6,15.4,14.6,15.2,14.8
		C15.4,14.7,15.2,14.8,15.2,14.8z"/>
	<path d="M17.8,13.1h-5.2c-0.1,0-0.1,0-0.1-0.1s0-0.1,0.1-0.1h5.2C17.9,12.8,17.9,12.9,17.8,13.1C17.9,13.1,17.9,13.1,17.8,13.1z"/>
	<path d="M17.8,11.4h-5.2c-0.1,0-0.1,0-0.1-0.1s0-0.1,0.1-0.1h5.2C17.9,11.1,17.9,11.1,17.8,11.4C17.9,11.4,17.9,11.4,17.8,11.4z"/>
	<path d="M17.8,9.7h-5.2c-0.1,0-0.1,0-0.1-0.1c0-0.1,0-0.1,0.1-0.1h5.2C17.9,9.5,17.9,9.5,17.8,9.7C17.9,9.6,17.9,9.7,17.8,9.7z"/>
</g>
<g>
	<path d="M4.6,14.8H2.1c-0.1,0-0.1,0-0.1-0.1c0-0.1,0-0.1,0.1-0.1h2.6C4.7,14.6,4.7,14.6,4.6,14.8C4.7,14.7,4.7,14.8,4.6,14.8z"/>
	<path d="M7.2,13.1H2.1c-0.1,0-0.1,0-0.1-0.1s0-0.1,0.1-0.1h5.2C7.2,12.8,7.3,12.9,7.2,13.1C7.3,13.1,7.2,13.1,7.2,13.1z"/>
	<path d="M7.2,11.4H2.1c-0.1,0-0.1,0-0.1-0.1s0-0.1,0.1-0.1h5.2C7.2,11.1,7.3,11.1,7.2,11.4C7.3,11.4,7.2,11.4,7.2,11.4z"/>
	<path d="M7.2,9.7H2.1c-0.1,0-0.1,0-0.1-0.1c0-0.1,0-0.1,0.1-0.1h5.2C7.2,9.5,7.3,9.5,7.2,9.7C7.3,9.6,7.2,9.7,7.2,9.7z"/>
</g>
<rect x="2.1" y="19.2" class="st2" width="5.3" height="1.8"/>
<rect x="12.6" y="19.2" class="st2" width="5.3" height="1.8"/>
<rect x="22.7" y="19.2" class="st2" width="5.3" height="1.8"/>
</svg>
