<?xml version="1.0" encoding="utf-8"?>
<!-- Generator: Adobe Illustrator 17.0.0, SVG Export Plug-In . SVG Version: 6.00 Build 0)  -->
<!DOCTYPE svg PUBLIC "-//W3C//DTD SVG 1.1//EN" "http://www.w3.org/Graphics/SVG/1.1/DTD/svg11.dtd">
<svg version="1.1" id="Layer_1" xmlns="http://www.w3.org/2000/svg" xmlns:xlink="http://www.w3.org/1999/xlink" x="0px" y="0px"
	 width="30px" height="30px" viewBox="0 0 30 30" enable-background="new 0 0 30 30" xml:space="preserve">
<g>
	<g>
		<rect x="6.142" y="7.121" width="5.594" height="1.03"/>
		<rect x="6.142" y="10.156" width="5.594" height="1.03"/>
		<rect x="6.142" y="13.146" width="13.161" height="1.03"/>
		<rect x="6.142" y="16.131" width="13.161" height="1.03"/>
		<path d="M26.921,14.686c-0.835-0.807-2.188-0.807-3.023,0l-1.132,1.094V10.21c0-0.153-0.051-0.257-0.159-0.361l-7.034-6.797
			c-0.108-0.104-0.215-0.153-0.374-0.153H3.047c-0.318,0-0.533,0.208-0.533,0.515v23.174c0,0.307,0.215,0.515,0.533,0.515h19.186
			c0.318,0,0.533-0.208,0.533-0.564v-4.916l4.155-4.015C27.756,16.8,27.756,15.493,26.921,14.686z M15.732,4.646l5.22,5.045h-5.22
			C15.732,9.69,15.732,4.646,15.732,4.646z M21.7,26.072H3.58V3.928h11.086v6.282c0,0.307,0.215,0.515,0.533,0.515H21.7v6.084
			l-5.082,4.911l-0.451,3.357l3.473-0.436l2.065-1.995v3.426L21.7,26.072z M26.168,16.859l-7.008,6.773l-1.793,0.282l0.292-1.733
			l7.008-6.773c0.415-0.401,1.086-0.401,1.501,0C26.583,15.809,26.583,16.458,26.168,16.859z"/>
	</g>
</g>
</svg>
