<?xml version="1.0" encoding="utf-8"?>
<!-- Generator: Adobe Illustrator 17.0.0, SVG Export Plug-In . SVG Version: 6.00 Build 0)  -->
<!DOCTYPE svg PUBLIC "-//W3C//DTD SVG 1.1//EN" "http://www.w3.org/Graphics/SVG/1.1/DTD/svg11.dtd">
<svg version="1.1" id="Layer_1" xmlns="http://www.w3.org/2000/svg" xmlns:xlink="http://www.w3.org/1999/xlink" x="0px" y="0px"
	 width="800px" height="600px" viewBox="0 0 800 600" enable-background="new 0 0 800 600" xml:space="preserve">
<rect x="-12" y="-9" fill="#E6E7E8" width="824" height="618"/>
<path fill-rule="evenodd" clip-rule="evenodd" fill="#FBFFFF" d="M123.377,349.076l121.695,350.216l430.552-149.61L553.929,199.465
	L123.377,349.076z M639.353,532.092L262.62,663.001L159.647,366.665L536.38,235.756L639.353,532.092z M452.145,340.507
	c7.755,22.318,32.113,34.13,54.406,26.384c22.292-7.746,34.078-32.118,26.323-54.435c-7.755-22.318-32.114-34.13-54.406-26.384
	C456.175,293.818,444.39,318.19,452.145,340.507z M603.082,514.503L280.168,626.711l5.84-243.569l154.444,97.296l39.777-59.111
	L603.082,514.503z"/>
</svg>
