<?xml version="1.0" encoding="utf-8"?>
<!-- Generator: Adobe Illustrator 17.0.0, SVG Export Plug-In . SVG Version: 6.00 Build 0)  -->
<!DOCTYPE svg PUBLIC "-//W3C//DTD SVG 1.1//EN" "http://www.w3.org/Graphics/SVG/1.1/DTD/svg11.dtd">
<svg version="1.1" id="Layer_1" xmlns="http://www.w3.org/2000/svg" xmlns:xlink="http://www.w3.org/1999/xlink" x="0px" y="0px"
	 width="30px" height="30px" viewBox="0 0 30 30" enable-background="new 0 0 30 30" xml:space="preserve">
<g>
	<g>
		<path d="M9.365,10.03c0.336,0,0.609-0.272,0.609-0.607V3.136c0-0.335-0.273-0.607-0.609-0.607H3.062
			c-0.336,0-0.609,0.272-0.609,0.607v6.286c0,0.335,0.273,0.607,0.609,0.607H9.365z M3.671,3.744h5.085v5.071H3.671V3.744z"/>
		<rect x="4.935" y="5.004" width="2.558" height="2.551"/>
		<path d="M26.844,2.529h-6.303c-0.336,0-0.609,0.272-0.609,0.607v6.286c0,0.335,0.273,0.607,0.609,0.607h6.303
			c0.336,0,0.609-0.272,0.609-0.607V3.136C27.453,2.801,27.181,2.529,26.844,2.529z M26.235,8.815H21.15V3.744h5.085V8.815z"/>
		<rect x="22.414" y="5.004" width="2.558" height="2.551"/>
		<path d="M26.844,19.97h-6.303c-0.336,0-0.609,0.272-0.609,0.607v6.286c0,0.335,0.273,0.607,0.609,0.607h6.303
			c0.336,0,0.609-0.272,0.609-0.607v-6.286C27.453,20.242,27.181,19.97,26.844,19.97z M26.235,26.256H21.15v-5.071h5.085V26.256z"/>
		<rect x="22.414" y="22.445" width="2.558" height="2.551"/>
		<path d="M6.229,20.398v-2.73h3.319c0.084,0,0.152-0.068,0.152-0.152v-2.881c0-0.084-0.068-0.152-0.152-0.152H6.229v-2.73
			c0-0.084-0.068-0.152-0.152-0.152H2.605c-0.084,0-0.152,0.068-0.152,0.152v2.881c0,0.084,0.068,0.152,0.152,0.152h3.319v2.578
			H2.605c-0.084,0-0.152,0.068-0.152,0.152v2.881c0,0.084,0.068,0.152,0.152,0.152h3.472C6.161,20.55,6.229,20.481,6.229,20.398z"/>
		<path d="M11.511,13.349c-0.084,0-0.152,0.068-0.152,0.152v3.355c0,0.084,0.068,0.152,0.152,0.152h3.364
			c0.084,0,0.152-0.068,0.152-0.152v-3.355c0-0.084-0.068-0.152-0.152-0.152H11.511z"/>
		<path d="M13.886,9.291h4.106c0.084,0,0.152-0.068,0.152-0.152V5.045c0-0.084-0.068-0.152-0.152-0.152h-4.106
			c-0.084,0-0.152,0.068-0.152,0.152v4.095C13.734,9.223,13.802,9.291,13.886,9.291z"/>
		<path d="M17.718,11.346v3.076c0,0.084,0.068,0.152,0.152,0.152h3.084c0.084,0,0.152-0.068,0.152-0.152v-3.076
			c0-0.084-0.068-0.152-0.152-0.152H17.87C17.786,11.194,17.718,11.262,17.718,11.346z"/>
		<path d="M7.918,21.869H5.757c-0.084,0-0.152,0.068-0.152,0.152v2.004H2.605c-0.084,0-0.152,0.068-0.152,0.152v3.143
			c0,0.084,0.068,0.152,0.152,0.152h3.152c0.084,0,0.152-0.068,0.152-0.152v-2.991h2.009c0.084,0,0.152-0.068,0.152-0.152v-2.156
			C8.07,21.937,8.002,21.869,7.918,21.869z"/>
		<path d="M18.715,19.713h-2.161c-0.084,0-0.152,0.068-0.152,0.152v2.004h-1.857v-2.004c0-0.084-0.068-0.152-0.152-0.152h-2.161
			c-0.084,0-0.152,0.068-0.152,0.152v2.155c0,0.084,0.068,0.152,0.152,0.152h2.009v1.852h-2.999c-0.084,0-0.152,0.068-0.152,0.152
			v3.143c0,0.084,0.068,0.152,0.152,0.152h3.152c0.084,0,0.152-0.068,0.152-0.152v-2.991h2.009c0.084,0,0.152-0.068,0.152-0.152
			v-2.004h2.009c0.084,0,0.152-0.068,0.152-0.152v-2.155C18.867,19.781,18.799,19.713,18.715,19.713z"/>
		<path d="M12.952,11.578V9.423c0-0.084-0.068-0.152-0.152-0.152h-2.161c-0.084,0-0.152,0.068-0.152,0.152v2.155
			c0,0.084,0.068,0.152,0.152,0.152H12.8C12.884,11.73,12.952,11.662,12.952,11.578z"/>
		<path d="M13.824,4.836V2.681c0-0.084-0.068-0.152-0.152-0.152h-2.161c-0.084,0-0.152,0.068-0.152,0.152v2.155
			c0,0.084,0.068,0.152,0.152,0.152h2.161C13.756,4.988,13.824,4.92,13.824,4.836z"/>
		<path d="M27.301,13.709c0.084,0,0.152-0.068,0.152-0.152v-2.155c0-0.084-0.068-0.152-0.152-0.152H25.14
			c-0.084,0-0.152,0.068-0.152,0.152v2.004h-2.009c-0.084,0-0.152,0.068-0.152,0.152v2.155c0,0.084,0.068,0.152,0.152,0.152h2.009
			v2.004c0,0.084,0.068,0.152,0.152,0.152h2.161c0.084,0,0.152-0.068,0.152-0.152v-2.155c0-0.084-0.068-0.152-0.152-0.152h-2.009
			v-1.852H27.301L27.301,13.709z"/>
	</g>
</g>
</svg>
