<?xml version="1.0" encoding="utf-8"?>
<!-- Generator: Adobe Illustrator 19.2.1, SVG Export Plug-In . SVG Version: 6.00 Build 0)  -->
<svg version="1.1" id="Layer_1" xmlns="http://www.w3.org/2000/svg" xmlns:xlink="http://www.w3.org/1999/xlink" x="0px" y="0px"
	 viewBox="0 0 30 30" style="enable-background:new 0 0 30 30;" xml:space="preserve">
<path d="M22.5,12.9h-1.2V8.7c0-3.5-2.8-6.3-6.3-6.3S8.7,5.2,8.7,8.7v4.2H7.5c-0.2,0-0.4,0.2-0.4,0.4v13.8c0,0.2,0.2,0.4,0.4,0.4
	h14.9c0.2,0,0.4-0.2,0.4-0.4V13.3C22.9,13.1,22.7,12.9,22.5,12.9L22.5,12.9z M9.6,8.7c0-3,2.4-5.4,5.4-5.4s5.4,2.4,5.4,5.4v4.2h-1.4
	V8.7c0-2.2-1.8-3.9-3.9-3.9s-3.9,1.8-3.9,3.9v4.2H9.6V8.7z M18,12.9H12V8.7c0-1.7,1.4-3,3-3s3,1.4,3,3V12.9z M22,26.7h-3.6v-0.8
	l1.2-1.2c0.1,0,0.3,0.1,0.4,0.1c0.7,0,1.2-0.5,1.2-1.2s-0.5-1.2-1.2-1.2c-0.7,0-1.2,0.5-1.2,1.2c0,0.2,0,0.4,0.1,0.5l-1.3,1.3
	c-0.1,0.1-0.1,0.2-0.1,0.3v1h-1v-5.9l0.8-0.8c0.1,0.1,0.3,0.1,0.5,0.1c0.7,0,1.2-0.5,1.2-1.2s-0.5-1.2-1.2-1.2s-1.2,0.5-1.2,1.2
	c0,0.2,0,0.3,0.1,0.4l-1,1c-0.1,0.1-0.1,0.2-0.1,0.3v6.1h-1.1v-8.5c0-0.1,0-0.2-0.1-0.3L13.4,17c0.1-0.2,0.1-0.3,0.1-0.5
	c0-0.7-0.5-1.2-1.2-1.2s-1.2,0.5-1.2,1.2c0,0.7,0.5,1.2,1.2,1.2c0.1,0,0.3,0,0.4-0.1l0.8,0.8v8.3h-1v-3.4c0-0.1,0-0.2-0.1-0.3
	L11,21.7c0.1-0.2,0.1-0.3,0.1-0.5c0-0.7-0.5-1.2-1.2-1.2s-1.2,0.5-1.2,1.2s0.5,1.2,1.2,1.2c0.1,0,0.3,0,0.4-0.1l1.2,1.2v3.2H8V13.8
	h14L22,26.7L22,26.7z M19.7,23.6c0-0.2,0.1-0.3,0.3-0.3c0.2,0,0.3,0.1,0.3,0.3s-0.1,0.3-0.3,0.3C19.9,23.9,19.7,23.8,19.7,23.6z
	 M17.5,18.9c0-0.2,0.1-0.3,0.3-0.3s0.3,0.1,0.3,0.3c0,0.2-0.1,0.3-0.3,0.3S17.5,19,17.5,18.9z M12.3,16.7c-0.2,0-0.3-0.1-0.3-0.3
	s0.1-0.3,0.3-0.3c0.2,0,0.3,0.1,0.3,0.3S12.5,16.7,12.3,16.7z M10,21.5c-0.2,0-0.3-0.1-0.3-0.3c0-0.2,0.1-0.3,0.3-0.3
	c0.2,0,0.3,0.1,0.3,0.3C10.3,21.4,10.1,21.5,10,21.5z"/>
</svg>
