<?xml version="1.0" encoding="utf-8"?>
<!-- Generator: Adobe Illustrator 17.0.0, SVG Export Plug-In . SVG Version: 6.00 Build 0)  -->
<!DOCTYPE svg PUBLIC "-//W3C//DTD SVG 1.1//EN" "http://www.w3.org/Graphics/SVG/1.1/DTD/svg11.dtd">
<svg version="1.1" id="Layer_1" xmlns="http://www.w3.org/2000/svg" xmlns:xlink="http://www.w3.org/1999/xlink" x="0px" y="0px"
	 width="30px" height="30px" viewBox="0 0 30 30" enable-background="new 0 0 30 30" xml:space="preserve">
<g>
	<polygon points="24.616,23.382 24.616,6.619 26.408,8.41 27.513,7.305 23.835,3.627 20.157,7.305 21.262,8.41 23.053,6.619 
		23.053,23.382 21.262,21.59 20.157,22.695 23.835,26.373 27.513,22.695 26.408,21.59 	"/>
	<polygon points="2.487,11.484 4.05,11.484 4.05,8.619 9.65,8.619 9.65,21.381 6.785,21.381 6.785,22.944 14.078,22.944 
		14.078,21.381 11.213,21.381 11.213,8.619 16.812,8.619 16.812,11.484 18.375,11.484 18.375,7.056 2.487,7.056 	"/>
</g>
</svg>
