<?xml version="1.0" encoding="utf-8"?>
<!-- Generator: Adobe Illustrator 17.0.0, SVG Export Plug-In . SVG Version: 6.00 Build 0)  -->
<!DOCTYPE svg PUBLIC "-//W3C//DTD SVG 1.1//EN" "http://www.w3.org/Graphics/SVG/1.1/DTD/svg11.dtd">
<svg version="1.1" id="Layer_1" xmlns="http://www.w3.org/2000/svg" xmlns:xlink="http://www.w3.org/1999/xlink" x="0px" y="0px"
	 width="30px" height="30px" viewBox="0 0 30 30" enable-background="new 0 0 30 30" xml:space="preserve">
<g>
	<g id="youtube">
		<g>
			<path d="M22.445,5.678H7.327c-2.778,0-5.039,2.261-5.039,5.039v8.399c0,2.778,2.261,5.039,5.039,5.039h15.118
				c2.778,0,5.039-2.261,5.039-5.039v-8.399C27.485,7.939,25.224,5.678,22.445,5.678z M26.365,19.116
				c0,2.161-1.758,3.919-3.92,3.919H7.327c-2.161,0-3.92-1.758-3.92-3.919v-8.399c0-2.161,1.758-3.92,3.92-3.92h15.118
				c2.161,0,3.92,1.758,3.92,3.92V19.116z M11.247,19.654l8.206-4.737l-8.206-4.738V19.654z M12.367,12.119l4.846,2.799
				l-4.846,2.797V12.119z"/>
		</g>
	</g>
</g>
</svg>
