<?xml version="1.0" encoding="utf-8"?>
<!-- Generator: Adobe Illustrator 17.0.0, SVG Export Plug-In . SVG Version: 6.00 Build 0)  -->
<!DOCTYPE svg PUBLIC "-//W3C//DTD SVG 1.1//EN" "http://www.w3.org/Graphics/SVG/1.1/DTD/svg11.dtd">
<svg version="1.1" id="Layer_1" xmlns="http://www.w3.org/2000/svg" xmlns:xlink="http://www.w3.org/1999/xlink" x="0px" y="0px"
	 width="30px" height="30px" viewBox="0 0 30 30" enable-background="new 0 0 30 30" xml:space="preserve">
<path d="M22.333,18.116c-1.665,0-3.132,0.867-3.972,2.174l-6.609-3.473c0.237-0.562,0.368-1.18,0.368-1.828
	c0-0.648-0.131-1.265-0.368-1.828l6.609-3.473c0.84,1.306,2.306,2.174,3.972,2.174c2.602,0,4.718-2.117,4.718-4.718
	c0-2.602-2.117-4.718-4.718-4.718c-2.602,0-4.718,2.117-4.718,4.718c0,0.648,0.131,1.265,0.368,1.828l-6.609,3.473
	c-0.84-1.306-2.306-2.174-3.972-2.174c-2.602,0-4.718,2.117-4.718,4.718s2.117,4.718,4.718,4.718c1.665,0,3.132-0.867,3.972-2.174
	l6.609,3.473c-0.237,0.562-0.368,1.18-0.368,1.828c0,2.602,2.117,4.718,4.718,4.718c2.602,0,4.718-2.117,4.718-4.718
	C27.051,20.233,24.935,18.116,22.333,18.116z M22.333,3.237c2.155,0,3.908,1.753,3.908,3.908c0,2.155-1.753,3.908-3.908,3.908
	S18.425,9.3,18.425,7.145C18.425,4.99,20.178,3.237,22.333,3.237z M7.403,18.897c-2.155,0-3.908-1.753-3.908-3.908
	s1.753-3.908,3.908-3.908s3.908,1.753,3.908,3.908S9.557,18.897,7.403,18.897z M22.333,26.742c-2.155,0-3.908-1.753-3.908-3.908
	c0-2.155,1.753-3.908,3.908-3.908s3.908,1.753,3.908,3.908C26.241,24.989,24.488,26.742,22.333,26.742z"/>
</svg>
