<?xml version="1.0" encoding="utf-8"?>
<!-- Generator: Adobe Illustrator 17.0.0, SVG Export Plug-In . SVG Version: 6.00 Build 0)  -->
<!DOCTYPE svg PUBLIC "-//W3C//DTD SVG 1.1//EN" "http://www.w3.org/Graphics/SVG/1.1/DTD/svg11.dtd">
<svg version="1.1" id="Layer_1" xmlns="http://www.w3.org/2000/svg" xmlns:xlink="http://www.w3.org/1999/xlink" x="0px" y="0px"
	 width="30px" height="30px" viewBox="0 0 30 30" enable-background="new 0 0 30 30" xml:space="preserve">
<g>
	<path fill="#010002" d="M26.212,16.352l-0.036-0.043c-0.174-0.215-0.554-0.52-1.108-0.731l-0.085-0.026
		c-0.577-0.266-1.1-0.445-1.253-0.495c-0.12-0.04-0.221-0.083-0.302-0.118c-0.637-0.314-0.709-0.498-0.719-0.526l-0.029-0.068
		l0.024-0.061c0.473-0.589,0.806-1.276,0.932-1.923l0.019-0.044c0.131-0.167,0.214-0.361,0.247-0.576
		c0.151-0.544,0.157-0.944,0.022-1.225l-0.012-0.025l0.006-0.028c0.168-0.703,0.33-2.021-0.478-2.94
		c-0.129-0.162-0.624-0.708-1.584-0.99l-0.468-0.16c-0.767-0.236-1.253-0.293-1.333-0.295c-0.051,0-0.097,0.006-0.164,0.021
		l-0.058,0.012c-0.034-0.005-0.069-0.008-0.108-0.008c-0.257,0-0.534,0.113-0.534,0.113c-0.271,0.114-1.645,0.748-2.081,2.095
		c-0.072,0.191-0.22,0.774-0.029,2.047l0.005,0.032l-0.02,0.027c-0.196,0.264-0.212,0.692-0.049,1.267
		c0.043,0.255,0.126,0.458,0.248,0.611l0.02,0.043c0.12,0.667,0.417,1.324,0.857,1.902l0.035,0.047l-0.033,0.047
		c-0.019,0.028-0.032,0.058-0.037,0.079c-0.068,0.193-0.584,0.498-1.385,0.819c-0.179-0.065-0.303-0.106-0.348-0.12
		c-0.162-0.054-0.298-0.112-0.407-0.16c-0.847-0.418-0.959-0.662-0.976-0.718l-0.044-0.099l0.039-0.092
		c0.636-0.792,1.082-1.715,1.253-2.588l0.026-0.06c0.176-0.223,0.288-0.485,0.331-0.77c0.202-0.728,0.213-1.264,0.031-1.638
		l-0.02-0.04l0.011-0.043c0.226-0.945,0.443-2.712-0.641-3.943c-0.172-0.216-0.832-0.949-2.123-1.326l-0.63-0.216
		c-1.052-0.323-1.706-0.394-1.79-0.395c-0.069,0-0.129,0.008-0.217,0.028l-0.084,0.014c-0.349-0.056-0.778,0.109-0.856,0.14
		C9.912,3.358,8.069,4.21,7.485,6.016C7.387,6.272,7.19,7.053,7.447,8.762l0.008,0.052L7.422,8.856
		c-0.261,0.349-0.281,0.92-0.062,1.691c0.056,0.339,0.167,0.61,0.332,0.818l0.029,0.061c0.16,0.895,0.558,1.779,1.15,2.557
		l0.055,0.072l-0.053,0.076c-0.026,0.038-0.043,0.076-0.047,0.101c-0.147,0.419-1.787,1.152-3.224,1.59
		c-1.034,0.392-1.489,1.027-1.491,1.031c-1.425,2.115-1.605,6.656-1.611,6.851c0.022,1.181,0.559,1.421,0.662,1.456l0.091,0.04
		c3.152,1.375,7.755,1.643,8.27,1.669l0.161,0.005c0.154,0,0.31-0.008,0.456-0.016l0.013,0l0.048,0.004
		c0.038,0.009,0.069,0.014,0.101,0.014h0l0.022-0.001c0.208-0.011,5.151-0.292,8.235-1.676c0.168-0.044,0.712-0.278,0.761-1.426
		c1.1-0.095,3.731-0.398,5.517-1.199c0.132-0.035,0.566-0.219,0.58-1.151C27.397,21.063,27.225,17.858,26.212,16.352z M9.341,14.705
		l0.086-0.08l0.085,0.08c0.754,0.711,1.59,1.102,2.351,1.102c0.799,0,1.624-0.347,2.386-1.003l0.064-0.054l0.167,0.082
		c0.142,0.129,0.397,0.315,0.511,0.371l0.157,0.077l-0.017,0.016l0.06,0.036c0.144,0.085,0.297,0.168,0.472,0.255
		c0.177,0.079,0.329,0.138,0.491,0.191c0.032,0.011,0.784,0.254,1.642,0.651l0.153,0.048c0.815,0.311,1.16,0.748,1.173,0.763
		c1.266,1.879,1.478,5.979,1.499,6.437c-0.01,0.641-0.192,0.807-0.24,0.839c-2.836,1.269-7.121,1.6-7.95,1.653l-0.023,0.001
		l-0.024-0.007c-0.028-0.008-0.056-0.012-0.092-0.012h-0.001l-0.029,0.001c-0.227,0.016-0.414,0.023-0.589,0.023h-0.137
		c-0.516-0.031-5.137-0.334-8.094-1.649c-0.06-0.025-0.234-0.227-0.247-0.816c0-0.044,0.152-4.47,1.481-6.443
		c0.065-0.082,0.426-0.503,1.148-0.778c0.634-0.195,2.204-0.715,3.062-1.337c0.036-0.022,0.072-0.058,0.11-0.097
		C9.06,14.986,9.191,14.845,9.341,14.705z M18.178,15.813l-0.117-0.034c-0.193-0.089-0.395-0.177-0.604-0.263
		c0.295-0.138,0.537-0.274,0.717-0.405c0.029-0.017,0.058-0.046,0.085-0.075c0.065-0.07,0.152-0.164,0.255-0.259l0.055-0.05
		l0.052,0.051c0.565,0.531,1.189,0.822,1.756,0.822c0.598,0,1.214-0.259,1.782-0.748l0.04-0.034l0.115,0.055
		c0.104,0.097,0.295,0.234,0.379,0.276l0.099,0.047l-0.012,0.012l0.062,0.036c0.108,0.064,0.223,0.126,0.353,0.19
		c0.133,0.059,0.246,0.103,0.365,0.143c0.023,0.008,0.578,0.186,1.22,0.483l0.113,0.035c0.584,0.223,0.838,0.53,0.863,0.562
		c0.944,1.4,1.097,4.434,1.11,4.772c-0.007,0.469-0.137,0.589-0.169,0.61c-1.776,0.795-4.327,1.094-5.4,1.188
		c-0.096-1.393-0.44-4.672-1.588-6.378l-0.048-0.058C19.427,16.504,18.918,16.096,18.178,15.813z M17.513,10.745l0.02-0.024
		c0.09-0.066,0.134-0.167,0.117-0.273c-0.213-1.281-0.075-1.819-0.027-1.954c0.372-1.141,1.542-1.673,1.772-1.767
		c0.046-0.018,0.136-0.044,0.23-0.06l0.028-0.007L19.83,6.65l0.001,0.012l0.053-0.005c0.04-0.003,0.078-0.009,0.104-0.015
		l0.06-0.013c0.038,0.001,0.5,0.061,1.17,0.266l0.472,0.162c0.858,0.253,1.255,0.726,1.328,0.822
		c0.689,0.782,0.504,1.959,0.332,2.591c-0.019,0.078-0.008,0.158,0.037,0.223l0.038,0.049c0.048,0.065,0.092,0.323-0.057,0.879
		c-0.028,0.169-0.091,0.304-0.18,0.395c-0.036,0.038-0.061,0.088-0.07,0.145c-0.232,1.365-1.455,2.892-2.743,2.892
		c-1.094,0-2.341-1.405-2.566-2.892c-0.009-0.056-0.033-0.106-0.073-0.151c-0.092-0.095-0.151-0.233-0.187-0.441
		C17.442,11.183,17.43,10.87,17.513,10.745z M7.994,9.273l0.03-0.034c0.116-0.083,0.171-0.214,0.15-0.349
		c-0.289-1.736-0.1-2.459-0.036-2.64c0.502-1.542,2.086-2.263,2.397-2.391c0.065-0.025,0.186-0.061,0.314-0.082l0.034-0.008
		l0.261-0.014l0.001,0.016l0.056-0.005c0.052-0.005,0.103-0.013,0.163-0.025l0.06-0.014c0.048,0,0.66,0.077,1.582,0.36l0.634,0.218
		c1.159,0.343,1.699,0.984,1.798,1.112c0.932,1.058,0.683,2.65,0.452,3.505c-0.027,0.099-0.011,0.201,0.046,0.285l0.052,0.066
		c0.085,0.114,0.117,0.495-0.073,1.2c-0.038,0.23-0.124,0.417-0.249,0.541c-0.046,0.049-0.075,0.113-0.088,0.185
		c-0.315,1.846-1.97,3.911-3.713,3.911c-1.481,0-3.169-1.9-3.474-3.909c-0.01-0.072-0.04-0.138-0.092-0.195
		c-0.127-0.131-0.207-0.32-0.257-0.601C7.893,9.876,7.878,9.45,7.994,9.273z"/>
</g>
</svg>
