<?xml version="1.0" encoding="utf-8"?>
<!-- Generator: Adobe Illustrator 20.1.0, SVG Export Plug-In . SVG Version: 6.00 Build 0)  -->
<svg version="1.1" id="Layer_1" xmlns="http://www.w3.org/2000/svg" xmlns:xlink="http://www.w3.org/1999/xlink" x="0px" y="0px"
	 viewBox="0 0 30 30" style="enable-background:new 0 0 30 30;" xml:space="preserve">
<style type="text/css">
	.st0{display:none;}
	.st1{display:inline;}
	.st2{display:none;fill:#FFFFFF;}
	.st3{display:inline;fill:none;stroke:#000000;stroke-width:0.5;stroke-miterlimit:10;}
	.st4{fill:none;stroke:#000000;stroke-width:0.5;stroke-miterlimit:10;}
</style>
<g class="st0">
	<g class="st1">
		<path d="M24.7,19.2V6.6H5.2v12.7h9.3v3.4h-3.2v0.9h7.3v-0.9h-3.2v-3.4L24.7,19.2L24.7,19.2z M6.2,18.3V7.5h17.5v10.9H6.2V18.3z"/>
	</g>
</g>
<rect x="5.7" y="7.1" class="st2" width="18.6" height="11.7"/>
<g class="st0">
	<path class="st1" d="M26.5,12.2v0.1l0.9,0.9l-0.9,0.9v0.1h0.1l1-1c0,0,0,0,0-0.1c0,0,0,0,0-0.1l-1-1C26.6,12.2,26.5,12.2,26.5,12.2
		z"/>
</g>
<g class="st0">
	<path class="st1" d="M19.8,10.1V10c0-0.4-0.3-0.8-0.8-0.8h-8c-0.4,0-0.8,0.3-0.8,0.8v5.9l0,0c0,0.4,0.3,0.8,0.8,0.8h8
		c0.4,0,0.8-0.3,0.8-0.8V10.1L19.8,10.1z M11.1,9.5h8c0.3,0,0.5,0.2,0.5,0.5v0.1c-0.7,0.7-1.8,1.8-2.7,2.7l-1.5-1.5
		c-0.2-0.2-0.5-0.2-0.6,0l-4.2,4.2V10C10.6,9.7,10.8,9.5,11.1,9.5z M19.1,16.3h-8c-0.2,0-0.4-0.2-0.5-0.4l4.4-4.4
		c0.1-0.1,0.2-0.1,0.2,0l1.5,1.5c-0.8,0.8-1.3,1.4-1.4,1.4c0,0.1,0,0.2,0,0.2h0.1c0,0,0.1,0,0.1-0.1c0.1-0.1,2.8-2.8,4.1-4.1v5.4
		C19.6,16.1,19.3,16.3,19.1,16.3z"/>
	<path class="st1" d="M12.3,11.8c0.4,0,0.8-0.3,0.8-0.8c0-0.4-0.3-0.8-0.8-0.8s-0.8,0.3-0.8,0.8S11.9,11.8,12.3,11.8z M12.3,10.6
		c0.3,0,0.5,0.2,0.5,0.5s-0.2,0.5-0.5,0.5s-0.5-0.2-0.5-0.5S12,10.6,12.3,10.6z"/>
</g>
<g class="st0">
	<path class="st1" d="M3.5,14.2v-0.1l-0.9-0.9l0.9-0.9v-0.1H3.4l-1,1c0,0,0,0,0,0.1c0,0,0,0,0,0.1l1,1C3.4,14.3,3.4,14.3,3.5,14.2z"
		/>
</g>
<g class="st0">
	<path class="st1" d="M15,9.4H2.9c-0.3,0-0.6-0.2-0.6-0.6s0.2-0.6,0.6-0.6H15c0.3,0,0.6,0.2,0.6,0.6S15.3,9.4,15,9.4z"/>
	<path class="st1" d="M27,3.4H2.9c-0.3,0-0.6-0.2-0.6-0.6s0.2-0.6,0.6-0.6H27c0.3,0,0.6,0.2,0.6,0.6S27.3,3.4,27,3.4z"/>
	<path class="st1" d="M15,27.7H2.9c-0.3,0-0.6-0.2-0.6-0.6s0.2-0.6,0.6-0.6H15c0.3,0,0.6,0.2,0.6,0.6S15.3,27.7,15,27.7z"/>
	<path class="st1" d="M27,21.7H2.9c-0.3,0-0.6-0.2-0.6-0.6c0-0.3,0.2-0.6,0.6-0.6H27c0.3,0,0.6,0.2,0.6,0.6S27.3,21.7,27,21.7z"/>
	<circle class="st3" cx="15" cy="15.1" r="2.8"/>
	<rect x="2.4" y="14.7" class="st1" width="10" height="0.6"/>
	<rect x="17.7" y="14.7" class="st1" width="9.9" height="0.7"/>
</g>
<g class="st0">
	<path class="st1" d="M16.8,14.3c-0.1-0.1-0.1-0.1-0.2,0L15,15.9l-1.6-1.6c-0.1-0.1-0.1-0.1-0.2,0c-0.1,0.1-0.1,0.1,0,0.2l1.7,1.7
		H15h0.1l1.7-1.7C16.9,14.4,16.9,14.3,16.8,14.3z"/>
</g>
<g>
	<path d="M13.9,5.6H0.2C0.1,5.6,0,5.7,0,5.8v10.7c0,0.1,0.1,0.2,0.2,0.2h13.6c0.1,0,0.2-0.1,0.2-0.2V5.8C14.1,5.7,14,5.6,13.9,5.6z
		 M13.6,16.3H0.5V6.1h13.1V16.3z"/>
	<path d="M3.9,11c0.7,0,1.4-0.6,1.4-1.4c0-0.7-0.6-1.4-1.4-1.4S2.5,8.8,2.5,9.6C2.5,10.4,3.1,11,3.9,11z M3.9,8.8
		c0.5,0,0.9,0.4,0.9,0.9s-0.4,0.9-0.9,0.9S3,10.1,3,9.6S3.4,8.8,3.9,8.8z"/>
	<path d="M1.7,15.3c0.1,0,0.1,0,0.2-0.1l4-3.5l2.5,2.5c0.1,0.1,0.2,0.1,0.3,0s0.1-0.2,0-0.3l-1.2-1.2l2.2-2.4l2.7,2.5
		c0.1,0.1,0.3,0.1,0.3,0c0.1-0.1,0.1-0.3,0-0.3L9.8,9.8c0,0-0.1-0.1-0.2-0.1c-0.1,0-0.1,0-0.2,0.1L7,12.4l-1-1.1
		c-0.1-0.1-0.2-0.1-0.3,0l-4.1,3.6c-0.1,0.1-0.1,0.2,0,0.3C1.6,15.3,1.6,15.3,1.7,15.3z"/>
</g>
<g>
	<path d="M29.8,5.6H16.1c-0.1,0-0.2,0.1-0.2,0.2v10.7c0,0.1,0.1,0.2,0.2,0.2h13.6c0.1,0,0.2-0.1,0.2-0.2V5.8
		C30,5.7,29.9,5.6,29.8,5.6z M29.5,16.3H16.4V6.1h13.1V16.3z"/>
	<path d="M19.8,11c0.7,0,1.4-0.6,1.4-1.4c0-0.7-0.6-1.4-1.4-1.4c-0.7,0-1.4,0.6-1.4,1.4C18.4,10.4,19,11,19.8,11z M19.8,8.8
		c0.5,0,0.9,0.4,0.9,0.9s-0.4,0.9-0.9,0.9s-0.9-0.4-0.9-0.9S19.3,8.8,19.8,8.8z"/>
	<path d="M17.6,15.3c0.1,0,0.1,0,0.2-0.1l4-3.5l2.5,2.5c0.1,0.1,0.2,0.1,0.3,0c0.1-0.1,0.1-0.2,0-0.3l-1.2-1.2l2.2-2.4l2.7,2.5
		c0.1,0.1,0.3,0.1,0.3,0c0.1-0.1,0.1-0.3,0-0.3l-2.9-2.7c0,0-0.1-0.1-0.2-0.1s-0.1,0-0.2,0.1l-2.4,2.6l-1.2-1.2
		c-0.1-0.1-0.2-0.1-0.3,0l-4.1,3.6c-0.1,0.1-0.1,0.2,0,0.3C17.4,15.3,17.5,15.3,17.6,15.3z"/>
</g>
<circle class="st4" cx="9" cy="22" r="2.4"/>
<circle class="st4" cx="15.2" cy="22" r="2.4"/>
<circle class="st4" cx="21.2" cy="22" r="2.4"/>
</svg>
