<?xml version="1.0" encoding="utf-8"?>
<!-- Generator: Adobe Illustrator 20.1.0, SVG Export Plug-In . SVG Version: 6.00 Build 0)  -->
<svg version="1.1" id="Layer_1" xmlns="http://www.w3.org/2000/svg" xmlns:xlink="http://www.w3.org/1999/xlink" x="0px" y="0px"
	 viewBox="0 0 30 30" style="enable-background:new 0 0 30 30;" xml:space="preserve">
<style type="text/css">
	.st0{display:none;}
	.st1{display:inline;}
	.st2{fill:#1D1D1B;}
	.st3{fill:none;stroke:#000000;stroke-width:0.5;stroke-miterlimit:10;}
</style>
<g class="st0">
	<g class="st1">
		<path class="st2" d="M6.7,2.5H3.5c-0.6,0-1,0.5-1,1.1v3.2c0,0.6,0.5,1.1,1,1.1h3.2c0.6,0,1-0.5,1-1.1V3.5C7.7,3,7.3,2.5,6.7,2.5z
			 M7.1,6.7c0,0.2-0.2,0.4-0.4,0.4H3.5c-0.2,0-0.4-0.2-0.4-0.4V3.5c0-0.2,0.2-0.4,0.4-0.4h3.2c0.2,0,0.4,0.2,0.4,0.4V6.7z"/>
	</g>
	<g class="st1">
		<path class="st2" d="M22.9,2.5h-3.2c-0.6,0-1,0.5-1,1.1v3.2c0,0.6,0.5,1.1,1,1.1h3.2c0.6,0,1-0.5,1-1.1V3.5
			C23.9,3,23.5,2.5,22.9,2.5z M23.2,6.7c0,0.2-0.2,0.4-0.4,0.4h-3.2c-0.2,0-0.4-0.2-0.4-0.4V3.5c0-0.2,0.2-0.4,0.4-0.4h3.2
			c0.2,0,0.4,0.2,0.4,0.4V6.7z"/>
	</g>
	<g class="st1">
		<path class="st2" d="M6.7,18.3H3.5c-0.6,0-1,0.5-1,1.1v3.2c0,0.6,0.5,1.1,1,1.1h3.2c0.6,0,1-0.5,1-1.1v-3.2
			C7.7,18.8,7.3,18.3,6.7,18.3z M7.1,22.5c0,0.2-0.2,0.4-0.4,0.4H3.5c-0.2,0-0.4-0.2-0.4-0.4v-3.2c0-0.2,0.2-0.4,0.4-0.4h3.2
			c0.2,0,0.4,0.2,0.4,0.4V22.5z"/>
	</g>
	<g class="st1">
		<path class="st2" d="M22.9,18.3h-3.2c-0.6,0-1,0.5-1,1.1v3.2c0,0.6,0.5,1.1,1,1.1h3.2c0.6,0,1-0.5,1-1.1v-3.2
			C23.9,18.8,23.5,18.3,22.9,18.3z M23.2,22.5c0,0.2-0.2,0.4-0.4,0.4h-3.2c-0.2,0-0.4-0.2-0.4-0.4v-3.2c0-0.2,0.2-0.4,0.4-0.4h3.2
			c0.2,0,0.4,0.2,0.4,0.4V22.5z"/>
	</g>
	<g class="st1">
		<path d="M11.2,10.3H2.7c-0.1,0-0.2-0.1-0.2-0.2c0-0.1,0.1-0.2,0.2-0.2h8.5c0.1,0,0.2,0.1,0.2,0.2S11.3,10.3,11.2,10.3z"/>
	</g>
	<g class="st1">
		<path d="M7.9,11.9H2.6c-0.1,0-0.1-0.1-0.1-0.2c0-0.1,0.1-0.2,0.1-0.2h5.3C8,11.5,8,11.6,8,11.7C8,11.8,8,11.9,7.9,11.9z"/>
	</g>
	<g class="st1">
		<path d="M27.4,10.3h-8.5c-0.1,0-0.2-0.1-0.2-0.2c0-0.1,0.1-0.2,0.2-0.2h8.5c0.1,0,0.2,0.1,0.2,0.2S27.5,10.3,27.4,10.3z"/>
	</g>
	<g class="st1">
		<path d="M24.1,11.9h-5.3c-0.1,0-0.1-0.1-0.1-0.2c0-0.1,0.1-0.2,0.1-0.2h5.3c0.1,0,0.1,0.1,0.1,0.2C24.2,11.8,24.1,11.9,24.1,11.9z
			"/>
	</g>
	<g class="st1">
		<path d="M27.4,26h-8.5c-0.1,0-0.2-0.1-0.2-0.2s0.1-0.2,0.2-0.2h8.5c0.1,0,0.2,0.1,0.2,0.2S27.5,26,27.4,26z"/>
	</g>
	<g class="st1">
		<path d="M24.1,27.6h-5.3c-0.1,0-0.1-0.1-0.1-0.2s0.1-0.2,0.1-0.2h5.3c0.1,0,0.1,0.1,0.1,0.2C24.2,27.5,24.1,27.6,24.1,27.6z"/>
	</g>
	<g class="st1">
		<path d="M11.2,26H2.7c-0.1,0-0.2-0.1-0.2-0.2s0.1-0.2,0.2-0.2h8.5c0.1,0,0.2,0.1,0.2,0.2S11.3,26,11.2,26z"/>
	</g>
	<g class="st1">
		<path d="M7.9,27.6H2.6c-0.1,0-0.1-0.1-0.1-0.2s0.1-0.2,0.1-0.2h5.3C8,27.2,8,27.3,8,27.4S8,27.6,7.9,27.6z"/>
	</g>
</g>
<path d="M19.1,16.4c-0.8,0-1.7,0.4-2.1,1.1l-3.5-1.8c0.1-0.3,0.1-0.7,0.1-1c0-0.3-0.1-0.7-0.1-1l3.5-1.8c0.4,0.7,1.2,1.1,2.1,1.1
	c1.4,0,2.5-1.1,2.5-2.5s-1.1-2.5-2.5-2.5s-2.5,1.1-2.5,2.5c0,0.4,0.1,0.7,0.1,1l-3.5,1.8c-0.4-0.7-1.2-1.1-2.1-1.1
	c-1.4,0-2.5,1.1-2.5,2.5s1.1,2.5,2.5,2.5c0.8,0,1.7-0.4,2.1-1.1l3.5,1.8c-0.1,0.3-0.1,0.7-0.1,1c0,1.4,1.1,2.5,2.5,2.5
	s2.5-1.1,2.5-2.5C21.7,17.5,20.6,16.4,19.1,16.4z M19.1,8.5c1.1,0,2.1,1,2.1,2.1s-1,2.1-2.1,2.1s-2.1-1-2.1-2.1S18,8.5,19.1,8.5z
	 M11.2,16.8c-1.1,0-2.1-1-2.1-2.1s1-2.1,2.1-2.1s2.1,1,2.1,2.1S12.3,16.8,11.2,16.8z M19.1,20.9c-1.1,0-2.1-1-2.1-2.1s1-2.1,2.1-2.1
	s2.1,1,2.1,2.1C21.3,20.1,20.3,20.9,19.1,20.9z"/>
<g>
	<path d="M13.9,3.1C13.9,3.1,13.9,3.1,13.9,3.1C13.9,3,13.9,3,13.9,3.1c0-0.1,0-0.1,0-0.1c0,0,0-0.1,0-0.1c0-0.1,0-0.2,0-0.2
		c0,0,0,0,0-0.1c0,0,0,0,0,0c0,0,0,0,0,0l-0.1-1.2l1.8,1.4l-1.7,1.5L13.9,3.1C13.9,3.1,13.9,3.1,13.9,3.1z"/>
</g>
<path class="st3" d="M21.9,4.5"/>
<path class="st3" d="M28.2,15.7c0,7.2-5.8,13-13,13s-13-5.8-13-13c0-6.9,5.4-12.6,12.2-13"/>
</svg>
