<?xml version="1.0" encoding="utf-8"?>
<!-- Generator: Adobe Illustrator 17.0.0, SVG Export Plug-In . SVG Version: 6.00 Build 0)  -->
<!DOCTYPE svg PUBLIC "-//W3C//DTD SVG 1.1//EN" "http://www.w3.org/Graphics/SVG/1.1/DTD/svg11.dtd">
<svg version="1.1" id="Layer_1" xmlns="http://www.w3.org/2000/svg" xmlns:xlink="http://www.w3.org/1999/xlink" x="0px" y="0px"
	 width="30px" height="30px" viewBox="0 0 30 30" enable-background="new 0 0 30 30" xml:space="preserve">
<g>
	<path d="M14.999,2.5C8.107,2.5,2.5,8.107,2.5,14.999c0,6.892,5.607,12.499,12.499,12.499s12.499-5.607,12.499-12.499
		C27.499,8.107,21.892,2.5,14.999,2.5z M14.999,26.998c-6.616,0-11.999-5.383-11.999-11.999c0-6.616,5.383-11.999,11.999-11.999
		s11.999,5.383,11.999,11.999C26.998,21.616,21.616,26.998,14.999,26.998z"/>
	<path d="M16.821,9.668c-0.401-0.219-0.884-0.204-1.269,0.041L9.74,13.421c-0.21-0.167-0.48-0.254-0.769-0.254H8.654
		c-0.679,0-1.175,0.519-1.175,1.198v1.529c0,0.679,0.495,1.277,1.175,1.277h0.318c0.331,0,0.63-0.155,0.851-0.367l5.715,3.623
		c0.204,0.13,0.432,0.189,0.66,0.189c0.203,0,0.435-0.054,0.623-0.157c0.4-0.22,0.668-0.626,0.668-1.083v-8.629
		C17.489,10.291,17.221,9.887,16.821,9.668z M16.989,19.377c0,0.271-0.171,0.511-0.408,0.641c-0.238,0.13-0.531,0.121-0.759-0.024
		l-5.692-3.624c0.061-0.146,0.102-0.307,0.102-0.475v-1.529c0-0.208-0.071-0.401-0.162-0.573l5.744-3.662
		c0.121-0.077,0.253-0.116,0.389-0.116c0.12,0,0.268,0.031,0.38,0.092c0.238,0.13,0.407,0.37,0.407,0.641L16.989,19.377
		L16.989,19.377z M9.732,15.939c0,0.404-0.328,0.732-0.731,0.732H8.712c-0.404,0-0.731-0.328-0.731-0.732V14.4
		c0-0.404,0.328-0.732,0.731-0.732H9c0.404,0,0.731,0.328,0.731,0.732V15.939z"/>
	<path d="M18.991,11.162v0.501c1.752,0,3.206,1.491,3.206,3.468s-1.454,3.468-3.206,3.468v0.501c2.002,0,3.707-1.706,3.707-3.968
		S20.993,11.162,18.991,11.162z"/>
	<path d="M20.764,15.131c0-1.077-0.772-1.889-1.773-1.889v0.501c0.501,0,1.273,0.597,1.273,1.388s-0.772,1.388-1.273,1.388v0.501
		C19.992,17.019,20.764,16.207,20.764,15.131z"/>
</g>
</svg>
