<?xml version="1.0" encoding="utf-8"?>
<!-- Generator: Adobe Illustrator 17.0.0, SVG Export Plug-In . SVG Version: 6.00 Build 0)  -->
<!DOCTYPE svg PUBLIC "-//W3C//DTD SVG 1.1//EN" "http://www.w3.org/Graphics/SVG/1.1/DTD/svg11.dtd">
<svg version="1.1" id="Layer_1" xmlns="http://www.w3.org/2000/svg" xmlns:xlink="http://www.w3.org/1999/xlink" x="0px" y="0px"
	 width="30px" height="30px" viewBox="0 0 30 30" enable-background="new 0 0 30 30" xml:space="preserve">
<g>
	<g>
		<path fill="#010002" d="M13.599,22.194c0.375,0.374,0.872,0.58,1.4,0.58c0.528,0,1.026-0.206,1.401-0.58l4.602-4.6
			c0.586-0.586,0.512-1.063,0.416-1.294c-0.097-0.232-0.38-0.623-1.211-0.623h-2.512V7.303c0-1.496-1.217-2.713-2.713-2.713
			S12.27,5.807,12.27,7.303v8.375H9.792c-0.828,0-1.113,0.39-1.209,0.622c-0.097,0.232-0.17,0.709,0.415,1.294L13.599,22.194z
			 M9.791,16.711h3.51V7.303c0.001-0.926,0.755-1.68,1.682-1.68c0.927,0,1.681,0.754,1.681,1.68v9.408h3.545
			c0.077,0,0.138,0.006,0.185,0.013c-0.028,0.038-0.067,0.085-0.122,0.14l-4.602,4.6c-0.338,0.338-1.002,0.338-1.341,0l-4.602-4.6
			c-0.055-0.055-0.094-0.101-0.121-0.14C9.653,16.717,9.713,16.711,9.791,16.711z"/>
		<path fill="#010002" d="M27.029,19.693c-0.285,0-0.516,0.232-0.516,0.517v4.167H3.486v-4.692c0-0.285-0.232-0.516-0.517-0.516
			c-0.285,0-0.516,0.232-0.516,0.516v5.208c0,0.286,0.232,0.517,0.516,0.517h24.06c0.286,0,0.517-0.232,0.517-0.517v-4.682
			C27.547,19.925,27.315,19.693,27.029,19.693z"/>
	</g>
</g>
</svg>
