<?xml version="1.0" encoding="utf-8"?>
<!-- Generator: Adobe Illustrator 20.1.0, SVG Export Plug-In . SVG Version: 6.00 Build 0)  -->
<svg version="1.1" id="Layer_1" xmlns="http://www.w3.org/2000/svg" xmlns:xlink="http://www.w3.org/1999/xlink" x="0px" y="0px"
	 viewBox="0 0 30 30" style="enable-background:new 0 0 30 30;" xml:space="preserve">
<style type="text/css">
	.st0{fill:#FFFFFF;}
</style>
<g>
	<g>
		<path d="M24.7,19.2V6.6H5.2v12.7h9.3v3.4h-3.2v0.9h7.3v-0.9h-3.2v-3.4H24.7z M6.2,18.3V7.5h17.5v10.9H6.2z"/>
	</g>
</g>
<rect x="5.7" y="7.1" class="st0" width="18.6" height="11.7"/>
<g>
	<path d="M26.5,12.2c0,0,0,0.1,0,0.1l0.9,0.9l-0.9,0.9c0,0,0,0.1,0,0.1c0,0,0.1,0,0.1,0l1-1c0,0,0,0,0-0.1c0,0,0,0,0-0.1l-1-1
		C26.6,12.2,26.5,12.2,26.5,12.2z"/>
</g>
<g>
	<path d="M19.8,10.1V10c0-0.4-0.3-0.8-0.8-0.8h-8c-0.4,0-0.8,0.3-0.8,0.8v5.9l0,0c0,0.4,0.3,0.8,0.8,0.8h8c0.4,0,0.8-0.3,0.8-0.8
		V10.1L19.8,10.1z M11.1,9.5h8c0.3,0,0.5,0.2,0.5,0.5v0.1c-0.7,0.7-1.8,1.8-2.7,2.7l-1.5-1.5c-0.2-0.2-0.5-0.2-0.6,0l-4.2,4.2V10
		C10.6,9.7,10.8,9.5,11.1,9.5z M19.1,16.3h-8c-0.2,0-0.4-0.2-0.5-0.4l4.4-4.4c0.1-0.1,0.2-0.1,0.2,0l1.5,1.5
		c-0.8,0.8-1.3,1.4-1.4,1.4c0,0.1,0,0.2,0,0.2c0,0,0.1,0,0.1,0c0,0,0.1,0,0.1-0.1c0.1-0.1,2.8-2.8,4.1-4.1v5.4
		C19.6,16.1,19.3,16.3,19.1,16.3z"/>
	<path d="M12.3,11.8c0.4,0,0.8-0.3,0.8-0.8c0-0.4-0.3-0.8-0.8-0.8s-0.8,0.3-0.8,0.8S11.9,11.8,12.3,11.8z M12.3,10.6
		c0.3,0,0.5,0.2,0.5,0.5c0,0.3-0.2,0.5-0.5,0.5c-0.3,0-0.5-0.2-0.5-0.5S12,10.6,12.3,10.6z"/>
</g>
<g>
	<path d="M3.5,14.2c0,0,0-0.1,0-0.1l-0.9-0.9l0.9-0.9c0,0,0-0.1,0-0.1s-0.1,0-0.1,0l-1,1c0,0,0,0,0,0.1c0,0,0,0,0,0.1l1,1
		C3.4,14.3,3.4,14.3,3.5,14.2z"/>
</g>
</svg>
