<?xml version="1.0" encoding="utf-8"?>
<!-- Generator: Adobe Illustrator 20.1.0, SVG Export Plug-In . SVG Version: 6.00 Build 0)  -->
<svg version="1.1" id="Layer_1" xmlns="http://www.w3.org/2000/svg" xmlns:xlink="http://www.w3.org/1999/xlink" x="0px" y="0px"
	 viewBox="0 0 30 30" style="enable-background:new 0 0 30 30;" xml:space="preserve">
<style type="text/css">
	.st0{display:none;}
	.st1{display:inline;}
	.st2{display:none;fill:#FFFFFF;}
	.st3{display:inline;fill:none;stroke:#000000;stroke-width:0.5;stroke-miterlimit:10;}
	.st4{fill:#1D1D1B;}
</style>
<g class="st0">
	<g class="st1">
		<path d="M24.7,19.2V6.6H5.2v12.7h9.3v3.4h-3.2v0.9h7.3v-0.9h-3.2v-3.4L24.7,19.2L24.7,19.2z M6.2,18.3V7.5h17.5v10.9H6.2V18.3z"/>
	</g>
</g>
<rect x="5.7" y="7.1" class="st2" width="18.6" height="11.7"/>
<g class="st0">
	<path class="st1" d="M26.5,12.2v0.1l0.9,0.9l-0.9,0.9v0.1h0.1l1-1c0,0,0,0,0-0.1c0,0,0,0,0-0.1l-1-1C26.6,12.2,26.5,12.2,26.5,12.2
		z"/>
</g>
<g class="st0">
	<path class="st1" d="M19.8,10.1V10c0-0.4-0.3-0.8-0.8-0.8h-8c-0.4,0-0.8,0.3-0.8,0.8v5.9l0,0c0,0.4,0.3,0.8,0.8,0.8h8
		c0.4,0,0.8-0.3,0.8-0.8V10.1L19.8,10.1z M11.1,9.5h8c0.3,0,0.5,0.2,0.5,0.5v0.1c-0.7,0.7-1.8,1.8-2.7,2.7l-1.5-1.5
		c-0.2-0.2-0.5-0.2-0.6,0l-4.2,4.2V10C10.6,9.7,10.8,9.5,11.1,9.5z M19.1,16.3h-8c-0.2,0-0.4-0.2-0.5-0.4l4.4-4.4
		c0.1-0.1,0.2-0.1,0.2,0l1.5,1.5c-0.8,0.8-1.3,1.4-1.4,1.4c0,0.1,0,0.2,0,0.2h0.1c0,0,0.1,0,0.1-0.1c0.1-0.1,2.8-2.8,4.1-4.1v5.4
		C19.6,16.1,19.3,16.3,19.1,16.3z"/>
	<path class="st1" d="M12.3,11.8c0.4,0,0.8-0.3,0.8-0.8c0-0.4-0.3-0.8-0.8-0.8s-0.8,0.3-0.8,0.8S11.9,11.8,12.3,11.8z M12.3,10.6
		c0.3,0,0.5,0.2,0.5,0.5s-0.2,0.5-0.5,0.5s-0.5-0.2-0.5-0.5S12,10.6,12.3,10.6z"/>
</g>
<g class="st0">
	<path class="st1" d="M3.5,14.2v-0.1l-0.9-0.9l0.9-0.9v-0.1H3.4l-1,1c0,0,0,0,0,0.1c0,0,0,0,0,0.1l1,1C3.4,14.3,3.4,14.3,3.5,14.2z"
		/>
</g>
<g class="st0">
	<path class="st1" d="M15,9.4H2.9c-0.3,0-0.6-0.2-0.6-0.6s0.2-0.6,0.6-0.6H15c0.3,0,0.6,0.2,0.6,0.6S15.3,9.4,15,9.4z"/>
	<path class="st1" d="M27,3.4H2.9c-0.3,0-0.6-0.2-0.6-0.6s0.2-0.6,0.6-0.6H27c0.3,0,0.6,0.2,0.6,0.6S27.3,3.4,27,3.4z"/>
	<path class="st1" d="M15,27.7H2.9c-0.3,0-0.6-0.2-0.6-0.6s0.2-0.6,0.6-0.6H15c0.3,0,0.6,0.2,0.6,0.6S15.3,27.7,15,27.7z"/>
	<path class="st1" d="M27,21.7H2.9c-0.3,0-0.6-0.2-0.6-0.6c0-0.3,0.2-0.6,0.6-0.6H27c0.3,0,0.6,0.2,0.6,0.6S27.3,21.7,27,21.7z"/>
	<circle class="st3" cx="15" cy="15.1" r="2.8"/>
	<rect x="2.4" y="14.7" class="st1" width="10" height="0.6"/>
	<rect x="17.7" y="14.7" class="st1" width="9.9" height="0.7"/>
</g>
<g class="st0">
	<path class="st1" d="M16.8,14.3c-0.1-0.1-0.1-0.1-0.2,0L15,15.9l-1.6-1.6c-0.1-0.1-0.1-0.1-0.2,0c-0.1,0.1-0.1,0.1,0,0.2l1.7,1.7
		H15h0.1l1.7-1.7C16.9,14.4,16.9,14.3,16.8,14.3z"/>
</g>
<g>
	<g>
		<path class="st4" d="M28.5,0h-5.4c-1,0-1.7,0.8-1.7,1.9v5.4c0,1,0.8,1.9,1.7,1.9h5.4c1,0,1.7-0.8,1.7-1.9V1.7
			C30.2,0.8,29.5,0,28.5,0z M29,7.1c0,0.3-0.3,0.7-0.7,0.7h-5.4c-0.3,0-0.7-0.3-0.7-0.7V1.7c0-0.3,0.3-0.7,0.7-0.7h5.4
			C28.6,1,29,1.4,29,1.7V7.1z"/>
	</g>
	<g>
		<path d="M29.8,11.3h-8.2c-0.1,0-0.2-0.1-0.2-0.2c0-0.1,0.1-0.2,0.2-0.2h8.2c0.1,0,0.2,0.1,0.2,0.2S29.9,11.3,29.8,11.3z"/>
	</g>
	<g>
		<path d="M26.6,13.2h-5.1c-0.1,0-0.1-0.1-0.1-0.2c0-0.1,0.1-0.2,0.1-0.2h5.1c0.1,0,0.1,0.1,0.1,0.2C26.7,13.1,26.6,13.2,26.6,13.2z
			"/>
	</g>
</g>
<g>
	<g>
		<path class="st4" d="M7.1,0H1.7C0.7,0,0,0.8,0,1.9v5.4c0,1,0.8,1.9,1.7,1.9h5.4c1,0,1.7-0.8,1.7-1.9V1.7C8.8,0.8,8.1,0,7.1,0z
			 M7.6,7.1c0,0.3-0.3,0.7-0.7,0.7H1.5c-0.3,0-0.7-0.3-0.7-0.7V1.7C0.8,1.4,1.2,1,1.5,1h5.4c0.3,0,0.7,0.3,0.7,0.7V7.1z"/>
	</g>
	<g>
		<path d="M8.4,11.3H0.2c-0.1,0-0.2-0.1-0.2-0.2c0-0.1,0.1-0.2,0.2-0.2h8.2c0.1,0,0.2,0.1,0.2,0.2S8.5,11.3,8.4,11.3z"/>
	</g>
	<g>
		<path d="M5.2,13.2H0.1C0,13.2,0,13.1,0,13c0-0.1,0.1-0.2,0.1-0.2h5.1c0.1,0,0.1,0.1,0.1,0.2C5.3,13.1,5.2,13.2,5.2,13.2z"/>
	</g>
</g>
<g>
	<g>
		<path class="st4" d="M28.5,16.8h-5.4c-1,0-1.7,0.8-1.7,1.9v5.4c0,1,0.8,1.9,1.7,1.9h5.4c1,0,1.7-0.8,1.7-1.9v-5.6
			C30.2,17.7,29.5,16.8,28.5,16.8z M29,23.9c0,0.3-0.3,0.7-0.7,0.7h-5.4c-0.3,0-0.7-0.3-0.7-0.7v-5.4c0-0.3,0.3-0.7,0.7-0.7h5.4
			c0.3,0,0.7,0.3,0.7,0.7V23.9z"/>
	</g>
	<g>
		<path d="M29.8,28.1h-8.2c-0.1,0-0.2-0.1-0.2-0.2s0.1-0.2,0.2-0.2h8.2c0.1,0,0.2,0.1,0.2,0.2S29.9,28.1,29.8,28.1z"/>
	</g>
	<g>
		<path d="M26.6,30h-5.1c-0.1,0-0.1-0.1-0.1-0.2s0.1-0.2,0.1-0.2h5.1c0.1,0,0.1,0.1,0.1,0.2C26.7,29.9,26.6,30,26.6,30z"/>
	</g>
</g>
<g>
	<g>
		<path class="st4" d="M7.1,16.8H1.7c-1,0-1.7,0.8-1.7,1.9v5.4c0,1,0.8,1.9,1.7,1.9h5.4c1,0,1.7-0.8,1.7-1.9v-5.6
			C8.8,17.7,8.1,16.8,7.1,16.8z M7.6,23.9c0,0.3-0.3,0.7-0.7,0.7H1.5c-0.3,0-0.7-0.3-0.7-0.7v-5.4c0-0.3,0.3-0.7,0.7-0.7h5.4
			c0.3,0,0.7,0.3,0.7,0.7V23.9z"/>
	</g>
	<g>
		<path d="M8.4,28.1H0.2C0.1,28.1,0,28,0,27.9s0.1-0.2,0.2-0.2h8.2c0.1,0,0.2,0.1,0.2,0.2S8.5,28.1,8.4,28.1z"/>
	</g>
	<g>
		<path d="M5.2,30H0.1C0,30,0,29.9,0,29.8s0.1-0.2,0.1-0.2h5.1c0.1,0,0.1,0.1,0.1,0.2C5.3,29.9,5.2,30,5.2,30z"/>
	</g>
</g>
</svg>
