<?xml version="1.0" encoding="utf-8"?>
<!-- Generator: Adobe Illustrator 19.2.1, SVG Export Plug-In . SVG Version: 6.00 Build 0)  -->
<svg version="1.1" id="Layer_1" xmlns="http://www.w3.org/2000/svg" xmlns:xlink="http://www.w3.org/1999/xlink" x="0px" y="0px"
	 viewBox="0 0 30 30" style="enable-background:new 0 0 30 30;" xml:space="preserve">
<g>
	<path d="M25,3.3h-6.7c-0.2,0-0.4,0.2-0.4,0.4v13.3c0,1.7-1.4,3.1-3.1,3.1s-3.1-1.4-3.1-3.1V3.7c0-0.2-0.2-0.4-0.4-0.4H4.6
		c-0.2,0-0.4,0.2-0.4,0.4v13.3c0,5.9,4.8,10.6,10.6,10.6s10.6-4.8,10.6-10.6V3.7C25.4,3.5,25.2,3.3,25,3.3z M10.9,4.1V8h-6V4.1H10.9
		z M14.8,26.9c-5.4,0-9.8-4.4-9.8-9.8V8.8h6v8.3c0,2.1,1.7,3.9,3.9,3.9s3.9-1.7,3.9-3.9V8.8h3.2c0.2,0,0.4-0.2,0.4-0.4
		S22.1,8,21.9,8h-3.2V4.1h6V8h-1.2c-0.2,0-0.4,0.2-0.4,0.4s0.2,0.4,0.4,0.4h1.2v8.3C24.6,22.5,20.2,26.9,14.8,26.9z"/>
	<circle cx="10" cy="23.3" r="0.4"/>
	<circle cx="8.5" cy="21.8" r="0.4"/>
	<circle cx="22.7" cy="12.2" r="0.4"/>
</g>
</svg>
