<?xml version="1.0" encoding="utf-8"?>
<!-- Generator: Adobe Illustrator 20.1.0, SVG Export Plug-In . SVG Version: 6.00 Build 0)  -->
<svg version="1.1" id="Layer_1" xmlns="http://www.w3.org/2000/svg" xmlns:xlink="http://www.w3.org/1999/xlink" x="0px" y="0px"
	 viewBox="0 0 30 30" style="enable-background:new 0 0 30 30;" xml:space="preserve">
<g>
	<path d="M19.4,17.1L19.4,17.1C19.2,17,19,17,18.9,16.9c-0.2-0.1-0.3-0.1-0.5-0.2c-0.1,0-0.3-0.1-0.4-0.1c-0.2-0.1-0.4-0.1-0.7-0.2
		c-0.1,0-0.2,0-0.2,0l-0.1,0c-0.1,0-0.3,0-0.4-0.1l0,0c0,0,0,0,0,0l0,0c-0.1,0-0.2,0-0.3,0l-0.4,0c-0.5,0-1,0-1.5,0l-0.1,0l-0.1,0
		l-0.2,0c-0.2,0-0.3,0-0.5,0.1l0,0c-0.1,0-0.2,0-0.3,0.1c-0.1,0-0.2,0-0.3,0.1c-0.2,0-0.4,0.1-0.6,0.2c-0.2,0-0.3,0.1-0.5,0.2
		l-0.1,0c-0.3,0.1-0.6,0.2-1,0.4l-0.1,0l0,0c-3.6,1.7-6,5.4-6,9.4c0,0.1,0,0.2,0,0.3l0,0.6h20.9l0-0.6c0-0.1,0-0.2,0-0.3
		C25.5,22.6,23.1,18.8,19.4,17.1z M5.6,26.5c0-3.6,2.2-6.9,5.4-8.4l0.1,0l0,0c0.3-0.1,0.5-0.2,0.8-0.3l0.1,0
		c0.1-0.1,0.3-0.1,0.4-0.1c0.2-0.1,0.4-0.1,0.6-0.1c0.1,0,0.2,0,0.3-0.1c0.1,0,0.2,0,0.2,0l0,0c0.1,0,0.3,0,0.4-0.1l0.3,0
		c0.4,0,0.9,0,1.4,0l0.3,0c0.1,0,0.2,0,0.3,0l0.1,0c0.1,0,0.2,0,0.4,0.1l0.1,0c0.1,0,0.1,0,0.2,0c0.2,0,0.4,0.1,0.6,0.2
		c0.1,0,0.3,0.1,0.4,0.1c0.2,0.1,0.3,0.1,0.5,0.2c0.1,0.1,0.3,0.1,0.4,0.2l0,0c3.3,1.5,5.5,4.8,5.5,8.5L5.6,26.5L5.6,26.5z
		 M12.5,14.9c0.1,0,0.2,0.1,0.2,0.1l0.2,0.1c0.1,0,0.1,0,0.2,0.1c0.6,0.2,1.2,0.3,1.9,0.3l0.1,0c0.2,0,0.4,0,0.7,0
		c0.1,0,0.1,0,0.2,0l0.2,0c0.1,0,0.2,0,0.3,0c0.1,0,0.1,0,0.2,0l0.2,0c0.1,0,0.2,0,0.3-0.1c0.1,0,0.1,0,0.2-0.1l0.1-0.1
		c0.1,0,0.2-0.1,0.3-0.1c0,0,0.1,0,0.1-0.1l0,0c0.1-0.1,0.3-0.1,0.4-0.2l0.1-0.1c0.2-0.1,0.3-0.2,0.5-0.3c0.1-0.1,0.2-0.1,0.2-0.2
		l0.3-0.2c1.5-1.2,2.4-3.1,2.4-5l0-0.1c0-3.6-2.9-6.5-6.5-6.5c-3.4,0-6.3,2.7-6.5,6.1l0,0.1c0,0.1,0,0.2,0,0.3
		C8.5,11.5,10.1,13.8,12.5,14.9z M9.5,8.6L9.5,8.6c0.2-3,2.6-5.3,5.5-5.3c3,0,5.5,2.5,5.5,5.5l0,0.1c0,1.6-0.7,3.2-2,4.2l-0.2,0.2
		c-0.1,0-0.1,0.1-0.2,0.1c-0.1,0.1-0.3,0.2-0.4,0.2l-0.1,0c-0.1,0.1-0.2,0.1-0.3,0.2l-0.1,0.1C17.1,14,17,14,16.9,14l-0.2,0.1
		c0,0-0.1,0-0.1,0c-0.1,0-0.1,0-0.2,0.1l-0.2,0.1c0,0-0.1,0-0.1,0c-0.1,0-0.1,0-0.2,0l-0.2,0c0,0-0.1,0-0.1,0c-0.2,0-0.3,0-0.5,0
		l0,0h0c-0.6,0-1.1-0.1-1.6-0.2c0,0-0.1,0-0.1,0L13.1,14c-0.1,0-0.1,0-0.2-0.1c-2-0.9-3.4-2.9-3.4-5.1C9.5,8.8,9.5,8.7,9.5,8.6z"/>
</g>
</svg>
