<?xml version="1.0" encoding="utf-8"?>
<!-- Generator: Adobe Illustrator 20.1.0, SVG Export Plug-In . SVG Version: 6.00 Build 0)  -->
<svg version="1.1" id="Layer_1" xmlns="http://www.w3.org/2000/svg" xmlns:xlink="http://www.w3.org/1999/xlink" x="0px" y="0px"
	 viewBox="0 0 30 30" style="enable-background:new 0 0 30 30;" xml:space="preserve">
<g>
	<path d="M14.1,2.7H0.2C0.1,2.7,0,2.8,0,3v10.9c0,0.1,0.1,0.2,0.2,0.2h13.9c0.1,0,0.2-0.1,0.2-0.2V3C14.4,2.8,14.3,2.7,14.1,2.7z
		 M13.9,13.6H0.5V3.2h13.4V13.6z"/>
	<path d="M4,8.2c0.8,0,1.4-0.6,1.4-1.4c0-0.8-0.6-1.4-1.4-1.4S2.6,6.1,2.6,6.8S3.2,8.2,4,8.2z M4,5.9c0.5,0,0.9,0.4,0.9,0.9
		S4.5,7.7,4,7.7S3.1,7.3,3.1,6.8S3.5,5.9,4,5.9z"/>
	<path d="M1.7,12.6c0.1,0,0.1,0,0.2-0.1l4-3.6l2.6,2.6c0.1,0.1,0.3,0.1,0.4,0c0.1-0.1,0.1-0.3,0-0.4L7.7,10l2.3-2.5l2.8,2.6
		c0.1,0.1,0.3,0.1,0.4,0c0.1-0.1,0.1-0.3,0-0.4l-3-2.7c0,0-0.1-0.1-0.2-0.1C9.8,6.9,9.8,7,9.7,7L7.3,9.7L6.1,8.5
		C6,8.4,5.9,8.4,5.8,8.5l-4.2,3.7c-0.1,0.1-0.1,0.2,0,0.3C1.6,12.6,1.7,12.6,1.7,12.6z"/>
</g>
<g>
	<path d="M29.8,2.7H15.9c-0.1,0-0.2,0.1-0.2,0.2v10.9c0,0.1,0.1,0.2,0.2,0.2h13.9c0.1,0,0.2-0.1,0.2-0.2V3C30,2.8,29.9,2.7,29.8,2.7
		z M29.5,13.6H16.1V3.2h13.4V13.6z"/>
	<path d="M19.6,8.2c0.8,0,1.4-0.6,1.4-1.4c0-0.8-0.6-1.4-1.4-1.4s-1.4,0.6-1.4,1.4S18.8,8.2,19.6,8.2z M19.6,5.9
		c0.5,0,0.9,0.4,0.9,0.9s-0.4,0.9-0.9,0.9c-0.5,0-0.9-0.4-0.9-0.9S19.1,5.9,19.6,5.9z"/>
	<path d="M17.4,12.6c0.1,0,0.1,0,0.2-0.1l4-3.6l2.6,2.6c0.1,0.1,0.3,0.1,0.4,0c0.1-0.1,0.1-0.3,0-0.4L23.3,10l2.3-2.5l2.8,2.6
		c0.1,0.1,0.3,0.1,0.4,0c0.1-0.1,0.1-0.3,0-0.4l-3-2.7c0,0-0.1-0.1-0.2-0.1c-0.1,0-0.1,0-0.2,0.1l-2.4,2.7l-1.2-1.2
		c-0.1-0.1-0.2-0.1-0.3,0l-4.2,3.7c-0.1,0.1-0.1,0.2,0,0.3C17.2,12.6,17.3,12.6,17.4,12.6z"/>
</g>
<g>
	<path d="M14.1,15.6H0.2c-0.1,0-0.2,0.1-0.2,0.2v10.9C0,26.9,0.1,27,0.2,27h13.9c0.1,0,0.2-0.1,0.2-0.2V15.9
		C14.4,15.7,14.3,15.6,14.1,15.6z M13.9,26.5H0.5V16.1h13.4V26.5z"/>
	<path d="M4,21.1c0.8,0,1.4-0.6,1.4-1.4c0-0.8-0.6-1.4-1.4-1.4S2.6,19,2.6,19.7C2.6,20.5,3.2,21.1,4,21.1z M4,18.8
		c0.5,0,0.9,0.4,0.9,0.9c0,0.5-0.4,0.9-0.9,0.9s-0.9-0.4-0.9-0.9C3.1,19.2,3.5,18.8,4,18.8z"/>
	<path d="M1.7,25.5c0.1,0,0.1,0,0.2-0.1l4-3.6l2.6,2.6c0.1,0.1,0.3,0.1,0.4,0c0.1-0.1,0.1-0.3,0-0.4l-1.2-1.2l2.3-2.5l2.8,2.6
		c0.1,0.1,0.3,0.1,0.4,0c0.1-0.1,0.1-0.3,0-0.4l-3-2.7c0,0-0.1-0.1-0.2-0.1c-0.1,0-0.1,0-0.2,0.1l-2.4,2.7l-1.2-1.2
		c-0.1-0.1-0.2-0.1-0.3,0l-4.2,3.7c-0.1,0.1-0.1,0.2,0,0.3C1.6,25.5,1.7,25.5,1.7,25.5z"/>
</g>
<g>
	<path d="M29.8,15.6H15.9c-0.1,0-0.2,0.1-0.2,0.2v10.9c0,0.1,0.1,0.2,0.2,0.2h13.9c0.1,0,0.2-0.1,0.2-0.2V15.9
		C30,15.7,29.9,15.6,29.8,15.6z M29.5,26.5H16.1V16.1h13.4V26.5z"/>
	<path d="M19.6,21.1c0.8,0,1.4-0.6,1.4-1.4c0-0.8-0.6-1.4-1.4-1.4s-1.4,0.6-1.4,1.4C18.2,20.5,18.8,21.1,19.6,21.1z M19.6,18.8
		c0.5,0,0.9,0.4,0.9,0.9c0,0.5-0.4,0.9-0.9,0.9c-0.5,0-0.9-0.4-0.9-0.9C18.7,19.2,19.1,18.8,19.6,18.8z"/>
	<path d="M17.4,25.5c0.1,0,0.1,0,0.2-0.1l4-3.6l2.6,2.6c0.1,0.1,0.3,0.1,0.4,0c0.1-0.1,0.1-0.3,0-0.4l-1.2-1.2l2.3-2.5l2.8,2.6
		c0.1,0.1,0.3,0.1,0.4,0c0.1-0.1,0.1-0.3,0-0.4l-3-2.7c0,0-0.1-0.1-0.2-0.1c-0.1,0-0.1,0-0.2,0.1l-2.4,2.7l-1.2-1.2
		c-0.1-0.1-0.2-0.1-0.3,0l-4.2,3.7c-0.1,0.1-0.1,0.2,0,0.3C17.2,25.5,17.3,25.5,17.4,25.5z"/>
</g>
</svg>
