<?xml version="1.0" encoding="utf-8"?>
<!-- Generator: Adobe Illustrator 20.1.0, SVG Export Plug-In . SVG Version: 6.00 Build 0)  -->
<svg version="1.1" id="Layer_1" xmlns="http://www.w3.org/2000/svg" xmlns:xlink="http://www.w3.org/1999/xlink" x="0px" y="0px"
	 viewBox="0 0 30 30" style="enable-background:new 0 0 30 30;" xml:space="preserve">
<style type="text/css">
	.st0{display:none;}
	.st1{display:inline;}
	.st2{display:none;fill:#FFFFFF;}
	.st3{display:none;fill:none;stroke:#000000;stroke-width:0.5;stroke-miterlimit:10;}
	.st4{display:none;opacity:0.5;fill:#FFFFFF;}
	.st5{fill:none;stroke:#000000;stroke-width:0.5;stroke-miterlimit:10;}
	.st6{fill:#BCBCBC;}
</style>
<g class="st0">
	<g class="st1">
		<path d="M24.7,19.2V6.6H5.2v12.7h9.3v3.4h-3.2v0.9h7.3v-0.9h-3.2v-3.4L24.7,19.2L24.7,19.2z M6.2,18.3V7.5h17.5v10.9H6.2V18.3z"/>
	</g>
</g>
<rect x="5.7" y="7.1" class="st2" width="18.6" height="11.7"/>
<g class="st0">
	<path class="st1" d="M26.5,12.2v0.1l0.9,0.9l-0.9,0.9v0.1h0.1l1-1c0,0,0,0,0-0.1c0,0,0,0,0-0.1l-1-1C26.6,12.2,26.5,12.2,26.5,12.2
		z"/>
</g>
<g class="st0">
	<path class="st1" d="M19.8,10.1V10c0-0.4-0.3-0.8-0.8-0.8h-8c-0.4,0-0.8,0.3-0.8,0.8v5.9l0,0c0,0.4,0.3,0.8,0.8,0.8h8
		c0.4,0,0.8-0.3,0.8-0.8V10.1L19.8,10.1z M11.1,9.5h8c0.3,0,0.5,0.2,0.5,0.5v0.1c-0.7,0.7-1.8,1.8-2.7,2.7l-1.5-1.5
		c-0.2-0.2-0.5-0.2-0.6,0l-4.2,4.2V10C10.6,9.7,10.8,9.5,11.1,9.5z M19.1,16.3h-8c-0.2,0-0.4-0.2-0.5-0.4l4.4-4.4
		c0.1-0.1,0.2-0.1,0.2,0l1.5,1.5c-0.8,0.8-1.3,1.4-1.4,1.4c0,0.1,0,0.2,0,0.2h0.1c0,0,0.1,0,0.1-0.1c0.1-0.1,2.8-2.8,4.1-4.1v5.4
		C19.6,16.1,19.3,16.3,19.1,16.3z"/>
	<path class="st1" d="M12.3,11.8c0.4,0,0.8-0.3,0.8-0.8c0-0.4-0.3-0.8-0.8-0.8s-0.8,0.3-0.8,0.8S11.9,11.8,12.3,11.8z M12.3,10.6
		c0.3,0,0.5,0.2,0.5,0.5s-0.2,0.5-0.5,0.5s-0.5-0.2-0.5-0.5S12,10.6,12.3,10.6z"/>
</g>
<g class="st0">
	<path class="st1" d="M3.5,14.2v-0.1l-0.9-0.9l0.9-0.9v-0.1H3.4l-1,1c0,0,0,0,0,0.1c0,0,0,0,0,0.1l1,1C3.4,14.3,3.4,14.3,3.5,14.2z"
		/>
</g>
<g>
	<path d="M24.5,15.2H5.4c-0.2,0-0.5-0.1-0.5-0.4s0.2-0.4,0.5-0.4h19.2c0.2,0,0.5,0.1,0.5,0.4S24.8,15.2,24.5,15.2z"/>
</g>
<g>
	<path d="M17.6,20.5H5.2c-0.2,0-0.3-0.1-0.3-0.4s0.1-0.4,0.3-0.4h12.4c0.2,0,0.3,0.1,0.3,0.4S17.8,20.5,17.6,20.5z"/>
</g>
<g>
	<path d="M13,7.2h-8C5,7.2,4.9,7.1,4.9,6.9s0.1-0.4,0.2-0.4h8c0.1,0,0.2,0.1,0.2,0.4S13.1,7.2,13,7.2z"/>
</g>
<g class="st0">
	<path class="st1" d="M16.8,14.3c-0.1-0.1-0.1-0.1-0.2,0L15,15.9l-1.6-1.6c-0.1-0.1-0.1-0.1-0.2,0c-0.1,0.1-0.1,0.1,0,0.2l1.7,1.7
		H15h0.1l1.7-1.7C16.9,14.4,16.9,14.3,16.8,14.3z"/>
</g>
<line class="st3" x1="18.8" y1="8.7" x2="13.3" y2="22"/>
<polygon class="st4" points="22.3,21.7 13.7,21.7 18.9,9.1 22.2,9.1 "/>
<rect x="2.7" y="4.6" class="st5" width="24.6" height="20.7"/>
<rect x="2.9" y="4.8" class="st6" width="24.1" height="4.2"/>
<rect x="23.7" y="5.6" transform="matrix(0.7071 -0.7071 0.7071 0.7071 2.1064 18.9315)" width="0.3" height="2.7"/>
<rect x="23.7" y="5.5" transform="matrix(-0.7071 -0.7071 0.7071 -0.7071 35.914 28.7223)" width="0.3" height="2.8"/>
<path d="M13.3,7.2h-8c-0.1,0-0.2-0.1-0.2-0.3c0-0.2,0.1-0.3,0.2-0.3h8c0.1,0,0.2,0.1,0.2,0.3C13.5,7.1,13.4,7.2,13.3,7.2z"/>
</svg>
