<?xml version="1.0" encoding="utf-8"?>
<!-- Generator: Adobe Illustrator 17.0.0, SVG Export Plug-In . SVG Version: 6.00 Build 0)  -->
<!DOCTYPE svg PUBLIC "-//W3C//DTD SVG 1.1//EN" "http://www.w3.org/Graphics/SVG/1.1/DTD/svg11.dtd">
<svg version="1.1" id="Layer_1" xmlns="http://www.w3.org/2000/svg" xmlns:xlink="http://www.w3.org/1999/xlink" x="0px" y="0px"
	 width="30px" height="30px" viewBox="0 0 30 30" enable-background="new 0 0 30 30" xml:space="preserve">
<g>
	<path d="M27.491,13.716c0-1.241-1.009-2.238-2.25-2.238h-5c-0.425,0-0.862,0.013-1.283,0.036c-0.48,0.027-0.973,0.049-1.44,0.039
		c-0.165-0.003-0.214-0.063-0.23-0.082c-0.041-0.048-0.13-0.21-0.07-0.662c0.088-0.658,0.493-1.289,0.885-1.899
		c0.224-0.348,0.455-0.709,0.631-1.078c0.716-1.495,1.398-3.382,0.314-4.721c-0.395-0.488-0.996-0.769-1.649-0.769
		c-0.469,0-0.94,0.147-1.329,0.413c-0.553,0.381-0.83,0.956-1.098,1.513c-0.078,0.162-0.151,0.315-0.231,0.461
		c-0.188,0.344-0.332,0.701-0.472,1.047c-0.193,0.478-0.375,0.929-0.658,1.331c-0.176,0.25-0.348,0.504-0.52,0.758
		c-0.617,0.91-1.255,1.85-2.059,2.596l-0.149,0.139c-0.718,0.672-2.213,2.071-3.238,2.071c-0.145,0-0.27-0.028-0.384-0.086
		c-0.086-0.044-0.164-0.092-0.24-0.138c-0.224-0.137-0.455-0.278-0.846-0.298C5.49,12.114,4.67,12.369,3.971,12.84
		c-0.962,0.649-1.559,1.711-1.559,2.84v7.247c0,1.064,0.645,2.226,1.61,2.959c0.52,0.395,1.091,0.613,1.631,0.631
		c0.474,0.015,0.838-0.159,1.15-0.313c0.159-0.078,0.312-0.152,0.477-0.205c0.27-0.086,0.537-0.127,0.813-0.127
		c0.788,0,1.532,0.346,2.318,0.711c0.722,0.336,1.469,0.683,2.309,0.789c0.987,0.125,2.055,0.183,3.361,0.183
		c0.782,0,1.576-0.02,2.344-0.04c0.763-0.02,1.551-0.04,2.324-0.04c1.24,0,2.248-0.973,2.248-2.214c0-0.62-0.252-1.221-0.658-1.552
		h0.475c1.241,0,2.25-1.047,2.25-2.288c0-0.622-0.254-1.205-0.663-1.612c1.175-0.073,2.109-1.062,2.109-2.255
		c0-0.654-0.281-1.243-0.727-1.654C26.762,15.656,27.491,14.77,27.491,13.716z M25.24,15.279h-0.98
		c-0.182,0-0.331,0.155-0.331,0.338c0,0.182,0.148,0.334,0.331,0.334c0.876,0,1.589,0.688,1.589,1.565
		c0,0.876-0.713,1.565-1.589,1.565h-1.446c-0.182,0-0.331,0.174-0.331,0.357s0.148,0.344,0.331,0.344
		c0.876,0,1.589,0.757,1.589,1.633c0,0.876-0.713,1.633-1.589,1.633h-2.066c-0.182,0-0.331,0.111-0.331,0.293
		c0,0.182,0.148,0.312,0.331,0.312c0.875,0,1.587,0.704,1.587,1.58c0,0.877-0.712,1.585-1.587,1.585
		c-0.781,0-1.574,0.018-2.341,0.038c-0.763,0.02-1.553,0.039-2.326,0.039c-1.278,0-2.319-0.057-3.278-0.178
		c-0.738-0.093-1.437-0.419-2.113-0.733c-0.817-0.38-1.662-0.773-2.596-0.773c-0.341,0-0.681,0.053-1.013,0.159
		c-0.213,0.068-0.392,0.156-0.565,0.242c-0.268,0.132-0.499,0.246-0.791,0.246l-0.039-0.001c-0.508-0.017-0.978-0.279-1.264-0.496
		c-0.793-0.603-1.349-1.581-1.349-2.433V15.68c0-0.909,0.488-1.766,1.267-2.292c0.539-0.363,1.177-0.579,1.69-0.579
		c0.033,0,0.071,0.001,0.104,0.003c0.225,0.012,0.345,0.083,0.54,0.202c0.082,0.05,0.177,0.107,0.286,0.162
		c0.206,0.105,0.436,0.158,0.684,0.158c1.286,0,2.85-1.464,3.69-2.25l0.147-0.137c0.859-0.797,1.519-1.769,2.156-2.709
		c0.17-0.251,0.341-0.502,0.514-0.749c0.326-0.464,0.532-0.972,0.73-1.463c0.139-0.343,0.27-0.668,0.439-0.979
		c0.087-0.161,0.168-0.328,0.245-0.49c0.241-0.501,0.469-0.974,0.877-1.255c0.279-0.192,0.618-0.297,0.954-0.297
		c0.459,0,0.862,0.186,1.135,0.523c0.851,1.051,0.235,2.7-0.397,4.02c-0.158,0.332-0.368,0.659-0.591,1.005
		c-0.431,0.671-0.876,1.364-0.984,2.168c-0.071,0.535,0.002,0.92,0.223,1.178c0.117,0.137,0.337,0.302,0.718,0.31
		c0.489,0.01,0.999-0.006,1.491-0.034c0.413-0.023,0.839-0.035,1.246-0.035h5c0.876,0,1.589,0.694,1.589,1.57
		C26.829,14.586,26.117,15.279,25.24,15.279z"/>
</g>
</svg>
