<?xml version="1.0" encoding="utf-8"?>
<!-- Generator: Adobe Illustrator 17.0.0, SVG Export Plug-In . SVG Version: 6.00 Build 0)  -->
<!DOCTYPE svg PUBLIC "-//W3C//DTD SVG 1.1//EN" "http://www.w3.org/Graphics/SVG/1.1/DTD/svg11.dtd">
<svg version="1.1" id="Layer_1" xmlns="http://www.w3.org/2000/svg" xmlns:xlink="http://www.w3.org/1999/xlink" x="0px" y="0px"
	 width="30px" height="30px" viewBox="0 0 30 30" enable-background="new 0 0 30 30" xml:space="preserve">
<g>
	<path d="M26.564,3.916H3.329c-0.518,0-0.938,0.416-0.938,0.927v20.314c0,0.314,0.16,0.591,0.402,0.759v0.146h0.336
		c0.065,0.014,0.131,0.022,0.2,0.022h23.236c0.069,0,0.135-0.008,0.199-0.022h0.046v-0.014c0.398-0.108,0.693-0.464,0.693-0.891
		V4.844C27.502,4.332,27.082,3.916,26.564,3.916z M6.099,25.267h-2.84c-0.038-0.023-0.064-0.063-0.064-0.11V22.75h2.904V25.267z
		 M6.099,21.955H3.195v-2.61h2.904V21.955z M6.099,18.551H3.195v-2.756h2.904V18.551z M6.099,15H3.195v-2.981h2.904V15z
		 M6.099,11.225H3.195V8.31h2.904V11.225z M12.868,25.267H6.903V22.75h5.965L12.868,25.267L12.868,25.267z M12.868,21.955H6.903
		v-2.61h5.965L12.868,21.955L12.868,21.955z M12.868,18.551H6.903v-2.756h5.965L12.868,18.551L12.868,18.551z M12.868,15H6.903
		v-2.981h5.965L12.868,15L12.868,15z M12.868,11.225H6.903V8.31h5.965L12.868,11.225L12.868,11.225z M12.868,7.515H6.903V4.711
		h5.965L12.868,7.515L12.868,7.515z M19.705,25.267h-6.033V22.75h6.033V25.267z M19.705,21.955h-6.033v-2.61h6.033V21.955z
		 M19.705,18.551h-6.033v-2.756h6.033V18.551z M19.705,15h-6.033v-2.981h6.033V15z M19.705,11.225h-6.033V8.31h6.033V11.225z
		 M19.705,7.515h-6.033V4.711h6.033V7.515z M26.698,25.157c0,0.047-0.027,0.087-0.064,0.11H20.51V22.75h6.189V25.157z
		 M26.698,21.955H20.51v-2.61h6.189V21.955z M26.698,18.551H20.51v-2.756h6.189V18.551z M26.698,15H20.51v-2.981h6.189V15z
		 M26.698,11.225H20.51V8.31h6.189V11.225z M26.698,7.515H20.51V4.711h6.054c0.074,0,0.134,0.06,0.134,0.133L26.698,7.515
		L26.698,7.515z M19.091,10.489h-4.827V8.83h4.827L19.091,10.489L19.091,10.489z"/>
</g>
</svg>
