<?xml version="1.0" encoding="utf-8"?>
<!-- Generator: Adobe Illustrator 17.0.0, SVG Export Plug-In . SVG Version: 6.00 Build 0)  -->
<!DOCTYPE svg PUBLIC "-//W3C//DTD SVG 1.1//EN" "http://www.w3.org/Graphics/SVG/1.1/DTD/svg11.dtd">
<svg version="1.1" id="Layer_1" xmlns="http://www.w3.org/2000/svg" xmlns:xlink="http://www.w3.org/1999/xlink" x="0px" y="0px"
	 width="30px" height="30px" viewBox="0 0 30 30" enable-background="new 0 0 30 30" xml:space="preserve">
<g>
	<g>
		<path fill="#231F20" d="M19.796,14.466L13.004,9.74c-0.211-0.159-0.774-0.159-0.82,0.44v9.452c0.05,0.598,0.623,0.609,0.82,0.44
			l6.793-4.726C19.972,15.239,20.214,14.799,19.796,14.466L19.796,14.466z M13.235,18.625v-7.437l5.335,3.718L13.235,18.625z"/>
		<path fill="#231F20" d="M14.859,2.375c-6.793,0-12.318,5.621-12.318,12.531s5.526,12.531,12.318,12.531
			s12.318-5.621,12.318-12.531S21.652,2.375,14.859,2.375z M14.859,26.369c-6.214,0-11.268-5.14-11.268-11.462
			S8.644,3.444,14.859,3.444s11.268,5.14,11.268,11.462S21.073,26.369,14.859,26.369z"/>
	</g>
</g>
</svg>
