<?xml version="1.0" encoding="utf-8"?>
<!-- Generator: Adobe Illustrator 17.0.0, SVG Export Plug-In . SVG Version: 6.00 Build 0)  -->
<!DOCTYPE svg PUBLIC "-//W3C//DTD SVG 1.1//EN" "http://www.w3.org/Graphics/SVG/1.1/DTD/svg11.dtd">
<svg version="1.1" id="Layer_1" xmlns="http://www.w3.org/2000/svg" xmlns:xlink="http://www.w3.org/1999/xlink" x="0px" y="0px"
	 width="30px" height="30px" viewBox="0 0 30 30" enable-background="new 0 0 30 30" xml:space="preserve">
<g>
	<g id="flickr">
		<g>
			<path d="M19.438,11.139c-2.113,0-3.833,1.732-3.833,3.861c0,2.129,1.72,3.862,3.833,3.862c2.113,0,3.833-1.732,3.833-3.862
				C23.27,12.871,21.551,11.139,19.438,11.139z M19.438,17.689c-1.467,0-2.661-1.207-2.661-2.69c0-1.482,1.194-2.688,2.661-2.688
				s2.66,1.206,2.66,2.688C22.098,16.482,20.905,17.689,19.438,17.689z M10.779,11.139c-2.113,0-3.833,1.732-3.833,3.861
				c0,2.129,1.72,3.862,3.833,3.862c2.114,0,3.834-1.732,3.834-3.862C14.613,12.871,12.893,11.139,10.779,11.139z M10.779,17.689
				c-1.467,0-2.661-1.207-2.661-2.69c0-1.482,1.194-2.688,2.661-2.688c1.468,0,2.661,1.206,2.661,2.688
				C13.441,16.482,12.247,17.689,10.779,17.689z M15.109,2.401c-7.01,0-12.713,5.652-12.713,12.6
				c0,6.947,5.703,12.598,12.713,12.598c6.89,0,12.495-5.652,12.495-12.598C27.604,8.053,21.999,2.401,15.109,2.401z M15.109,26.426
				c-6.363,0-11.54-5.125-11.54-11.426c0-6.302,5.177-11.428,11.54-11.428c6.243,0,11.323,5.126,11.323,11.428
				C26.432,21.301,21.352,26.426,15.109,26.426z"/>
		</g>
	</g>
</g>
</svg>
