<?xml version="1.0" encoding="utf-8"?>
<!-- Generator: Adobe Illustrator 17.0.0, SVG Export Plug-In . SVG Version: 6.00 Build 0)  -->
<!DOCTYPE svg PUBLIC "-//W3C//DTD SVG 1.1//EN" "http://www.w3.org/Graphics/SVG/1.1/DTD/svg11.dtd">
<svg version="1.1" id="Layer_1" xmlns="http://www.w3.org/2000/svg" xmlns:xlink="http://www.w3.org/1999/xlink" x="0px" y="0px"
	 width="30px" height="30px" viewBox="0 0 30 30" enable-background="new 0 0 30 30" xml:space="preserve">
<g>
	<g>
		<path d="M26.781,7.96h-7.226V7.272c0-2.044-1.396-3.706-3.111-3.706h-3.007c-1.716,0-3.111,1.663-3.111,3.706V7.96H3.1
			c-0.427,0-0.775,0.347-0.775,0.775v16.8c0,0.427,0.347,0.775,0.775,0.775h23.68c0.427,0,0.775-0.347,0.775-0.775v-16.8
			C27.555,8.308,27.208,7.96,26.781,7.96z M18.237,7.96V7.624h0.614V7.96H18.237z M12.348,7.96V7.272
			c0-1.196,0.576-1.802,1.711-1.802h1.764c1.135,0,1.711,0.606,1.711,1.802V7.96H12.348z M13.437,4.27h3.007
			c1.232,0,2.25,1.16,2.391,2.65h-0.613c-0.123-1.375-0.982-2.154-2.4-2.154h-1.764c-1.418,0-2.277,0.779-2.4,2.154h-0.613
			C11.187,5.43,12.205,4.27,13.437,4.27z M11.03,7.624h0.614V7.96H11.03V7.624z M3.03,8.735c0-0.039,0.032-0.07,0.07-0.07h23.68
			c0.039,0,0.07,0.032,0.07,0.07v5.639c0,0.893-0.726,1.62-1.62,1.62h-8.566v-0.915c0-0.582-0.474-1.056-1.056-1.056h-1.338
			c-0.582,0-1.056,0.474-1.056,1.056v0.915H4.65c-0.893,0-1.62-0.727-1.62-1.62V8.735z M13.92,16.698h2.042v1.711
			c0,0.194-0.158,0.352-0.352,0.352h-1.338c-0.194,0-0.352-0.158-0.352-0.352V16.698z M13.92,15.994v-0.915
			c0-0.194,0.158-0.352,0.352-0.352h1.338c0.194,0,0.352,0.158,0.352,0.352v0.915H13.92z M26.781,25.605H3.1
			c-0.039,0-0.07-0.032-0.07-0.07v-9.496c0.419,0.408,0.99,0.66,1.62,0.66h8.566v1.711c0,0.582,0.474,1.056,1.056,1.056h1.338
			c0.582,0,1.056-0.474,1.056-1.056v-1.711h8.566c0.629,0,1.201-0.252,1.62-0.66v9.496C26.851,25.573,26.82,25.605,26.781,25.605z"
			/>
		<path d="M14.941,18.468c0.194,0,0.352-0.158,0.352-0.352v-0.744c0-0.194-0.158-0.352-0.352-0.352s-0.352,0.158-0.352,0.352v0.744
			C14.588,18.31,14.746,18.468,14.941,18.468z"/>
	</g>
</g>
</svg>
