<?xml version="1.0" encoding="utf-8"?>
<!-- Generator: Adobe Illustrator 20.1.0, SVG Export Plug-In . SVG Version: 6.00 Build 0)  -->
<svg version="1.1" id="Layer_1" xmlns="http://www.w3.org/2000/svg" xmlns:xlink="http://www.w3.org/1999/xlink" x="0px" y="0px"
	 viewBox="0 0 30 30" style="enable-background:new 0 0 30 30;" xml:space="preserve">
<style type="text/css">
	.st0{fill:none;stroke:#000000;stroke-width:0.5;stroke-miterlimit:10;}
	.st1{fill:#FFFFFF;}
</style>
<rect x="2.8" y="9.5" class="st0" width="19.8" height="15.4"/>
<circle class="st1" cx="23.6" cy="8.5" r="3.1"/>
<circle class="st0" cx="23.8" cy="8.3" r="3.5"/>
<g>
	<path d="M10.5,20.7H5.6c-0.1,0-0.2-0.1-0.2-0.2s0.1-0.2,0.2-0.2h4.9c0.1,0,0.2,0.1,0.2,0.2S10.6,20.7,10.5,20.7z"/>
	<path d="M25.6,6.9l-3.5,3.5c-0.1,0.1-0.2,0.1-0.3,0c-0.1-0.1-0.1-0.2,0-0.3l3.5-3.5c0.1-0.1,0.2-0.1,0.3,0
		C25.7,6.7,25.7,6.8,25.6,6.9z"/>
	<path d="M25.2,10.2l-3.5-3.5c-0.1-0.1-0.1-0.2,0-0.3c0.1-0.1,0.2-0.1,0.3,0l3.5,3.5c0.1,0.1,0.1,0.2,0,0.3
		C25.4,10.3,25.3,10.3,25.2,10.2z"/>
	<path d="M15.4,17.4H5.6c-0.1,0-0.2-0.1-0.2-0.2S5.5,17,5.6,17h9.8c0.1,0,0.2,0.1,0.2,0.2S15.5,17.4,15.4,17.4z"/>
	<path d="M15.4,14.2H5.6c-0.1,0-0.2-0.1-0.2-0.2c0-0.1,0.1-0.2,0.2-0.2h9.8c0.1,0,0.2,0.1,0.2,0.2C15.6,14.1,15.5,14.2,15.4,14.2z"
		/>
</g>
</svg>
