<?xml version="1.0" encoding="utf-8"?>
<!-- Generator: Adobe Illustrator 17.0.0, SVG Export Plug-In . SVG Version: 6.00 Build 0)  -->
<!DOCTYPE svg PUBLIC "-//W3C//DTD SVG 1.1//EN" "http://www.w3.org/Graphics/SVG/1.1/DTD/svg11.dtd">
<svg version="1.1" id="Layer_1" xmlns="http://www.w3.org/2000/svg" xmlns:xlink="http://www.w3.org/1999/xlink" x="0px" y="0px"
	 width="30px" height="30px" viewBox="0 0 30 30" enable-background="new 0 0 30 30" xml:space="preserve">
<g>
	<g>
		<path fill="#231F20" d="M12.566,9.853c-2.311,0-4.361,1.451-5.101,3.605c-0.066,0.191-0.24,0.331-0.444,0.351
			c-2.056,0.221-3.606,1.923-3.606,3.961c0,2.199,1.816,3.987,4.05,3.987h14.762c2.234,0,4.05-1.787,4.05-3.987
			c0-1.476-0.826-2.827-2.153-3.525c-0.189-0.1-0.301-0.301-0.281-0.512c0.015-0.156,0.026-0.316,0.026-0.477
			c0-2.922-2.418-5.302-5.387-5.302c-1.581,0-3.081,0.683-4.106,1.878c-0.128,0.151-0.337,0.216-0.531,0.171
			C13.408,9.908,12.979,9.853,12.566,9.853z M22.227,22.811H7.465c-2.821,0-5.116-2.259-5.116-5.036
			c0-2.465,1.796-4.539,4.224-4.956c0.969-2.41,3.336-4.012,5.994-4.012c0.398,0,0.801,0.04,1.214,0.12
			c1.219-1.28,2.918-2.008,4.703-2.008c3.555,0,6.448,2.847,6.448,6.346c0,0.08,0,0.156-0.005,0.236
			c1.5,0.914,2.418,2.52,2.418,4.273C27.344,20.552,25.048,22.811,22.227,22.811z"/>
		<path fill="#231F20" d="M12.566,9.853c-2.311,0-4.361,1.451-5.101,3.605c-0.066,0.191-0.24,0.331-0.444,0.351
			c-2.056,0.221-3.606,1.923-3.606,3.961c0,2.199,1.816,3.987,4.05,3.987h14.762c2.234,0,4.05-1.787,4.05-3.987
			c0-1.476-0.826-2.827-2.153-3.525c-0.189-0.1-0.301-0.301-0.281-0.512c0.015-0.156,0.026-0.316,0.026-0.477
			c0-2.922-2.418-5.302-5.387-5.302c-1.581,0-3.081,0.683-4.106,1.878c-0.128,0.151-0.337,0.216-0.531,0.171
			C13.408,9.908,12.979,9.853,12.566,9.853z M22.227,22.811H7.465c-2.821,0-5.116-2.259-5.116-5.036
			c0-2.465,1.796-4.539,4.224-4.956c0.969-2.41,3.336-4.012,5.994-4.012c0.398,0,0.801,0.04,1.214,0.12
			c1.219-1.28,2.918-2.008,4.703-2.008c3.555,0,6.448,2.847,6.448,6.346c0,0.08,0,0.156-0.005,0.236
			c1.5,0.914,2.418,2.52,2.418,4.273C27.344,20.552,25.048,22.811,22.227,22.811z"/>
	</g>
</g>
</svg>
