<?xml version="1.0" encoding="utf-8"?>
<!-- Generator: Adobe Illustrator 20.1.0, SVG Export Plug-In . SVG Version: 6.00 Build 0)  -->
<svg version="1.1" id="Layer_1" xmlns="http://www.w3.org/2000/svg" xmlns:xlink="http://www.w3.org/1999/xlink" x="0px" y="0px"
	 viewBox="0 0 30 30" style="enable-background:new 0 0 30 30;" xml:space="preserve">
<style type="text/css">
	.st0{display:none;fill:none;stroke:#000000;stroke-width:0.5;stroke-miterlimit:10;}
	.st1{display:none;fill:#FFFFFF;}
	.st2{display:none;}
	.st3{display:inline;}
	.st4{fill:none;stroke:#000000;stroke-width:0.5;stroke-miterlimit:10;}
	.st5{fill:#FFFFFF;}
</style>
<rect x="2.6" y="7.5" class="st0" width="24.5" height="15.4"/>
<circle class="st1" cx="23.6" cy="8.5" r="3.1"/>
<circle class="st0" cx="23.8" cy="8.3" r="3.5"/>
<g class="st2">
	<path class="st3" d="M10,18.7H5.1c-0.1,0-0.2-0.1-0.2-0.2s0.1-0.2,0.2-0.2H10c0.1,0,0.2,0.1,0.2,0.2S10.1,18.7,10,18.7z"/>
	<path class="st3" d="M24.8,13.6l-3.5,3.5c-0.1,0.1-0.2,0.1-0.3,0s-0.1-0.2,0-0.3l3.5-3.5c0.1-0.1,0.2-0.1,0.3,0
		C24.9,13.4,24.9,13.5,24.8,13.6z"/>
	<path class="st3" d="M24.5,17.1L21,13.6c-0.1-0.1-0.1-0.2,0-0.3c0.1-0.1,0.2-0.1,0.3,0l3.5,3.5c0.1,0.1,0.1,0.2,0,0.3
		C24.7,17.2,24.6,17.2,24.5,17.1z"/>
	<path class="st3" d="M14.9,15.4H5.1c-0.1,0-0.2-0.1-0.2-0.2S5,15,5.1,15h9.8c0.1,0,0.2,0.1,0.2,0.2S15,15.4,14.9,15.4z"/>
	<path class="st3" d="M14.9,12.2H5.1c-0.1,0-0.2-0.1-0.2-0.2c0-0.1,0.1-0.2,0.2-0.2h9.8c0.1,0,0.2,0.1,0.2,0.2
		C15.1,12.1,15,12.2,14.9,12.2z"/>
</g>
<rect x="2.6" y="9.3" class="st4" width="24.6" height="13"/>
<rect x="5" y="5.9" class="st4" width="19.8" height="10.5"/>
<rect x="4.5" y="9.6" class="st5" width="20.8" height="7.4"/>
<rect x="13.5" y="14" transform="matrix(0.7071 -0.7071 0.7071 0.7071 -7.1671 14.3958)" width="0.5" height="3.6"/>
<rect x="15.8" y="14" transform="matrix(0.7071 0.7071 -0.7071 0.7071 15.8969 -6.6796)" width="0.5" height="3.6"/>
</svg>
